<?xml version="1.0" encoding="utf-8"?>
<!-- Generator: Adobe Illustrator 23.0.6, SVG Export Plug-In . SVG Version: 6.00 Build 0)  -->
<svg version="1.1" id="Layer_1" xmlns="http://www.w3.org/2000/svg" xmlns:xlink="http://www.w3.org/1999/xlink" x="0px" y="0px"
	 viewBox="0 0 2015.2 255.5" style="enable-background:new 0 0 2015.2 255.5;" xml:space="preserve">
<style type="text/css">
	.st0{fill:#D8D8D8;}
	.st1{fill:#D8D8D8;stroke:#D8D8D8;stroke-width:3;stroke-linejoin:round;stroke-miterlimit:10;}
</style>
<path class="st0" d="M1765.7,126.8c-0.1,63-52.2,115-115,114.8c-65.2-0.2-115.5-51.6-115.6-117.6c-0.1-58.5,50.4-116,121.4-113.1
	C1715.6,13.3,1765.8,64.5,1765.7,126.8z M1650.3,42c-46,0.1-84,37.8-83.9,83.5c0,47.2,36.7,84.3,83.5,84.6
	c47,0.2,84.7-37.5,84.6-84.5C1734.3,80.1,1695.8,42,1650.3,42z"/>
<path class="st0" d="M772.6,84.6c28.6,20.4,35.8,40.8,25.1,74.4c-10.8,34-32.2,59.7-64.1,76.1c-14.8,7.6-30.4,9.5-46.7,4.6
	c-2.1-0.6-5.5-0.7-7,0.6c-20.1,17.3-41.5,13.3-62.8,3.6c-17.6-8-31.9-20.2-41.2-37.5c-0.7-1.3-1.6-2.5-1.8-3.9
	c-3-18.3-11.4-35.4-14.8-53.1c-6.6-34.7,4.7-66.4,29.8-91.7c5.8-5.8,15.3-7.9,23.1-11.9c2.8-1.5,6.8-2.6,8-5.1
	c13.7-26.2,37.4-36.1,64.6-39.3c24-2.8,46.8,1.4,67.2,15.2C776.3,32.9,783,55.2,772.6,84.6z M675.2,190.1
	c-0.9,26.8,17.3,41.1,42.4,31.8c10.5-3.9,20.9-9.9,29.2-17.4c21.6-19.5,37.2-43,37-73.6c-0.2-22-16.3-33.9-37.7-29
	C710.9,109.9,676.5,152.7,675.2,190.1z M697.3,18.3c-16,0.7-31.3,3.6-44.9,12.7c-25.4,17.2-25.2,45.6,0.4,62.6
	c12.6,8.4,27,11.9,41.6,11.8c22.5-0.2,44.2-4.4,58.7-24.5c10.5-14.6,9.2-29.8-3.3-42.8C735.4,23.3,716.8,19.6,697.3,18.3z
	 M614.3,163.8c-21.8-0.6-32,13.8-23.9,30.3c11.1,22.6,29.9,35.5,54.7,39.5c8.9,1.4,17.5-0.1,23.1-7.9c5.5-7.6,3.7-16.1-0.1-23.7
	C656.4,178.4,636.3,166.9,614.3,163.8z M630.9,90c-0.2-2.9,0-5.8-0.6-8.6c-1.5-7-2.5-14.7-10.5-17.4c-8.3-2.8-14.5,2-19.6,7.6
	c-19,20.8-26.2,45.8-24.2,73.5c0.5,6.9,3.2,13.7,10.8,16.2c7.6,2.5,13.1-2.1,18.4-6.5c1.5-1.3,2.8-2.9,4-4.5
	C622.8,132.5,630.1,112.4,630.9,90z M682.4,123.6c-11.8-3.7-23.4-7.3-35.2-11c-4.5,11.8-9.2,23.9-13.9,36.2c9.1,5,18.3,10.1,27.2,15
	C667.8,150.4,675.1,137,682.4,123.6z"/>
<path class="st0" d="M978.9,126.2c68.4-14.5,108.9-55.5,123.4-123.6c14.7,68.4,55.3,109,123.7,123.7
	c-68.1,14.5-109.1,54.9-123.5,123.6C1087.7,181.9,1047.3,140.7,978.9,126.2z M1102.3,67.8c-14.3,24.8-33.5,43.8-58.5,58.6
	c25.5,14.3,44,33.8,58.7,58.1c14.4-25.2,33.7-43.9,58.2-58.4C1135.7,111.8,1116.8,92.7,1102.3,67.8z"/>
<path class="st0" d="M1849,159.7c6-6.5,10.7-11.8,15.7-16.8c36.3-36.2,72.4-72.6,109.2-108.4c7.4-7.2,16.8-12.9,26.1-17.7
	c3.9-2,10,0.3,15.2,0.6c-0.5,4.5,0,9.4-1.6,13.4c-7.6,18.6-22.4,31.6-36.1,45.4c-31.9,32.2-63.9,64.2-95.8,96.3
	c-2.7,2.7-5,5.9-8.1,9.6c4,1.4,6.7,2.2,9.2,3.3c6.5,2.9,10.1,7.6,8,15c-2,7.2-6.8,10.4-14.2,9c-5.6-1.1-11.4-1.9-16.7-3.8
	c-7.7-2.8-14.1-1.8-19.2,4.7c-4.3,5.6-8.9,11.1-12.2,17.3c-4.1,7.5-10.1,11.1-19.8,10c-7.8-1-13.9-6.9-15.4-15.1
	c-1.6-9,1.4-16,8.5-19.7c2-1.1,4.3-1.7,6.3-2.8c15.8-8.4,19.1-15.6,15.3-32.7c-1-4.7-1.6-9.6-2.4-14.4c-1-5.7-1.2-11,6.4-12.5
	c9.4-1.9,15.4,0.3,17.9,7.2C1846.6,150.9,1847.5,154.5,1849,159.7z"/>
<path class="st0" d="M924.8,246.5c-14.7,1.4-14.7,1.4-19.4-11.3c-4.8-12.9-10.2-25.6-14-38.7c-1.8-6.1-1.9-13.7,0-19.8
	c4.3-14.5,10.6-28.4,15.3-42.8c1.5-4.5,1.5-10.2,0.1-14.7c-4.2-13.3-9.4-26.4-15.1-41.8c-5,13.3-9.2,24.7-13.5,36
	c-5.5,14.5-2.3,13.7-19.8,12.7c0-39.6,0-79.3,0-119c14-2.9,14.4-2.7,19.2,10.2c4.3,11.7,8.7,23.4,14,37.6c5.1-13.8,9.4-25.4,13.6-37
	c4.8-13,4.7-13,19.6-11.2C924.8,86.4,924.8,166.2,924.8,246.5z"/>
<path class="st0" d="M1375.5,167.1c27-0.7,49.7,9.2,68.6,28.2c7,7.1,6.9,11.3,0.5,18.4c-35.1,38.5-100.7,38.3-135.7-0.4
	c-6.8-7.5-6.8-9.8,0.1-17.4C1325.5,177.4,1347,168.1,1375.5,167.1z M1400.9,193c-0.8,0.7-1.5,1.5-2.3,2.2c0,6.7,0,13.4,0,22.8
	c6.6-5.3,11.6-9.4,16.6-13.4C1410.5,200.7,1405.7,196.8,1400.9,193z M1355,217c0-9,0-15.2,0-23.3c-6.7,3.2-12.1,5.8-19.7,9.4
	C1342.7,208.2,1348.2,212.1,1355,217z"/>
<path class="st0" d="M1444.8,58.9c-2.8,1.8-5.9,3.3-8.5,5.4c-37.7,30.9-92.7,27.9-126.2-6.9c-7.7-8.1-7.8-11.7-0.3-19.5
	c34-35.3,90.4-38,127.5-6c13.5,11.7,13.7,12.1,7.2,27.4C1444.5,59.2,1444.8,58.9,1444.8,58.9z M1355.3,34
	c-6.8,5.6-11.9,9.9-17.1,14.1c5,3.3,10.1,6.6,15.2,9.8c0.3,0.2,1.1-0.2,1.9-0.4C1355.3,50.6,1355.3,43.7,1355.3,34z M1398.2,35.9
	c0,8.5,0,15.4,0,23.6c5.4-3,10.1-5,14-8.1c1.4-1.1,1.8-6.2,0.7-7C1408.8,41.2,1403.9,39,1398.2,35.9z"/>
<path class="st0" d="M1260.1,133.6c0-36.4,11.2-58.7,31.2-76.9c5.6-5.1,10.3-3.2,15,1.2c15.7,14.6,24.7,32.6,28.3,53.6
	c5.5,32.2-4.8,59.1-27.5,81.8c-7.5,7.5-10.9,7.2-18.7-0.1C1268.5,174.6,1260.2,151.3,1260.1,133.6z M1285.1,147
	c4.8,7.7,8.6,13.8,13.5,21.7c4.4-8.6,7.5-14.8,11-21.7C1301.4,147,1294.5,147,1285.1,147z M1311.5,104.5c-5.4-6.5-9.4-11.3-13.4-16
	c-4.1,4.8-8.2,9.7-13.6,16C1294.6,104.5,1301.6,104.5,1311.5,104.5z"/>
<path class="st0" d="M1444.8,58.9l-0.3,0.3c11.2-8,13.5-7.8,22.9,2.6c34.6,38,34.4,92.7-0.3,129.1c-10.1,10.6-13.8,10.6-23.7,0.1
	c-34-36.2-35-89.6-2.3-127.3C1442.4,62.2,1443.5,60.5,1444.8,58.9z M1466.1,147.4c-7.9,0-14.4,0-20.8,0c-0.7,0.6-1.4,1.3-2.1,1.9
	c3.8,5.1,7.5,14.4,11.4,14.5C1462.3,164,1464,155.1,1466.1,147.4z M1442.5,104.5c9.6,0,16.2,0,23,0c-1.9-7.5-3.7-16.3-11.5-16.2
	C1450.5,88.3,1447.1,97.7,1442.5,104.5z"/>
<path class="st0" d="M360.5,176.7c3.4-0.2,6.2-0.3,9.6-0.5c0.2-3.6,0.3-6.9,0.6-11.4c3.3,2.8,5.8,4.9,8.6,7.3
	c13-7.7,26.4-14.8,42.5-10.5c3.5,15.6,1.4,19.8-13.1,26.2c-4.8,2.1-9.8,3.9-14.2,6.6c-3.3,2.1-5.7,5.5-7.3,7.2
	c-6.6,2.1-12.6,3.6-18.2,5.9c-10.1,4.2-20,8.9-31.2,13.9c-0.1,1.3-0.3,4.3-0.4,5.7c-5.2,2.6-10.9,3.7-13.8,7.2
	c-6.1,7.5-13.6,7.8-21.9,7.3c-3.1-0.2-6.2,0-10.7,0c0-9.4,0-18.1,0-26.9c0-11.8-0.3-23.5,0.1-35.3c0.2-5.6-1-8.9-8.3-8
	c2.9-3.6,5.1-6.5,7.1-9c-3-3.5-5.7-6.6-9-10.5c3.9-0.9,6.3-1.4,10.2-2.3c-3.5-4.1-6.4-7.3-9.7-11.1c3.1-0.6,5.8-1,9.1-1.6
	c0.3-4.6,0.5-9,0.8-14.1c7.8,0,15.3,0,22.4,0c4.6,6-4.6,16.7,8.4,19.3c-1.4,1.9-2.6,3.6-4.5,6.3c2.5,1.6,5.1,3.3,8.1,5.3
	c-3.1,2.7-5.1,4.4-7.5,6.4c1.9,2.4,3.7,4.5,6,7.4c-3.1,0.4-5.5,0.7-8.2,1c0,10.8,0,21.5,0,32.2c0.8,0.1,1.6,0.2,2.5,0.3
	c0.6-3,1.2-6,1.7-8.9c15.4,5.3,26.5-6.2,39.5-10.3C360.3,181.8,360.2,178.7,360.5,176.7z"/>
<path class="st0" d="M392.9,147c0-9.3,0-16.2,0-22.6c9-9.2,26.7-3.3,32.5-19.1c1.7,1.2,4.1,2.8,6.7,4.7c11.2-8.7-0.6-17.9,1.7-26.7
	c-3.4-0.3-6.2-0.6-7.4-0.7c0.8-11,1.5-21.7,2.3-33.3c5,0,10.2-0.9,15,0.3c3,0.7,5.4,4.4,7.7,7.1c2.8,3.2,5.3,6.8,7.7,9.9
	c0.6,8.8,1.1,18.4,1.8,28.6c10.5-3.9,23.2-1.8,27.1-13c9.8,1.1,19.4,2.3,30.3,3.5c-0.5,7.4-1.1,14.9-1.6,22.5
	c-4.2,0.3-7,0.6-10.3,0.8c-0.6,3.2-1.2,6.4-1.9,10.6c-12.1-13.8-21.3,0.6-31.7,1.8c3.1,8.2,4.4,17.6,9.5,24.1
	c6.8,8.6,1.4,16.8,4.1,25.9c-7.2,0-13.1,0.2-19-0.1c-5.6-0.3-10.5-7.8-11-16.3c-0.4-7.5-7.9-19.2-14-21.2c-0.4,3.4-0.7,6.6-1.3,11.8
	c-8.6-13.1-17.4-3.1-25.9-2.3C408,144,401,145.6,392.9,147z"/>
<path class="st0" d="M363.3,114c-8.3,0-14,0-20.1,0c-1.4-5-2.7-10-4.1-15c-0.4-1.3-0.8-2.7-1.5-3.7c-2.3-3.2-4.8-6.3-6.5-10.4
	c-7.4-3.3-15.3-2.1-23.5,0.6c-6.9,2.3-14.3,3-22.9,4.7c0-8.4-0.2-14.6,0.2-20.8c0.1-1.6,2.1-3.6,3.7-4.4c7.2-3.7,14.9-6.6,21.9-10.6
	c2.8-1.5,4.4-5.1,6.7-7.9c-10-10.3-6.5-22.6-6.8-35.2c8.4,0.1,17.2-3.5,23,4.7c4.1,5.7,6.6,12.4,11,21c9.9,4,22.4-0.8,31.3-7.6
	c8.1-6.2,15.2-5.4,24.7-5.6c0,8.1,2.4,17.2-0.8,23.5c-2.4,4.9-11.5,6.9-18,9.5c-6.6,2.7-14.1,3.6-20.2,7c-5.6,3.2-2.6,9.8-2.1,14.9
	C360.5,90.2,361.9,101.6,363.3,114z"/>
<path class="st0" d="M692.5,191.2c0.4-25.6,26.1-60.5,50.4-68.5c10.6-3.5,17-0.1,16.6,10.9c-0.4,9.7-2.8,19.8-6.6,28.8
	c-8.1,18.9-21.2,34-40.5,42.4C698.7,210.8,692.2,206.1,692.5,191.2z"/>
<path class="st0" d="M684.9,38.6c19.5,0.6,34.2,3.7,45.8,14.9c9.8,9.4,8.5,19-3.1,25.9c-18.2,10.9-50,9.4-67.2-3.2
	c-15.7-11.5-14.6-24.7,3.3-32.1C671.6,40.9,680.2,39.8,684.9,38.6z"/>
<path class="st0" d="M643.9,218.1c-16.3-2.9-31.6-11.3-40.9-28.4c-3.9-7.2-1.5-10.6,6.8-11c14.6-0.6,39.8,17.1,44.2,31.1
	C655.9,215.9,653.8,218.2,643.9,218.1z"/>
<path class="st0" d="M590.5,145.7c-6.6-20.1,6.7-57.4,22.4-63.7C621.4,97.1,606.9,139.5,590.5,145.7z"/>
<g>
	<path class="st1" d="M125.4,8.4L137.6,99l72.7-55.3l-55.2,72.7l90.5,12.4l-90.5,12.3l55.2,72.7l-72.7-55.3l-12.3,90.6l-12.3-90.6
		l-72.7,55.3l55.2-72.7L5.1,128.9l90.5-12.4L40.3,43.7L113.1,99L125.4,8.4z"/>
</g>
</svg>
