<svg id="Layer_1" data-name="Layer 1" xmlns="http://www.w3.org/2000/svg" width="2007.1891" height="255.5" viewBox="0 0 2007.1891 255.5"><defs><style>.cls-1,.cls-2{fill:#d8d8d8;}.cls-2{stroke:#d8d8d8;stroke-linejoin:round;stroke-width:3px;}</style></defs><title>alias_line_light-02</title><path class="cls-1" d="M1757.6253,126.8c-.1,63-52.2,115-115,114.8-65.2-.2-115.5-51.6-115.6-117.6-.1-58.5,50.4-116,121.4-113.1C1707.5252,13.3,1757.7253,64.5,1757.6253,126.8Zm-115.4-84.8c-46,.1-84,37.8-83.9,83.5,0,47.2,36.7,84.3,83.5,84.6a83.975,83.975,0,0,0,84.6-84.5C1726.2253,80.1,1687.7253,42,1642.2253,42Z"/><path class="cls-1" d="M764.5253,84.6c28.6,20.4,35.8,40.8,25.1,74.4-10.8,34-32.2,59.7-64.1,76.1-14.8,7.6-30.4,9.5-46.7,4.6-2.1-.6-5.5-.7-7,.6-20.1,17.3-41.5,13.3-62.8,3.6-17.6-8-31.9-20.2-41.2-37.5a12.49,12.49,0,0,1-1.8-3.9c-3-18.3-11.4-35.4-14.8-53.1-6.6-34.7,4.7-66.4,29.8-91.7,5.8-5.8,15.3-7.9,23.1-11.9,2.8-1.5,6.8-2.6,8-5.1,13.7-26.2,37.4-36.1,64.6-39.3,24-2.8,46.8,1.4,67.2,15.2C768.2252,32.9,774.9253,55.2,764.5253,84.6Zm-97.4,105.5c-.9,26.8,17.3,41.1,42.4,31.8a92.082,92.082,0,0,0,29.2-17.4c21.6-19.5,37.2-43,37-73.6-.2-22-16.3-33.9-37.7-29C702.8253,109.9,668.4253,152.7,667.1252,190.1Zm22.1-171.8c-16,.7-31.3,3.6-44.9,12.7-25.4,17.2-25.2,45.6.4,62.6,12.6,8.4,27,11.9,41.6,11.8,22.5-.2,44.2-4.4,58.7-24.5,10.5-14.6,9.2-29.8-3.3-42.8C727.3253,23.3,708.7252,19.6,689.2252,18.3Zm-83,145.5c-21.8-.6-32,13.8-23.9,30.3,11.1,22.6,29.9,35.5,54.7,39.5,8.9,1.4,17.5-.1,23.1-7.9,5.5-7.6,3.7-16.1-.1-23.7C648.3253,178.4,628.2252,166.9,606.2252,163.8Zm16.6-73.8c-.2-2.9,0-5.8-.6-8.6-1.5-7-2.5-14.7-10.5-17.4-8.3-2.8-14.5,2-19.6,7.6-19,20.8-26.2,45.8-24.2,73.5.5,6.9,3.2,13.7,10.8,16.2s13.1-2.1,18.4-6.5a28.6091,28.6091,0,0,0,4-4.5A103.2008,103.2008,0,0,0,622.8253,90Zm51.5,33.6c-11.8-3.7-23.4-7.3-35.2-11-4.5,11.8-9.2,23.9-13.9,36.2,9.1,5,18.3,10.1,27.2,15Q663.3752,143.7,674.3253,123.6Z"/><path class="cls-1" d="M970.8253,126.2c68.4-14.5,108.9-55.5,123.4-123.6,14.7,68.4,55.3,109,123.7,123.7-68.1,14.5-109.1,54.9-123.5,123.6C1079.6252,181.9,1039.2253,140.7,970.8253,126.2Zm123.4-58.4c-14.3,24.8-33.5,43.8-58.5,58.6,25.5,14.3,44,33.8,58.7,58.1,14.4-25.2,33.7-43.9,58.2-58.4C1127.6252,111.8,1108.7253,92.7,1094.2253,67.8Z"/><path class="cls-1" d="M1840.9252,159.7c6-6.5,10.7-11.8,15.7-16.8,36.3-36.2,72.4-72.6,109.2-108.4,7.4-7.2,16.8-12.9,26.1-17.7,3.9-2,10,.3,15.2.6-.5,4.5,0,9.4-1.6,13.4-7.6,18.6-22.4,31.6-36.1,45.4q-47.85,48.3-95.8,96.3c-2.7,2.7-5,5.9-8.1,9.6,4,1.4,6.7,2.2,9.2,3.3,6.5,2.9,10.1,7.6,8,15-2,7.2-6.8,10.4-14.2,9-5.6-1.1-11.4-1.9-16.7-3.8-7.7-2.8-14.1-1.8-19.2,4.7-4.3,5.6-8.9,11.1-12.2,17.3-4.1,7.5-10.1,11.1-19.8,10-7.8-1-13.9-6.9-15.4-15.1-1.6-9,1.4-16,8.5-19.7,2-1.1,4.3-1.7,6.3-2.8,15.8-8.4,19.1-15.6,15.3-32.7-1-4.7-1.6-9.6-2.4-14.4-1-5.7-1.2-11,6.4-12.5,9.4-1.9,15.4.3,17.9,7.2C1838.5252,150.9,1839.4252,154.5,1840.9252,159.7Z"/><path class="cls-1" d="M916.7253,246.5c-14.7,1.4-14.7,1.4-19.4-11.3-4.8-12.9-10.2-25.6-14-38.7a36.0117,36.0117,0,0,1,0-19.8c4.3-14.5,10.6-28.4,15.3-42.8a25.3834,25.3834,0,0,0,.1-14.7c-4.2-13.3-9.4-26.4-15.1-41.8-5,13.3-9.2,24.7-13.5,36-5.5,14.5-2.3,13.7-19.8,12.7V7.1c14-2.9,14.4-2.7,19.2,10.2,4.3,11.7,8.7,23.4,14,37.6,5.1-13.8,9.4-25.4,13.6-37,4.8-13,4.7-13,19.6-11.2Q916.7254,126.25,916.7253,246.5Z"/><path class="cls-1" d="M1367.4252,167.1c27-.7,49.7,9.2,68.6,28.2,7,7.1,6.9,11.3.5,18.4-35.1,38.5-100.7,38.3-135.7-.4-6.8-7.5-6.8-9.8.1-17.4C1317.4252,177.4,1338.9252,168.1,1367.4252,167.1Zm25.4,25.9c-.8.7-1.5,1.5-2.3,2.2V218c6.6-5.3,11.6-9.4,16.6-13.4C1402.4252,200.7,1397.6253,196.8,1392.8253,193Zm-45.9,24V193.7c-6.7,3.2-12.1,5.8-19.7,9.4C1334.6253,208.2,1340.1253,212.1,1346.9252,217Z"/><path class="cls-1" d="M1436.7253,58.9c-2.8,1.8-5.9,3.3-8.5,5.4-37.7,30.9-92.7,27.9-126.2-6.9-7.7-8.1-7.8-11.7-.3-19.5,34-35.3,90.4-38,127.5-6,13.5,11.7,13.7,12.1,7.2,27.4C1436.4252,59.2,1436.7253,58.9,1436.7253,58.9Zm-89.5-24.9c-6.8,5.6-11.9,9.9-17.1,14.1,5,3.3,10.1,6.6,15.2,9.8.3.2,1.1-.2,1.9-.4Zm42.9,1.9V59.5c5.4-3,10.1-5,14-8.1,1.4-1.1,1.8-6.2.7-7C1400.7253,41.2,1395.8253,39,1390.1253,35.9Z"/><path class="cls-1" d="M1252.0253,133.6c0-36.4,11.2-58.7,31.2-76.9,5.6-5.1,10.3-3.2,15,1.2,15.7,14.6,24.7,32.6,28.3,53.6,5.5,32.2-4.8,59.1-27.5,81.8-7.5,7.5-10.9,7.2-18.7-.1C1260.4252,174.6,1252.1252,151.3,1252.0253,133.6Zm25,13.4c4.8,7.7,8.6,13.8,13.5,21.7,4.4-8.6,7.5-14.8,11-21.7Zm26.4-42.5c-5.4-6.5-9.4-11.3-13.4-16-4.1,4.8-8.2,9.7-13.6,16Z"/><path class="cls-1" d="M1436.7253,58.9l-.3.3c11.2-8,13.5-7.8,22.9,2.6,34.6,38,34.4,92.7-.3,129.1-10.1,10.6-13.8,10.6-23.7.1-34-36.2-35-89.6-2.3-127.3C1434.3253,62.2,1435.4252,60.5,1436.7253,58.9Zm21.3,88.5h-20.8c-.7.6-1.4,1.3-2.1,1.9,3.8,5.1,7.5,14.4,11.4,14.5C1454.2253,164,1455.9252,155.1,1458.0252,147.4Zm-23.6-42.9h23c-1.9-7.5-3.7-16.3-11.5-16.2C1442.4252,88.3,1439.0252,97.7,1434.4252,104.5Z"/><path class="cls-1" d="M352.4252,176.7c3.4-.2,6.2-.3,9.6-.5.2-3.6.3-6.9.6-11.4,3.3,2.8,5.8,4.9,8.6,7.3,13-7.7,26.4-14.8,42.5-10.5,3.5,15.6,1.4,19.8-13.1,26.2-4.8,2.1-9.8,3.9-14.2,6.6-3.3,2.1-5.7,5.5-7.3,7.2-6.6,2.1-12.6,3.6-18.2,5.9-10.1,4.2-20,8.9-31.2,13.9-.1,1.3-.3,4.3-.4,5.7-5.2,2.6-10.9,3.7-13.8,7.2-6.1,7.5-13.6,7.8-21.9,7.3-3.1-.2-6.2,0-10.7,0V214.7c0-11.8-.3-23.5.1-35.3.2-5.6-1-8.9-8.3-8,2.9-3.6,5.1-6.5,7.1-9-3-3.5-5.7-6.6-9-10.5,3.9-.9,6.3-1.4,10.2-2.3-3.5-4.1-6.4-7.3-9.7-11.1,3.1-.6,5.8-1,9.1-1.6.3-4.6.5-9,.8-14.1h22.4c4.6,6-4.6,16.7,8.4,19.3-1.4,1.9-2.6,3.6-4.5,6.3,2.5,1.6,5.1,3.3,8.1,5.3-3.1,2.7-5.1,4.4-7.5,6.4,1.9,2.4,3.7,4.5,6,7.4-3.1.4-5.5.7-8.2,1v32.2c.8.1,1.6.2,2.5.3.6-3,1.2-6,1.7-8.9,15.4,5.3,26.5-6.2,39.5-10.3C352.2253,181.8,352.1253,178.7,352.4252,176.7Z"/><path class="cls-1" d="M384.8253,147V124.4c9-9.2,26.7-3.3,32.5-19.1,1.7,1.2,4.1,2.8,6.7,4.7,11.2-8.7-.6-17.9,1.7-26.7-3.4-.3-6.2-.6-7.4-.7.8-11,1.5-21.7,2.3-33.3,5,0,10.2-.9,15,.3,3,.7,5.4,4.4,7.7,7.1,2.8,3.2,5.3,6.8,7.7,9.9.6,8.8,1.1,18.4,1.8,28.6,10.5-3.9,23.2-1.8,27.1-13,9.8,1.1,19.4,2.3,30.3,3.5-.5,7.4-1.1,14.9-1.6,22.5-4.2.3-7,.6-10.3.8-.6,3.2-1.2,6.4-1.9,10.6-12.1-13.8-21.3.6-31.7,1.8,3.1,8.2,4.4,17.6,9.5,24.1,6.8,8.6,1.4,16.8,4.1,25.9-7.2,0-13.1.2-19-.1-5.6-.3-10.5-7.8-11-16.3-.4-7.5-7.9-19.2-14-21.2-.4,3.4-.7,6.6-1.3,11.8-8.6-13.1-17.4-3.1-25.9-2.3C399.9253,144,392.9252,145.6,384.8253,147Z"/><path class="cls-1" d="M355.2253,114h-20.1c-1.4-5-2.7-10-4.1-15a13.6587,13.6587,0,0,0-1.5-3.7c-2.3-3.2-4.8-6.3-6.5-10.4-7.4-3.3-15.3-2.1-23.5.6-6.9,2.3-14.3,3-22.9,4.7,0-8.4-.2-14.6.2-20.8.1-1.6,2.1-3.6,3.7-4.4,7.2-3.7,14.9-6.6,21.9-10.6,2.8-1.5,4.4-5.1,6.7-7.9-10-10.3-6.5-22.6-6.8-35.2,8.4.1,17.2-3.5,23,4.7,4.1,5.7,6.6,12.4,11,21,9.9,4,22.4-.8,31.3-7.6,8.1-6.2,15.2-5.4,24.7-5.6,0,8.1,2.4,17.2-.8,23.5-2.4,4.9-11.5,6.9-18,9.5-6.6,2.7-14.1,3.6-20.2,7-5.6,3.2-2.6,9.8-2.1,14.9C352.4252,90.2,353.8253,101.6,355.2253,114Z"/><path class="cls-1" d="M684.4253,191.2c.4-25.6,26.1-60.5,50.4-68.5,10.6-3.5,17-.1,16.6,10.9a84.5011,84.5011,0,0,1-6.6,28.8c-8.1,18.9-21.2,34-40.5,42.4C690.6252,210.8,684.1252,206.1,684.4253,191.2Z"/><path class="cls-1" d="M676.8253,38.6c19.5.6,34.2,3.7,45.8,14.9,9.8,9.4,8.5,19-3.1,25.9-18.2,10.9-50,9.4-67.2-3.2-15.7-11.5-14.6-24.7,3.3-32.1C663.5253,40.9,672.1252,39.8,676.8253,38.6Z"/><path class="cls-1" d="M635.8253,218.1c-16.3-2.9-31.6-11.3-40.9-28.4-3.9-7.2-1.5-10.6,6.8-11,14.6-.6,39.8,17.1,44.2,31.1C647.8253,215.9,645.7252,218.2,635.8253,218.1Z"/><path class="cls-1" d="M582.4253,145.7c-6.6-20.1,6.7-57.4,22.4-63.7C613.3253,97.1,598.8253,139.5,582.4253,145.7Z"/><path class="cls-2" d="M117.307,13.6585l11.5806,85.4662,68.6082-52.1892-52.0425,68.6082,85.3195,11.7273-85.3195,11.5806,52.0425,68.607-68.6082-52.1879L117.307,240.7368l-11.5806-85.4661L37.1181,207.4586l52.0425-68.607L3.8412,127.271l85.3194-11.7273L37.1181,46.9355l68.6083,52.1892Z"/></svg>