<?xml version="1.0" encoding="utf-8"?>
<!-- Generator: Adobe Illustrator 23.0.6, SVG Export Plug-In . SVG Version: 6.00 Build 0)  -->
<svg version="1.1" id="Layer_1" xmlns="http://www.w3.org/2000/svg" xmlns:xlink="http://www.w3.org/1999/xlink" x="0px" y="0px"
	 viewBox="0 0 1737.3 255.5" style="enable-background:new 0 0 1737.3 255.5;" xml:space="preserve">
<style type="text/css">
	.st0{fill:#D8D8D8;}
</style>
<path class="st0" d="M1487.8,126.8c-0.1,63-52.2,115-115,114.8c-65.2-0.2-115.5-51.6-115.6-117.6c-0.1-58.5,50.4-116,121.4-113.1
	C1437.7,13.3,1487.9,64.5,1487.8,126.8z M1372.4,42c-46,0.1-84,37.8-83.9,83.5c0,47.2,36.7,84.3,83.5,84.6
	c47,0.2,84.7-37.5,84.6-84.5C1456.4,80.1,1417.9,42,1372.4,42z"/>
<path class="st0" d="M494.7,84.6c28.6,20.4,35.8,40.8,25.1,74.4c-10.8,34-32.2,59.7-64.1,76.1c-14.8,7.6-30.4,9.5-46.7,4.6
	c-2.1-0.6-5.5-0.7-7,0.6c-20.1,17.3-41.5,13.3-62.8,3.6c-17.6-8-31.9-20.2-41.2-37.5c-0.7-1.3-1.6-2.5-1.8-3.9
	c-3-18.3-11.4-35.4-14.8-53.1c-6.6-34.7,4.7-66.4,29.8-91.7c5.8-5.8,15.3-7.9,23.1-11.9c2.8-1.5,6.8-2.6,8-5.1
	C356,14.5,379.7,4.6,406.9,1.4c24-2.8,46.8,1.4,67.2,15.2C498.4,32.9,505.1,55.2,494.7,84.6z M397.3,190.1
	c-0.9,26.8,17.3,41.1,42.4,31.8c10.5-3.9,20.9-9.9,29.2-17.4c21.6-19.5,37.2-43,37-73.6c-0.2-22-16.3-33.9-37.7-29
	C433,109.9,398.6,152.7,397.3,190.1z M419.4,18.3c-16,0.7-31.3,3.6-44.9,12.7c-25.4,17.2-25.2,45.6,0.4,62.6
	c12.6,8.4,27,11.9,41.6,11.8c22.5-0.2,44.2-4.4,58.7-24.5c10.5-14.6,9.2-29.8-3.3-42.8C457.5,23.3,438.9,19.6,419.4,18.3z
	 M336.4,163.8c-21.8-0.6-32,13.8-23.9,30.3c11.1,22.6,29.9,35.5,54.7,39.5c8.9,1.4,17.5-0.1,23.1-7.9c5.5-7.6,3.7-16.1-0.1-23.7
	C378.5,178.4,358.4,166.9,336.4,163.8z M353,90c-0.2-2.9,0-5.8-0.6-8.6c-1.5-7-2.5-14.7-10.5-17.4c-8.3-2.8-14.5,2-19.6,7.6
	c-19,20.8-26.2,45.8-24.2,73.5c0.5,6.9,3.2,13.7,10.8,16.2c7.6,2.5,13.1-2.1,18.4-6.5c1.5-1.3,2.8-2.9,4-4.5
	C344.9,132.5,352.2,112.4,353,90z M404.5,123.6c-11.8-3.7-23.4-7.3-35.2-11c-4.5,11.8-9.2,23.9-13.9,36.2c9.1,5,18.3,10.1,27.2,15
	C389.9,150.4,397.2,137,404.5,123.6z"/>
<path class="st0" d="M701,126.2c68.4-14.5,108.9-55.5,123.4-123.6c14.7,68.4,55.3,109,123.7,123.7C880,140.8,839,181.2,824.6,249.9
	C809.8,181.9,769.4,140.7,701,126.2z M824.4,67.8c-14.3,24.8-33.5,43.8-58.5,58.6c25.5,14.3,44,33.8,58.7,58.1
	c14.4-25.2,33.7-43.9,58.2-58.4C857.8,111.8,838.9,92.7,824.4,67.8z"/>
<path class="st0" d="M1571.1,159.7c6-6.5,10.7-11.8,15.7-16.8c36.3-36.2,72.4-72.6,109.2-108.4c7.4-7.2,16.8-12.9,26.1-17.7
	c3.9-2,10,0.3,15.2,0.6c-0.5,4.5,0,9.4-1.6,13.4c-7.6,18.6-22.4,31.6-36.1,45.4c-31.9,32.2-63.9,64.2-95.8,96.3
	c-2.7,2.7-5,5.9-8.1,9.6c4,1.4,6.7,2.2,9.2,3.3c6.5,2.9,10.1,7.6,8,15c-2,7.2-6.8,10.4-14.2,9c-5.6-1.1-11.4-1.9-16.7-3.8
	c-7.7-2.8-14.1-1.8-19.2,4.7c-4.3,5.6-8.9,11.1-12.2,17.3c-4.1,7.5-10.1,11.1-19.8,10c-7.8-1-13.9-6.9-15.4-15.1
	c-1.6-9,1.4-16,8.5-19.7c2-1.1,4.3-1.7,6.3-2.8c15.8-8.4,19.1-15.6,15.3-32.7c-1-4.7-1.6-9.6-2.4-14.4c-1-5.7-1.2-11,6.4-12.5
	c9.4-1.9,15.4,0.3,17.9,7.2C1568.7,150.9,1569.6,154.5,1571.1,159.7z"/>
<path class="st0" d="M646.9,246.5c-14.7,1.4-14.7,1.4-19.4-11.3c-4.8-12.9-10.2-25.6-14-38.7c-1.8-6.1-1.9-13.7,0-19.8
	c4.3-14.5,10.6-28.4,15.3-42.8c1.5-4.5,1.5-10.2,0.1-14.7c-4.2-13.3-9.4-26.4-15.1-41.8c-5,13.3-9.2,24.7-13.5,36
	c-5.5,14.5-2.3,13.7-19.8,12.7c0-39.6,0-79.3,0-119c14-2.9,14.4-2.7,19.2,10.2c4.3,11.7,8.7,23.4,14,37.6c5.1-13.8,9.4-25.4,13.6-37
	c4.8-13,4.7-13,19.6-11.2C646.9,86.4,646.9,166.2,646.9,246.5z"/>
<path class="st0" d="M1097.6,167.1c27-0.7,49.7,9.2,68.6,28.2c7,7.1,6.9,11.3,0.5,18.4c-35.1,38.5-100.7,38.3-135.7-0.4
	c-6.8-7.5-6.8-9.8,0.1-17.4C1047.6,177.4,1069.1,168.1,1097.6,167.1z M1123,193c-0.8,0.7-1.5,1.5-2.3,2.2c0,6.7,0,13.4,0,22.8
	c6.6-5.3,11.6-9.4,16.6-13.4C1132.6,200.7,1127.8,196.8,1123,193z M1077.1,217c0-9,0-15.2,0-23.3c-6.7,3.2-12.1,5.8-19.7,9.4
	C1064.8,208.2,1070.3,212.1,1077.1,217z"/>
<path class="st0" d="M1166.9,58.9c-2.8,1.8-5.9,3.3-8.5,5.4c-37.7,30.9-92.7,27.9-126.2-6.9c-7.7-8.1-7.8-11.7-0.3-19.5
	c34-35.3,90.4-38,127.5-6c13.5,11.7,13.7,12.1,7.2,27.4C1166.6,59.2,1166.9,58.9,1166.9,58.9z M1077.4,34
	c-6.8,5.6-11.9,9.9-17.1,14.1c5,3.3,10.1,6.6,15.2,9.8c0.3,0.2,1.1-0.2,1.9-0.4C1077.4,50.6,1077.4,43.7,1077.4,34z M1120.3,35.9
	c0,8.5,0,15.4,0,23.6c5.4-3,10.1-5,14-8.1c1.4-1.1,1.8-6.2,0.7-7C1130.9,41.2,1126,39,1120.3,35.9z"/>
<path class="st0" d="M982.2,133.6c0-36.4,11.2-58.7,31.2-76.9c5.6-5.1,10.3-3.2,15,1.2c15.7,14.6,24.7,32.6,28.3,53.6
	c5.5,32.2-4.8,59.1-27.5,81.8c-7.5,7.5-10.9,7.2-18.7-0.1C990.6,174.6,982.3,151.3,982.2,133.6z M1007.2,147
	c4.8,7.7,8.6,13.8,13.5,21.7c4.4-8.6,7.5-14.8,11-21.7C1023.5,147,1016.6,147,1007.2,147z M1033.6,104.5c-5.4-6.5-9.4-11.3-13.4-16
	c-4.1,4.8-8.2,9.7-13.6,16C1016.7,104.5,1023.7,104.5,1033.6,104.5z"/>
<path class="st0" d="M1166.9,58.9l-0.3,0.3c11.2-8,13.5-7.8,22.9,2.6c34.6,38,34.4,92.7-0.3,129.1c-10.1,10.6-13.8,10.6-23.7,0.1
	c-34-36.2-35-89.6-2.3-127.3C1164.5,62.2,1165.6,60.5,1166.9,58.9z M1188.2,147.4c-7.9,0-14.4,0-20.8,0c-0.7,0.6-1.4,1.3-2.1,1.9
	c3.8,5.1,7.5,14.4,11.4,14.5C1184.4,164,1186.1,155.1,1188.2,147.4z M1164.6,104.5c9.6,0,16.2,0,23,0c-1.9-7.5-3.7-16.3-11.5-16.2
	C1172.6,88.3,1169.2,97.7,1164.6,104.5z"/>
<path class="st0" d="M82.6,176.7c3.4-0.2,6.2-0.3,9.6-0.5c0.2-3.6,0.3-6.9,0.6-11.4c3.3,2.8,5.8,4.9,8.6,7.3
	c13-7.7,26.4-14.8,42.5-10.5c3.5,15.6,1.4,19.8-13.1,26.2c-4.8,2.1-9.8,3.9-14.2,6.6c-3.3,2.1-5.7,5.5-7.3,7.2
	c-6.6,2.1-12.6,3.6-18.2,5.9c-10.1,4.2-20,8.9-31.2,13.9c-0.1,1.3-0.3,4.3-0.4,5.7c-5.2,2.6-10.9,3.7-13.8,7.2
	c-6.1,7.5-13.6,7.8-21.9,7.3c-3.1-0.2-6.2,0-10.7,0c0-9.4,0-18.1,0-26.9c0-11.8-0.3-23.5,0.1-35.3c0.2-5.6-1-8.9-8.3-8
	c2.9-3.6,5.1-6.5,7.1-9c-3-3.5-5.7-6.6-9-10.5c3.9-0.9,6.3-1.4,10.2-2.3c-3.5-4.1-6.4-7.3-9.7-11.1c3.1-0.6,5.8-1,9.1-1.6
	c0.3-4.6,0.5-9,0.8-14.1c7.8,0,15.3,0,22.4,0c4.6,6-4.6,16.7,8.4,19.3c-1.4,1.9-2.6,3.6-4.5,6.3c2.5,1.6,5.1,3.3,8.1,5.3
	c-3.1,2.7-5.1,4.4-7.5,6.4c1.9,2.4,3.7,4.5,6,7.4c-3.1,0.4-5.5,0.7-8.2,1c0,10.8,0,21.5,0,32.2c0.8,0.1,1.6,0.2,2.5,0.3
	c0.6-3,1.2-6,1.7-8.9c15.4,5.3,26.5-6.2,39.5-10.3C82.4,181.8,82.3,178.7,82.6,176.7z"/>
<path class="st0" d="M115,147c0-9.3,0-16.2,0-22.6c9-9.2,26.7-3.3,32.5-19.1c1.7,1.2,4.1,2.8,6.7,4.7c11.2-8.7-0.6-17.9,1.7-26.7
	c-3.4-0.3-6.2-0.6-7.4-0.7c0.8-11,1.5-21.7,2.3-33.3c5,0,10.2-0.9,15,0.3c3,0.7,5.4,4.4,7.7,7.1c2.8,3.2,5.3,6.8,7.7,9.9
	c0.6,8.8,1.1,18.4,1.8,28.6c10.5-3.9,23.2-1.8,27.1-13c9.8,1.1,19.4,2.3,30.3,3.5c-0.5,7.4-1.1,14.9-1.6,22.5
	c-4.2,0.3-7,0.6-10.3,0.8c-0.6,3.2-1.2,6.4-1.9,10.6c-12.1-13.8-21.3,0.6-31.7,1.8c3.1,8.2,4.4,17.6,9.5,24.1
	c6.8,8.6,1.4,16.8,4.1,25.9c-7.2,0-13.1,0.2-19-0.1c-5.6-0.3-10.5-7.8-11-16.3c-0.4-7.5-7.9-19.2-14-21.2c-0.4,3.4-0.7,6.6-1.3,11.8
	c-8.6-13.1-17.4-3.1-25.9-2.3C130.1,144,123.1,145.6,115,147z"/>
<path class="st0" d="M85.4,114c-8.3,0-14,0-20.1,0c-1.4-5-2.7-10-4.1-15c-0.4-1.3-0.8-2.7-1.5-3.7c-2.3-3.2-4.8-6.3-6.5-10.4
	c-7.4-3.3-15.3-2.1-23.5,0.6c-6.9,2.3-14.3,3-22.9,4.7c0-8.4-0.2-14.6,0.2-20.8c0.1-1.6,2.1-3.6,3.7-4.4c7.2-3.7,14.9-6.6,21.9-10.6
	c2.8-1.5,4.4-5.1,6.7-7.9c-10-10.3-6.5-22.6-6.8-35.2c8.4,0.1,17.2-3.5,23,4.7c4.1,5.7,6.6,12.4,11,21c9.9,4,22.4-0.8,31.3-7.6
	c8.1-6.2,15.2-5.4,24.7-5.6c0,8.1,2.4,17.2-0.8,23.5c-2.4,4.9-11.5,6.9-18,9.5c-6.6,2.7-14.1,3.6-20.2,7c-5.6,3.2-2.6,9.8-2.1,14.9
	C82.6,90.2,84,101.6,85.4,114z"/>
<path class="st0" d="M414.6,191.2c0.4-25.6,26.1-60.5,50.4-68.5c10.6-3.5,17-0.1,16.6,10.9c-0.4,9.7-2.8,19.8-6.6,28.8
	c-8.1,18.9-21.2,34-40.5,42.4C420.8,210.8,414.3,206.1,414.6,191.2z"/>
<path class="st0" d="M407,38.6c19.5,0.6,34.2,3.7,45.8,14.9c9.8,9.4,8.5,19-3.1,25.9c-18.2,10.9-50,9.4-67.2-3.2
	c-15.7-11.5-14.6-24.7,3.3-32.1C393.7,40.9,402.3,39.8,407,38.6z"/>
<path class="st0" d="M366,218.1c-16.3-2.9-31.6-11.3-40.9-28.4c-3.9-7.2-1.5-10.6,6.8-11c14.6-0.6,39.8,17.1,44.2,31.1
	C378,215.9,375.9,218.2,366,218.1z"/>
<path class="st0" d="M312.6,145.7C306,125.6,319.3,88.3,335,82C343.5,97.1,329,139.5,312.6,145.7z"/>
</svg>
