<svg id="Layer_1" data-name="Layer 1" xmlns="http://www.w3.org/2000/svg" width="330.9022" height="484.5842" viewBox="0 0 330.9022 484.5842"><defs><style>.cls-1{fill:#9682ff;}</style></defs><title>anaquel_logo_v2</title><rect class="cls-1" x="64.1358" y="30.9217" width="202.6866" height="63.175"/><rect class="cls-1" x="64.1358" y="194.1239" width="202.6866" height="63.175"/><path class="cls-1" d="M267.7272,484.5842h63.175V0h-63.175V21.0068l-.0241.0388a42.1491,42.1491,0,0,1,41.9437,42.1486h0a42.1491,42.1491,0,0,1-42.149,42.149h.2294v78.6635l-.0241.0388a42.1491,42.1491,0,0,1,41.9437,42.1486h0a42.1491,42.1491,0,0,1-42.149,42.149h.2294Z"/><path class="cls-1" d="M64.167,484.5842H0V0H64.167V21.0068l.0244.0388c-23.5621.1131-42.6022,18.95-42.6022,42.1486h0c0,23.2782,19.167,42.149,42.8108,42.149h-.233v78.6635l.0244.0388c-23.5621.1131-42.6022,18.9505-42.6022,42.1486h0c0,23.2782,19.167,42.149,42.8108,42.149h-.233Z"/></svg>