<?xml version="1.0" encoding="utf-8"?>
<!-- Generator: Adobe Illustrator 23.0.6, SVG Export Plug-In . SVG Version: 6.00 Build 0)  -->
<svg version="1.1" id="Layer_1" xmlns="http://www.w3.org/2000/svg" xmlns:xlink="http://www.w3.org/1999/xlink" x="0px" y="0px"
	 viewBox="0 0 927.7 927.7" style="enable-background:new 0 0 927.7 927.7;" xml:space="preserve">
<style type="text/css">
	.st0{display:none;fill:#9933FF;}
	.st1{fill:#9933FF;}
	.st2{display:none;fill:#F0F0F0;}
	.st3{fill:none;stroke:#FF9A00;stroke-width:3;stroke-miterlimit:10;}
</style>
<path class="st3" d="M463.8,0l0,430.3c0,9.2,12.2,12.4,16.7,4.5L695.7,62.1L480.6,434.8c-4.6,8,4.3,16.9,12.3,12.3l372.7-215.2
	L492.8,447.1c-8,4.6-4.7,16.7,4.5,16.7l430.3,0l-430.3,0c-9.2,0-12.4,12.2-4.5,16.7l372.7,215.2L492.8,480.6
	c-8-4.6-16.9,4.3-12.3,12.3l215.2,372.7L480.6,492.8c-4.6-8-16.7-4.7-16.7,4.5l0,430.3l0-430.3c0-9.2-12.2-12.4-16.7-4.5
	L231.9,865.5l215.2-372.7c4.6-8-4.3-16.9-12.3-12.3L62.1,695.7l372.7-215.2c8-4.6,4.7-16.7-4.5-16.7L0,463.8l430.3,0
	c9.2,0,12.4-12.2,4.5-16.7L62.1,231.9l372.7,215.2c8,4.6,16.9-4.3,12.3-12.3L231.9,62.1l215.2,372.7c4.6,8,16.7,4.7,16.7-4.5
	L463.8,0z"/>
</svg>
