<?xml version="1.0" encoding="utf-8"?>
<!-- Generator: Adobe Illustrator 23.0.6, SVG Export Plug-In . SVG Version: 6.00 Build 0)  -->
<svg version="1.1" id="Layer_1" xmlns="http://www.w3.org/2000/svg" xmlns:xlink="http://www.w3.org/1999/xlink" x="0px" y="0px"
	 viewBox="0 0 465 320.6" style="enable-background:new 0 0 465 320.6;" xml:space="preserve">
<style type="text/css">
	.st0{display:none;fill:#9933FF;}
	.st1{fill:#9933FF;}
	.st2{display:none;fill:#F0F0F0;}
	.st3{fill:none;stroke:#FF9A00;stroke-width:3;stroke-miterlimit:10;}
</style>
<g>
	<g>
		<polygon class="st1" points="61.4,236.3 67.8,175.9 81.1,236.3 130.1,236.3 117.2,118.6 87.9,142.5 108.1,113 75.6,109.5 
			109.9,102.2 98,55 120.9,99 158.5,77.9 134.6,107.2 176.8,129.2 223.5,145.7 207.5,102.2 240,139.7 256,98 253.2,151.6 
			309.6,139.3 294.9,110.4 317.4,136 321.5,98.5 326.5,137 352.6,145.8 327,145.8 335.1,170.8 320.1,148 302.2,173.6 311.9,145.8 
			254.2,170.4 277.5,195.1 237.2,173.1 234.9,220.8 223.9,165.8 176.3,138.8 128.7,117.3 157.5,246.4 92,256.5 129,300.4 
			78.3,266.1 67.8,320.6 61.4,270 5.9,291.8 50.1,254.8 0,219.8 		"/>
		<polygon class="st1" points="385.2,250.4 350.8,320.6 362.4,245.3 283.6,232.7 367.7,222.5 373.9,149.4 385.2,214.1 458.3,166.9 
			465,169.8 400.6,228.3 465,226.6 397.3,240.8 449.8,294.3 		"/>
		<polygon class="st1" points="260.6,34.9 240.4,60.4 268.6,37.7 283.4,62.7 275.1,34.4 302.2,44.4 280.5,27.4 299.3,0 271,23.4 
			247,0 266.7,29.2 232.5,14.2 		"/>
		<polygon class="st1" points="404.5,41.2 410.8,0 415.8,41.2 454.4,20.3 425.7,48.8 465,58.1 426.7,60.4 465,96.8 429.2,79.2 
			465,169.8 458.5,170.2 417.1,82.2 404.8,128.1 400.2,78.4 368.8,102.3 392.8,62 348.6,55.8 393.5,48.5 359.2,15.7 		"/>
		<polygon class="st1" points="44.3,31.7 69.9,13.8 50.1,37.8 75.7,47.1 48.8,47.6 66.8,76.8 40.8,51 29.3,79.8 30.2,50.1 0,57.2 
			28.3,41.9 6.1,27.4 28.2,35.7 21.3,9.9 36.4,32.8 48.6,0 		"/>
		<polygon class="st1" points="154.9,320.6 328.2,320.6 252.9,313.8 319.6,276.4 246.8,302.7 264.5,222.3 223.6,298.6 194.8,230.4 
			213,309.7 		"/>
		<polygon class="st1" points="88.4,0 181.6,0 143.7,7 167.6,34.4 137,9.7 136.9,58.9 127.9,10.1 97.5,44.5 121.3,7 		"/>
	</g>
</g>
</svg>
