<?xml version="1.0" encoding="utf-8"?>
<!-- Generator: Adobe Illustrator 23.0.6, SVG Export Plug-In . SVG Version: 6.00 Build 0)  -->
<svg version="1.1" id="Layer_1" xmlns="http://www.w3.org/2000/svg" xmlns:xlink="http://www.w3.org/1999/xlink" x="0px" y="0px"
	 viewBox="0 0 465 320.6" style="enable-background:new 0 0 465 320.6;" xml:space="preserve">
<style type="text/css">
	.st0{display:none;fill:#9933FF;}
	.st1{fill:#9933FF;}
	.st2{display:none;fill:#F0F0F0;}
	.st3{fill:none;stroke:#FF9A00;stroke-width:3;stroke-miterlimit:10;}
</style>
<path class="st1" d="M413.3,320.6h-44c-10.7,0-19.8-7.9-21.2-18.5l-11.7-87.3l0.8,84.3c0.1,11.9-9.5,21.6-21.4,21.6h-159
	c-11.3,0-21.1-8-23.2-19.2l-15.5-80.6l6,74.2c1.1,13.8-9.8,25.6-23.6,25.6H51.7C23.2,320.6,0,297.4,0,268.9v-78.8
	c0-11.8,9.5-21.3,21.3-21.4l136.1-0.5c11.4,0,20.8,8.9,21.4,20.2l4.5,84.9l8.2-86.1c1-10.9,10.2-19.3,21.2-19.3l57.5-0.2L20.6,159
	C9.1,158.6,0,149.2,0,137.7v0c0-10.8,8.1-19.9,18.8-21.2l113.4-13.2L21,101.7C9.3,101.5,0,92,0,80.4V51.7C0,23.2,23.2,0,51.7,0
	h163.5c11.7,0,21.2,9.4,21.4,21.1l0.7,55.7l14.7-60.5C254.4,6.7,263,0,272.8,0h140.4C441.8,0,465,23.2,465,51.7v83.8
	c0,11.5-9.1,20.9-20.6,21.4l-20.9,0.7c-10.8,0.4-20.3-7.4-21.9-18.1l-12.7-83.4l2.1,81.5c0.3,11.7-8.9,21.5-20.6,21.9l-66.9,2.4
	l141.2,7.3c11.4,0.6,20.3,10,20.3,21.3v78.3C465,297.4,441.8,320.6,413.3,320.6z"/>
</svg>
