<?xml version="1.0" encoding="utf-8"?>
<!-- Generator: Adobe Illustrator 23.0.6, SVG Export Plug-In . SVG Version: 6.00 Build 0)  -->
<svg version="1.1" id="Layer_1" xmlns="http://www.w3.org/2000/svg" xmlns:xlink="http://www.w3.org/1999/xlink" x="0px" y="0px"
	 viewBox="0 0 465 320.6" style="enable-background:new 0 0 465 320.6;" xml:space="preserve">
<style type="text/css">
	.st0{display:none;fill:#9933FF;}
	.st1{fill:#9933FF;}
	.st2{display:none;fill:#F0F0F0;}
	.st3{fill:none;stroke:#FF9A00;stroke-width:3;stroke-miterlimit:10;}
</style>
<image style="display:none;overflow:visible;" width="860" height="696" xlink:href="8585B596.jpg"  transform="matrix(1 0 0 1 87 310.9719)">
</image>
<path class="st1" d="M232.5,180.6l-2,93.9c-0.5,25.6-21.4,46-47,46h-1.1c-34.6,0-53.2-40.7-30.5-66.8l67.6-77.9L113.7,293.1
	c-15.7,17.5-38.2,27.5-61.7,27.5l-1.3,0C22.7,320.6,0,298,0,270l0-1.1c0-23.2,15-43.4,37-50c61-18.3,176-52.8,176-52.8L62.2,208.8
	C31,217.7,0,194.3,0,161.9v0c0-32,30.2-55.3,61.2-47.2l152,39.5L37.4,104.2C15.3,97.9,0,77.7,0,54.7l0-1.2C0,23.9,23.9,0,53.3,0
	c0,0,0,0,0,0c21.4,0,41.8,8.9,56.3,24.6l110.9,119.3L152.9,68c-23.5-26.3-4.7-68,30.5-68l0,0c25.6,0,46.5,20.5,47,46l2,93.9
	l0.7-91.9c0.2-26.6,21.8-48,48.4-48l1.1,0c34.6,0,53.2,40.7,30.5,66.8l-67.6,77.9L351.3,27.5C367.1,10,389.5,0,413.1,0l0,0
	C441.8,0,465,23.3,465,51.9v0c0,22.9-15,43.2-37,49.7c-61,18.3-176,52.8-176,52.8l150.9-42.7c31.2-8.9,62.2,14.5,62.2,46.9v0
	c0,32-30.2,55.3-61.2,47.2l-152-39.5l175.7,49.9c22.2,6.3,37.4,26.5,37.4,49.6v1.2c0,29.6-23.9,53.5-53.3,53.5c0,0,0,0,0,0
	c-21.4,0-41.8-8.9-56.3-24.6L244.5,176.7l67.5,75.9c23.5,26.3,4.7,68-30.5,68h0c-26.6,0-48.2-21.5-48.4-48L232.5,180.6z"/>
</svg>
