<?xml version="1.0" encoding="utf-8"?>
<!-- Generator: Adobe Illustrator 23.0.6, SVG Export Plug-In . SVG Version: 6.00 Build 0)  -->
<svg version="1.1" id="Layer_1" xmlns="http://www.w3.org/2000/svg" xmlns:xlink="http://www.w3.org/1999/xlink" x="0px" y="0px"
	 viewBox="0 0 735.8 196.2" style="enable-background:new 0 0 735.8 196.2;" xml:space="preserve">
<style type="text/css">
	.st0{fill:#9C9C9C;stroke:#000000;stroke-miterlimit:10;}
	.st1{fill:#48FFBB;}
	.st2{fill:#FFFFFF;}
	.st3{fill:#67FF51;}
	.st4{fill:#3F49FF;}
	.st5{fill:#3F0680;}
	.st6{fill:#8DBE38;}
	.st7{fill:#3BFF51;}
	.st8{fill:#FF0940;}
	.st9{fill:#6300CE;}
	.st10{fill:#F4DBD1;stroke:#000000;stroke-miterlimit:10;}
	.st11{fill:#FF2416;}
	.st12{fill:#C8E1FF;}
	.st13{fill:#9DB6E3;}
	.st14{fill:#476333;}
	.st15{fill:#FFFFFF;stroke:#000000;stroke-miterlimit:10;}
	.st16{fill:#1FB072;}
	.st17{fill:#D2D436;}
	.st18{fill:#5394FF;}
	.st19{fill:#D7895F;}
	.st20{fill:#A59EFF;}
	.st21{display:none;}
	.st22{display:inline;}
</style>
<g>
	<path d="M86.3,0.1c5.8,0,8.7,25.4,8.7,76.3c0,50.9-2.6,76.3-7.8,76.3c-5.2,0-8-0.8-8.3-2.4l-1.3-14.8v-11.3c0-2.3-0.3-2.7-0.9-1.2
		c-0.6,1.5-1.5,4.9-2.6,10.1l-17.4,21.8h-27l-19-14.4L0,114.7V82l10.9-25.9L31,41.5h39.9c2.3,11,4,16.2,5.1,15.4
		c1.1-0.8,1.6-7.4,1.6-19.7C77.6,12.4,80.5,0.1,86.3,0.1z M61.2,138.1l16.3-22.4V80.1L61.2,58.5H31.4L17.4,79.9v36.4l15,21.8H61.2z"
		/>
	<path d="M319.7,51.9c0,6.4-1.2,13.4-16.5,9.2c-7.9-2.2-10.1-2.6-10.2-1.7c-0.1,0.9,2.7,3.9,8.5,9.2V103l-12.2,21.1l-20.5,11.3
		c-8.1,0-16.6,0.2-25.3,0.7l-11.6,3.9v8.7l5,3.9h46.4l22.7,16.1v22.9c0,3.1-2.9,4.6-8.7,4.6c-5.8,0-8.7-0.8-8.7-2.4v-13.7l-12-10.7
		h-62.1v-28.6l15-8.7c7,0.1,6.2-1.4-2.2-4.6l-15.9-22.7V74.8l12.4-21.6l20.7-11.8h19.4c4.2,1.6,13.7,2.3,28.3,2
		c9.4,0,17.3-0.7,21.3,0.8C317.7,45.8,319.7,47.8,319.7,51.9z M267.9,119.1l16.1-16.3V75.1l-16.1-16.6h-22.7l-16.3,16.3v27.9
		l16.3,16.3H267.9z"/>
	<path d="M384.5,10.5c0,7.1-3.8,10.7-11.3,10.7c-7.6,0-11.3-3.6-11.3-10.7c0-7,3.8-10.5,11.3-10.5C380.7,0.1,384.5,3.6,384.5,10.5z"
		/>
	<path d="M513.5,0.1c5.8,0,8.7,25.4,8.7,76.3c0,50.9-2.6,76.3-7.8,76.3c-5.2,0-8-0.8-8.3-2.4l-1.3-14.8v-11.3c0-2.3-0.3-2.7-0.9-1.2
		c-0.6,1.5-1.5,4.9-2.6,10.1l-17.4,21.8h-27l-19-14.4l-10.7-25.7V82l10.9-25.9l20.1-14.6H498c2.3,11,4,16.2,5.1,15.4
		c1.1-0.8,1.6-7.4,1.6-19.7C504.8,12.4,507.7,0.1,513.5,0.1z M488.4,138.1l16.3-22.4V80.1l-16.3-21.6h-29.9l-13.9,21.4v36.4l15,21.8
		H488.4z"/>
	<path d="M367.4,157h-16.4l-5.1,0c0,0-12.2,0.2-11.7-7.1c0.5-6.5,10.2-8.5,15.6-9.1c1.3-0.2,5.8-0.5,7.1-0.5h6l8-18.3V82l-13.9-21.4
		h-23.6v-17h24l20.1,14.6l9.1,25.9v37.5l7.7,18.4l0,0h6c1.3,0,5.8,0.4,7.1,0.5c5.4,0.7,15.1,2.7,15.6,9.1c0.5,7.3-11.7,7.1-11.7,7.1
		l-5.1,0h-16.4L367.4,157z"/>
	<path d="M165.7,10.5c0,7.1-3.8,10.7-11.3,10.7c-7.6,0-11.3-3.6-11.3-10.7c0-7,3.8-10.5,11.3-10.5C161.9,0.1,165.7,3.6,165.7,10.5z"
		/>
	<path d="M148.5,157h-16.4l-5.1,0c0,0-12.2,0.2-11.7-7.1c0.5-6.5,10.2-8.5,15.6-9.1c1.3-0.2,5.8-0.5,7.1-0.5h6l8-18.3V82L138,60.7
		h-23.6v-17h24l20.1,14.6l9.1,25.9v37.5l7.7,18.4l0,0h6c1.3,0,5.8,0.4,7.1,0.5c5.4,0.7,15.1,2.7,15.6,9.1c0.5,7.3-11.7,7.1-11.7,7.1
		l-5.1,0h-16.4L148.5,157z"/>
	<path d="M622.7,117.6c5.5,0,7.3,5.5,5.4,16.6l-22.9,20.7H571l-23.8-14.4L534,114.7V82l12.9-25.9l23.3-14.6H609l23.8,31.6
		c-0.9,19.8-14.6,29.6-41.2,29.6c-26.7,0-39.6,5.3-38.6,15.9l18.7,19.4h36.4C612.2,124.4,617,117.6,622.7,117.6z M571.7,58.3
		l-15.9,15.3c-2.2,9,6.9,13.5,27.2,13.5c20.3,0,30.2-4.6,29.6-13.9l-15-14.8H571.7z"/>
	<path d="M708.6,41.5l16.1,7.2l11.1,17.4v50.3c0,24.1-2.9,36.2-8.7,36.2c-5.8,0-8.7-11.3-8.7-34V58.9h-39l-15.5,18.7
		c-2,7.8-3.1,22.2-3.1,43.2c0,21.2-2.9,31.8-8.7,31.8c-5.8,0-8.7-18.2-8.7-54.5c0-36.3,2.9-54.5,8.7-54.5c5.8,0,8.7,5.4,8.7,16.1
		c0,10.9,1.3,12.1,3.9,3.7l19.6-22H708.6z"/>
</g>
</svg>
