<svg id="Default" xmlns="http://www.w3.org/2000/svg" width="1763.895" height="685.1368" viewBox="0 0 1763.895 685.1368"><defs><style>.cls-1{fill:#c5c5c5;}</style></defs><title>ig-gray</title><path class="cls-1" d="M1582.5164,493.2981V473.21l-67.8521-16.252c-36.19-8.6712-72.4014-17.2508-108.559-26.0535-20.91-5.0908-31.1661-21.3541-26.4248-42.2394q12.2852-54.1135,25.174-108.0893c4.4888-18.8357,22.2012-29.05,41.8719-24.4683,34.5291,8.0427,69.0215,16.2429,103.543,24.3184q38.7975,9.0758,77.58,18.2162,32.4072,7.6014,64.8415,15.0835,20.4805,4.7087,40.9833,9.319c17.6178,3.9563,30.45,16.8883,30.2174,37.9524-.7047,63.7445-.2488,127.5017-.2563,191.254-.0077,66.1606-51.7547,122.4984-117.5494,128.7484-20.1278,1.9119-39.5351-1.9962-59.0975-4.8432q-43.4813-6.3279-86.9319-12.8675-43.813-6.56-87.6244-13.1328-18.4762-2.7573-36.9443-5.5844c-27.3329-4.1495-54.6707-8.263-82.0784-11.839-10.4361-1.3615-21.8463-1.0568-31.935,1.6915q-16.3886,4.4645-32.7287,9.1065c-21.6361,6.1265-43.2286,12.4129-64.8376,18.6394-18.9173,5.4509-37.8471,10.8559-56.83,16.0678-111.322,30.5648-223.1654-43.69-238.7618-158.1385A167.708,167.708,0,0,1,866.65,497.71c-.1071-102.7973-.3235-205.5956.0339-308.3918.1782-51.275,18.0939-96.1988,54.6556-132.0866C975.6452,3.9256,1040.4673-11.88,1113.759,8.7136q37.1777,10.446,74.2751,21.1848,34.9111,10.1262,69.7142,20.613c19.0913,5.7625,37.5113,2.2591,56.21-.5256q46.9941-6.9984,93.9863-14.0094,44.2062-6.5923,88.4133-13.18,32.801-4.8861,65.611-9.7161,36.1785-5.3586,72.3338-10.8676c22.78-3.4959,38.4886,7.1086,42.1934,29.9421q8.7852,54.1478,16.8475,108.4113c2.9784,20.3073-8.2995,35.5851-28.6844,38.759q-34.1031,5.31-68.2465,10.3586-35.163,5.2385-70.3323,10.4372-35.8184,5.3367-71.6326,10.7017-50.8006,7.5849-101.6274,14.9894c-23.533,3.4051-47.1143,6.9273-70.8006,8.7078-29.7455,2.236-57.964-6.5784-86.1369-14.8492q-24.9876-7.3357-50.0257-14.5007-25.7589-7.3926-51.5346-14.7268c-26.078-7.4431-47.6849,8.9032-47.6927,36.0358q-.0339,116.1435.0019,232.2869c.01,27.0555,21.8235,43.4733,47.8228,36.0088q33.1089-9.5058,66.2263-18.9836,27.5158-7.9155,54.9852-15.988c33.2356-9.801,66.7066-10.4718,100.7585-5.1639,23.1125,3.6027,46.2551,7.0136,69.4065,10.3672,24.1656,3.5,48.3409,6.9386,72.5022,10.4671q32.6269,4.7649,65.2536,9.5338,24.6041,3.5937,49.2094,7.1789C1575.6169,492.597,1578.4624,492.8394,1582.5164,493.2981Z"/><path class="cls-1" d="M.002,510.291c-.1812-19.9067,12.0525-33.6748,29.6684-36.122q56.5325-7.8537,113.048-15.8276,36.4423-5.1222,72.887-10.2277,33.9468-4.748,67.8978-9.4663,29.8926-4.1485,59.7923-8.2451c12.1616-1.6644,14.5291-4.1271,14.53-16.4983q.0042-73.466-.0015-146.9319c-.0015-11.7148-1.7526-13.9978-13.0758-15.5877q-28.97-4.068-57.9442-8.1116-60.0744-8.3872-120.1555-16.7279-30.5532-4.2491-61.114-8.4449Q68.31,212.9615,31.1054,207.6878C8.9979,204.53-2.303,188.2064.9242,166.1527c5.2005-35.5379,9.8187-71.1606,14.9027-106.7161C18.8106,38.57,34.2047,26.8829,55.0915,29.5617,75.4212,32.169,95.7,35.1732,116.0054,37.97q17.5934,2.4231,35.1874,4.8421,61.9785,8.5228,123.9563,17.0517,21.7971,3.0063,43.6081,5.9225c35.2618,4.7565,70.52,9.5347,105.6622,15.0549,17.185,2.7,33.0074.1667,49.3166-3.9729q36.2715-9.2064,72.5565-18.3592,27.711-6.9931,55.4267-13.9669,35.6567-8.974,71.3168-17.9341,38.412-9.6554,76.8216-19.3194c22.6576-5.7035,39.1063,4.13,44.79,26.79q12.9391,51.5886,25.9086,103.17c5.431,21.6834-4.5486,38.5837-26.3041,44.11Q768.0991,188,741.9436,194.6319q-45.43,11.5194-90.8672,23.0141-49.137,12.4332-98.2774,24.8523c-13.2174,3.3411-14.0262,4.2854-14.06,17.8907q-.2,80.4-.4247,160.8007c-.0291,11.9361,1.081,13.4337,12.7049,16.2666q41.3666,10.0814,82.7376,20.1426,43.5717,10.6006,87.142,21.2052,36.3912,8.8612,72.7774,17.7428c19.4758,4.7554,30.0252,21.78,25.4284,41.1967q-12.8619,54.3294-26.17,108.5526c-4.6463,18.9259-22.3037,29.1578-41.8967,24.4935q-39.1764-9.3265-78.344-18.6885-52.0822-12.4435-104.16-24.9053c-14.1541-3.3844-28.2887-6.8623-42.429-10.312-25.02-6.1044-50.0592-12.1207-75.2569-17.3755-10.4976-2.1892-22.2524.7887-33.3093,2.2855q-25.6483,3.4719-51.29,6.9925-68.999,9.4655-137.9762,19.0906-33.6287,4.6652-67.2524,9.3662-49.86,6.9531-99.7351,13.8043c-6.2528.8542-12.8032,1.42-18.9842.5226a30.8019,30.8019,0,0,1-26.2493-26.1843c-5.1128-34.4434-9.7311-68.96-14.5338-103.45C.88,517.3572.3229,512.7668.002,510.291Z"/></svg>