<?xml version="1.0" encoding="utf-8"?>
<!-- Generator: Adobe Illustrator 23.0.6, SVG Export Plug-In . SVG Version: 6.00 Build 0)  -->
<svg version="1.1" id="Layer_1" xmlns="http://www.w3.org/2000/svg" xmlns:xlink="http://www.w3.org/1999/xlink" x="0px" y="0px"
	 viewBox="0 0 477.3 235.5" style="enable-background:new 0 0 477.3 235.5;" xml:space="preserve">
<style type="text/css">
	.st0{fill:#D2D2D2;}
</style>
<path class="st0" d="M441.7,235.5H35.6C15.9,235.5,0,219.5,0,199.9V35.6C0,15.9,15.9,0,35.6,0h406.1c19.7,0,35.6,15.9,35.6,35.6
	v164.2C477.3,219.5,461.4,235.5,441.7,235.5z"/>
<path d="M235.1,117.7c0-10.1,0-20.2,0-30.2c0-4.2,0.4-8.3,1.6-12.3c4.3-15,16.9-26.2,32.3-28.8c5.7-0.9,11.3-0.7,16.8,0.8
	c6.5,1.8,12.9,3.7,19.4,5.5c3.9,1.1,7.8,2.2,11.7,3.4c3.2,1,6.5,1.1,9.8,0.6c9-1.3,17.9-2.7,26.9-4c8.1-1.2,16.3-2.4,24.4-3.6
	c6.2-0.9,12.4-1.9,18.7-2.8c1.1-0.2,2.3-0.4,3.4-0.5c0.8-0.1,1.7,0,2.6,0.1c1.5,0.2,2.6,1.1,3.2,2.6c0.4,1.1,0.7,2.2,0.9,3.3
	c1.2,7.6,2.3,15.3,3.4,22.9c0.1,0.8,0.2,1.7,0.1,2.6c-0.1,2-1.1,3.4-3,4.1c-1.1,0.4-2.2,0.6-3.3,0.8c-10.8,1.6-21.6,3.2-32.4,4.8
	c-9.1,1.4-18.2,2.8-27.3,4.1c-5.6,0.8-11.2,1.6-16.8,2.4c-6.2,0.8-12.3,0.1-18.2-1.6c-9-2.5-18-5.2-27-7.7c-1.4-0.4-2.9-0.8-4.4-1.1
	c-0.6-0.1-1.1-0.2-1.7-0.2c-2,0.1-3.4,1.1-4,3c-0.2,0.7-0.3,1.5-0.4,2.3c-0.1,0.9,0,1.7,0,2.6c0,18.1,0,36.2,0,54.2
	c0,0.7,0,1.4,0,2.1c0,0.6,0,1.1,0.1,1.7c0.5,3.1,2.3,4.5,5.4,4c1.1-0.1,2.1-0.4,3.1-0.7c9.3-2.7,18.5-5.3,27.8-8
	c6-1.7,12-2.4,18.2-1.9c2.6,0.2,5.3,0.6,7.9,1c8.3,1.2,16.7,2.5,25,3.7c8.1,1.2,16.1,2.4,24.2,3.6c0.8,0.1,1.6,0.2,2.3,0.2
	c1.6,0,2.5-0.9,2.5-2.6c0.1-1.7-0.6-2.9-2.2-3.6c-1-0.4-2-0.7-3.1-0.9c-9.4-2.2-18.8-4.4-28.2-6.6c-1.9-0.4-3.8-0.9-5.6-1.3
	c-0.9-0.2-1.8-0.6-2.6-1c-1.4-0.8-2.2-2-2.2-3.7c0-0.9,0.1-1.9,0.3-2.8c1.8-7.7,3.6-15.5,5.4-23.2c0.2-0.7,0.4-1.4,0.7-2
	c0.9-2.3,2.4-3.2,4.8-3.1c0.9,0,1.8,0.2,2.7,0.4c8.4,1.9,16.7,3.9,25.1,5.8c11.5,2.7,23,5.4,34.4,8c1.2,0.3,2.4,0.6,3.5,1
	c2.1,0.8,3.3,2.2,3.5,4.4c0.1,1,0.2,2,0.2,3c0,12.8,0,25.6,0,38.4c0,3.1-0.3,6.1-1.1,9.1c-2.9,10.1-11.5,17.5-22,18.9
	c-3,0.4-6,0.2-9-0.2c-9-1.3-17.9-2.7-26.9-4c-8.1-1.2-16.3-2.4-24.4-3.6c-5.2-0.8-10.3-1.5-15.5-2.3c-2.9-0.5-5.8-0.3-8.7,0.5
	c-6.8,2-13.6,3.9-20.4,5.8c-3.6,1-7.1,2.1-10.7,3c-12.1,3.2-23.5,1.4-33.7-5.7c-11-7.6-16.7-18.3-17.5-31.6
	c-0.1-1.6-0.1-3.3-0.1-4.9C235,136.5,235,127.1,235.1,117.7C235.1,117.7,235.1,117.7,235.1,117.7z"/>
<path d="M127,118.1c0-4.6,0-9.1,0-13.7c0-0.7,0-1.4,0-2.1c-0.2-2.7-1-3.6-3.7-4.1c-1.1-0.2-2.1-0.3-3.2-0.5
	c-11.3-1.6-22.5-3.1-33.8-4.7c-8.8-1.2-17.6-2.4-26.3-3.6c-1.6-0.2-3.1-0.5-4.7-0.7c-0.5-0.1-1-0.2-1.5-0.3
	c-2.4-0.8-3.6-2.2-3.5-4.7c0.1-2.1,0.4-4.1,0.6-6.2c0.8-5.9,1.6-11.8,2.4-17.6c0.2-1.2,0.3-2.4,0.7-3.6c0.7-2.5,2.2-3.7,4.8-3.7
	c0.8,0,1.6,0.1,2.3,0.2c13.2,1.8,26.5,3.6,39.7,5.5c12.9,1.8,25.8,3.6,38.6,5.4c3.5,0.5,6.9,0.3,10.4-0.6c19.8-5,39.6-10,59.4-14.9
	c1-0.2,1.9-0.5,2.9-0.6c2.7-0.3,4.4,0.7,5.4,3.2c0.3,0.8,0.6,1.6,0.8,2.4c1.8,7.3,3.7,14.5,5.5,21.8c0.3,1,0.4,2.1,0.5,3.2
	c0.1,1.9-0.8,3.4-2.5,4.1c-1.2,0.5-2.4,0.9-3.6,1.2c-5.1,1.3-10.2,2.6-15.4,3.9c-11.4,2.9-22.9,5.7-34.3,8.6c-1,0.2-1.9,0.5-2.9,0.9
	c-1.3,0.5-2,1.5-2.2,2.9c-0.1,0.8-0.1,1.6-0.1,2.4c0,10.7,0,21.4,0,32.2c0,0.6,0,1.3,0.1,1.9c0.1,1.9,1.1,3.1,2.8,3.6
	c0.7,0.2,1.5,0.4,2.3,0.6c14.9,3.6,29.9,7.1,44.8,10.7c1.7,0.4,3.5,0.8,5.2,1.3c0.8,0.2,1.6,0.5,2.4,0.8c2,0.9,2.9,2.5,2.8,4.6
	c0,0.9-0.2,1.7-0.4,2.5c-1.8,7.4-3.6,14.9-5.3,22.3c-0.2,0.8-0.4,1.5-0.7,2.3c-1,2.5-2.5,3.5-5.1,3.3c-0.9-0.1-1.8-0.3-2.7-0.5
	c-11.8-2.8-23.6-5.6-35.4-8.5c-8.3-2-16.5-3.9-24.8-5.9c-3.1-0.8-6.2-0.9-9.3-0.4c-13.6,1.9-27.2,3.8-40.8,5.6
	c-12.4,1.7-24.8,3.4-37.2,5.1c-1.2,0.2-2.4,0.2-3.6,0.2c-2.2,0-3.7-1.2-4.3-3.2c-0.4-1.2-0.6-2.4-0.8-3.6c-1-7.1-2-14.2-2.9-21.2
	c-0.1-0.7-0.2-1.4-0.2-2.1c-0.2-3.5,1.1-5.1,4.6-5.9c1-0.2,2.1-0.4,3.2-0.5c13.4-1.9,26.7-3.7,40.1-5.5c7.7-1.1,15.4-2.1,23.1-3.2
	c0.9-0.1,1.8-0.3,2.7-0.5c1.6-0.4,2.6-1.4,2.8-3.1c0.1-0.9,0.1-1.7,0.1-2.6C127,127.6,127,122.9,127,118.1z"/>
</svg>
