<?xml version="1.0" encoding="utf-8"?>
<!-- Generator: Adobe Illustrator 23.0.6, SVG Export Plug-In . SVG Version: 6.00 Build 0)  -->
<svg version="1.1" id="Layer_1" xmlns="http://www.w3.org/2000/svg" xmlns:xlink="http://www.w3.org/1999/xlink" x="0px" y="0px"
	 viewBox="0 0 455.6 386.7" style="enable-background:new 0 0 455.6 386.7;" xml:space="preserve">
<style type="text/css">
	.st0{fill:#7BFF6D;}
	.st1{fill:#D8D8D8;}
	.st2{fill:#2B4800;}
	.st3{fill:#BF8F00;}
	.st4{fill:#4000AD;}
	.st5{fill:#39003F;}
	.st6{fill:#888824;}
	.st7{fill:#0000FF;}
	.st8{fill:#FF6336;}
</style>
<g>
	<path class="st1" d="M213.7,245.1c0-0.4,0-0.7,0-1c0-28.5,0-57.1,0-85.6c0-5.4-0.1-10.8-0.1-16.3c0-1.4,0.3-2.8,1.1-4
		c1.5-2.4,5-3.2,7.5-1.8c0.7,0.4,1.4,1,2.1,1.6c2.2,2.2,4.4,4.4,6.6,6.6c3.1,3.1,6.3,6.2,9.4,9.4c1.5,1.5,3,2.9,4.5,4.4
		c1.4,1.3,2.7,2.7,4.1,4c2.7,2.7,5.4,5.3,8.1,8c0.1,0.1,0.2,0.2,0.3,0.3c0.4-0.4,0.8-0.7,1.2-1.1c2.2-2.1,4.5-4.2,6.7-6.3
		c2.8-2.8,5.6-5.7,8.4-8.5c1.9-1.9,3.8-3.8,5.7-5.7c1.7-1.7,3.4-3.5,5.2-5.2c1.7-1.7,3.3-3.4,5-5.1c0.8-0.8,1.5-1.5,2.5-2.1
		c2.3-1.3,4.9-0.9,6.8,0.9c1.2,1.1,1.8,2.4,1.9,4.1c0,1.4,0.1,2.7,0.1,4.1c0,2.5-0.1,5.1-0.1,7.6c0,12.7,0,25.4,0,38
		c0,0.3,0,0.5,0,0.9c0.3-0.1,0.6-0.1,0.8-0.2c2.2-0.6,4.3-1.3,6.5-1.9c2.8-0.7,5.6-0.9,8.5-0.8c4.3,0.3,8.4,1.4,12.4,3.2
		c2.9,1.3,5.5,3.1,7.9,5.2c4.2,3.7,7.1,8.3,9.1,13.6c2.8,7.4,5.5,14.7,8.3,22.1c1.3,3.3,2.5,6.7,3.8,10c0.1,0.1,0.1,0.3,0.2,0.5
		c-2.4,1-4.9,1.8-7.4,2.8c-0.1-0.3-0.2-0.5-0.3-0.7c-2-5.3-4-10.6-5.9-15.9c-2.3-6.1-4.5-12.2-7-18.2c-1.1-2.6-2.6-5-4.6-7.1
		c-3.2-3.4-7.1-5.5-11.6-6.7c-2.8-0.8-5.7-1.1-8.6-0.8c-2.9,0.2-5.6,1-8.2,2.2c-0.8,0.4-1.6,0.8-2.4,1.2c-1,0.5-1.4,1.3-1.4,2.4
		c0,13.7,0,27.4,0,41.1c0,0.3,0,0.6,0,0.9c-2.6,0-5.2,0-7.9,0c0-11.4,0-22.8,0-34.2c-0.4-0.2-0.5,0.1-0.6,0.3
		c-0.3,0.9-0.7,1.8-1,2.7c-2.8,7.6-5.7,15.1-8.5,22.7c-1.2,3.2-2.4,6.3-3.6,9.5c-0.1,0.2-0.2,0.4-0.3,0.6c-0.7-0.3-1.4-0.5-2.1-0.8
		c-1.4-0.5-2.9-1.1-4.3-1.6c-0.9-0.3-1-0.6-0.6-1.4c1.8-4.7,3.5-9.5,5.3-14.2c2.5-6.7,5.1-13.3,7.6-20c1.2-3.1,3-5.9,5.3-8.3
		c0.6-0.7,1.3-1.4,2-2.1c0.5-0.5,0.7-1.1,0.7-1.9c0-4.6,0-9.1,0-13.7c0-11.7,0-23.4,0-35.1c0-0.3,0-0.5,0-0.8c0,0-0.1,0-0.1-0.1
		c-0.4,0.4-0.8,0.8-1.2,1.2c-0.8,0.9-1.7,1.8-2.5,2.6c-4.4,4.4-8.7,8.7-13.1,13.1c-1.6,1.6-3.2,3.2-4.8,4.9
		c-1.2,1.2-2.4,2.4-3.6,3.6c-1.7,1.8-3.5,3.6-5.2,5.3c-0.6,0.6-1.3,1.2-2.1,1.6c-2.2,1-4.2,0.7-6.1-0.8c-0.9-0.7-1.7-1.5-2.5-2.3
		c-1.1-1.1-2.2-2.2-3.4-3.4c-4.2-4.2-8.5-8.4-12.7-12.6c-2-2-4-4-6-6c-2.2-2.2-4.4-4.4-6.6-6.5c-0.3-0.3-0.6-0.7-1-1
		c-0.1,0.2-0.2,0.3-0.2,0.4c0,0.3,0,0.5,0,0.8c0,32.1,0,64.3,0,96.4c0,0.3,0,0.6,0,1C219,245.1,216.4,245.1,213.7,245.1z"/>
	<path class="st1" d="M181.8,248.9c-1.1-0.2-2.1-0.4-3.1-0.7c-1.4-0.4-2.8-0.3-4.1-0.2c-2.4,0.3-4.8,0.7-7.2,0.9
		c-1.8,0.2-3.5,0.1-5.3-0.1c-2.2-0.2-4.4-0.5-6.6-1c-2.9-0.7-5.7-1.7-8.4-3c-2.4-1.2-4.7-2.6-6.7-4.3c-2.3-2-5-3.2-7.9-4
		c-2.7-0.7-5.5-1.4-8.2-2.2c-2.9-0.8-5.8-1.9-8.4-3.5c-5.5-3.3-9.7-7.8-12.6-13.5c-1.3-2.6-2.3-5.3-2.9-8.2
		c-0.4-2.1-0.6-4.1-0.6-6.2c0-6.7-0.1-13.4-0.1-20c0-14.1,0-28.3,0-42.4c0-0.2,0-0.5,0-0.8c2.7,0,5.3,0,8,0c0,0.1,0.1,0.3,0.1,0.4
		c0,0.2,0,0.5,0,0.7c0,20.7,0,41.4,0,62.2c0,5.2,1.6,9.9,4.6,14.1c2.4,3.4,5.5,6,9.2,7.8c1.8,0.9,3.7,1.5,5.6,2
		c0.2,0,0.3,0.1,0.5,0.1c0.1,0,0.3,0,0.5-0.1c-0.1-0.2-0.2-0.4-0.2-0.6c-1.8-3.3-3.2-6.8-4.1-10.6c-0.5-2.2-0.9-4.4-1.1-6.7
		c-0.1-1-0.1-2.1-0.1-3.1c0-3.4,0-6.8,0-10.1c0-1.6-0.1-3.1-0.1-4.7c0-4.5,0-9.1,0.1-13.6c0.1-4.5,1-8.8,2.5-13
		c1.2-3.3,2.7-6.4,4.6-9.4c1.2-1.9,2.5-3.6,4-5.2c2.5-2.8,5.3-5.2,8.4-7.2c4.9-3.2,10.3-5.4,16.1-6.4c2.1-0.4,4.2-0.7,6.3-0.7
		c0.8,0,1.6-0.1,2.5-0.1c3.9,0.1,7.8,0.7,11.6,1.9c3.9,1.2,7.6,2.8,11,5.1c2.2,1.5,4.3,3.1,6.3,4.9c2.5,2.3,4.7,4.9,6.5,7.7
		c3.4,5.3,5.7,11,6.7,17.2c0.3,1.7,0.4,3.4,0.4,5.1c0,4,0.1,8.1,0.1,12.1c0,2.2,0,4.5,0,6.7c0,2.6,0,5.3,0,7.9c0,1.6,0,3.1-0.1,4.7
		c-0.4,5.3-1.7,10.4-4,15.2c-1.9,3.9-4.3,7.4-7.1,10.7c-2.8,3.2-6,5.8-9.7,8c-1.4,0.8-2.9,1.6-4.3,2.3c-0.8,0.4-1.4,1-1.7,1.8
		C182.3,247.6,182.1,248.2,181.8,248.9z M201.6,193c0-2.3,0-4.6,0-7c0-1.8,0-3.6,0-5.4c0-2-0.1-4-0.4-6c-0.5-4.3-1.7-8.5-3.8-12.3
		c-1.9-3.5-4.3-6.6-7.3-9.3c-2.9-2.6-6.1-4.8-9.7-6.4c-3.6-1.6-7.4-2.6-11.3-2.9c-3.4-0.2-6.8,0-10.1,0.7c-6.5,1.3-12.2,4.3-17,8.8
		c-2.3,2.2-4.4,4.6-6.1,7.4c-1.5,2.4-2.7,5-3.6,7.8c-1.2,3.6-1.6,7.3-1.7,11c-0.1,3,0,6-0.1,9c0,2,0,4.1,0,6.1
		c0,4.3,0.1,8.6,0.1,12.9c0,1.5,0.2,2.9,0.4,4.4c1.2,6.4,3.9,12.1,8.1,17.1c0.8,0.9,1.7,1.6,2.9,1.9c6.8,1.7,13.5,3.4,20.3,5.1
		c4.2,1.1,8.4,2.1,12.7,3.2c1.2,0.3,2.3,0.3,3.5-0.1c1.8-0.6,3.5-1.5,5.2-2.5c3.5-2,6.6-4.5,9.2-7.5c2.2-2.6,4.1-5.4,5.5-8.4
		c1.7-3.6,2.7-7.4,3.1-11.4c0.2-1.8,0.2-3.5,0.2-5.3C201.6,200.3,201.6,196.6,201.6,193z"/>
</g>
</svg>
