<?xml version="1.0" encoding="utf-8"?>
<!-- Generator: Adobe Illustrator 23.0.6, SVG Export Plug-In . SVG Version: 6.00 Build 0)  -->
<svg version="1.1" id="Layer_1" xmlns="http://www.w3.org/2000/svg" xmlns:xlink="http://www.w3.org/1999/xlink" x="0px" y="0px"
	 viewBox="0 0 455.6 386.7" style="enable-background:new 0 0 455.6 386.7;" xml:space="preserve">
<style type="text/css">
	.st0{fill:#7BFF6D;}
	.st1{fill:#D8D8D8;}
	.st2{fill:#2B4800;}
	.st3{fill:#BF8F00;}
	.st4{fill:#4000AD;}
	.st5{fill:#39003F;}
	.st6{fill:#888824;}
	.st7{fill:#0000FF;}
	.st8{fill:#FF6336;}
</style>
<g>
	<path class="st1" d="M194.7,183.4c0,5.8-0.1,11.3,0,16.9c0,2.3,0.3,4.5,0.8,6.8c1.1,5.2,4.5,7.8,9.5,8.7c1.9,0.3,3.8,0.6,5.7,0.5
		c3.8-0.1,7.5-0.5,10.7-2.8c1.3-1,2.4-2.2,3.7-3.3c0.4-0.4,1.1-0.6,1.7-0.7c1.1-0.1,2.3,0,3.5,0c-1.4,6.1-4.5,10.6-10.4,12.9
		c-2.3,0.9-4.7,1.5-7.2,1.7c-5.5,0.5-10.6-0.6-15.2-3.7c-3.1-2.1-5.1-4.9-6-8.5c-0.7-2.7-0.9-5.3-0.9-8.1c0-6.4,0-12.8,0-19.2
		c0-0.3,0-0.7,0-1.2c-3.7,0-7.3,0-10.9,0c0-2.8,0-5.5,0-8.3c3.6,0,7.2,0,10.9,0c0-4.3,0-8.5,0-12.7c1.4,0,2.8,0,4.2,0
		c0,4.2,0,8.4,0,12.6c9.7,0,19.2,0,28.9,0c0,2.8,0,5.5,0,8.3C213.9,183.4,204.4,183.4,194.7,183.4z"/>
	<path class="st1" d="M297.2,223.1c-1.5,0-2.8,0-4.2,0c0-0.4,0-0.7,0-1.1c0-7.7,0-15.3,0-23c0-2.9-0.8-5.7-2.5-8.2
		c-1.9-2.8-4.5-4.5-7.5-5.8c-3.1-1.3-6.4-1.9-9.7-2.1c-1.5-0.1-3-0.4-4.4-0.3c-2.6,0.1-5.2,0.4-7.8,0.7c-2.7,0.3-5.3,1-7.8,2
		c-3.9,1.5-7.2,3.9-9.2,7.7c-0.9,1.8-1.5,3.7-1.6,5.8c-0.1,7.8-0.1,15.6-0.2,23.3c0,0.3,0,0.6,0,1c-1.4,0-2.7,0-4.2,0
		c0-20.1,0-40.2,0-60.3c1.4,0,2.7,0,4.1,0c0,8.5,0,17.1,0,25.6c0.1,0,0.1,0,0.2,0c0.5-0.8,1-1.7,1.6-2.5c2.8-4.5,6.9-7.3,11.7-9.1
		c3.5-1.3,7.2-2.1,11-2.1c2.3,0,4.7-0.2,7,0c5.4,0.4,10.5,1.7,15,4.7c4.2,2.8,6.8,6.8,7.9,11.8c0.5,2.4,0.7,4.8,0.7,7.3
		c0,7.9,0,15.7,0,23.6C297.2,222.3,297.2,222.7,297.2,223.1z"/>
	<path class="st1" d="M165.5,182.3c2-0.1,4,0.3,5.7,1.5c1.9,1.4,1.8,3.7-0.2,4.7c-3.4,1.7-6.8,1.9-10.3,0.4c-0.4-0.2-0.7-0.4-1-0.6
		c-2.1-1.7-1.6-3.4,0.7-4.9C161.9,182.5,163.7,182.2,165.5,182.3z"/>
	<path class="st1" d="M165.4,216.3c2,0.1,3.9,0.3,5.5,1.4c2.2,1.5,2.2,3.8-0.2,4.9c-3.7,1.7-7.5,2.1-11.2-0.4c-1.5-1-1.7-3-0.1-4.2
		C161.3,216.7,163.3,216.5,165.4,216.3z"/>
</g>
</svg>
