<?xml version="1.0" encoding="utf-8"?>
<!-- Generator: Adobe Illustrator 23.0.6, SVG Export Plug-In . SVG Version: 6.00 Build 0)  -->
<svg version="1.1" id="Layer_1" xmlns="http://www.w3.org/2000/svg" xmlns:xlink="http://www.w3.org/1999/xlink" x="0px" y="0px"
	 viewBox="0 0 455.6 386.7" style="enable-background:new 0 0 455.6 386.7;" xml:space="preserve">
<style type="text/css">
	.st0{fill:#7BFF6D;}
	.st1{fill:#D8D8D8;}
	.st2{fill:#2B4800;}
	.st3{fill:#BF8F00;}
	.st4{fill:#4000AD;}
	.st5{fill:#39003F;}
	.st6{fill:#888824;}
	.st7{fill:#0000FF;}
	.st8{fill:#FF6336;}
</style>
<g>
	<path class="st1" d="M280.1,144.1c34.5,23.2,38.5,71.3,0.3,98.5c-14.8-10.7-24.8-24.5-26.8-43.2
		C251.1,175.5,261.7,157.9,280.1,144.1z M280.5,238.8c0.4-0.4,0.7-0.6,0.9-0.8c4.8-4.7,8.2-10.3,10.6-16.5
		c4.6-11.5,5.9-23.5,4.9-35.7c-0.7-8-2.5-15.7-5.8-23.1c-2.6-5.7-6-10.8-10.6-15.1c-0.2,0.1-0.3,0.1-0.3,0.1
		c-0.3,0.3-0.6,0.5-0.9,0.8c-5.6,5.8-9.4,12.7-11.9,20.3c-3.8,11.5-4.7,23.2-3.1,35.2c1.2,8.8,3.7,17.2,8.2,25
		C274.6,232.7,277.2,236,280.5,238.8z"/>
	<path class="st1" d="M179,141.1c10-13.1,21.8-23.1,38.2-26.2c19.8-3.7,37,1.5,51.5,15.6c2.7,2.6,5.1,5.6,7.6,8.5
		c1.2,1.4,1.1,2.2,0,3.6c-7.4,9.6-16.2,17.5-27.8,21.7c-22.1,7.9-41.9,3.5-59.3-12C185.6,148.9,182.5,144.9,179,141.1z M182.3,141
		c0.8,0.6,1.4,1,1.9,1.5c5.5,5.2,12,8.8,19.1,11.2c12.1,4.1,24.4,5,37,3.2c9.1-1.3,17.8-4,25.6-9.1c3-2,5.8-4.2,8.2-7
		c-0.2-0.3-0.3-0.5-0.5-0.6c-5.1-5.5-11.5-9.1-18.5-11.6c-12.9-4.6-26.1-5.6-39.6-3.5c-9.8,1.5-19,4.7-27,10.7
		C186.4,137.3,184.5,139,182.3,141z"/>
	<path class="st1" d="M178.5,246c3.7-5.4,8-10.2,13.1-14.2c10.5-8.4,22.5-13,35.9-13c15.8-0.1,29.2,5.9,40.5,16.8
		c2.9,2.8,5.3,6.1,8,9.1c0.6,0.6,0.5,1.1,0.1,1.8c-9.9,14.2-23.1,23.2-40.3,25.8c-18.9,2.9-35-3.3-48.6-16.3
		c-2.4-2.3-4.5-4.8-6.7-7.3C179.8,247.8,179.2,246.9,178.5,246z M273.5,245.9c-0.3-0.3-0.6-0.7-0.8-0.9c-5.3-5.2-11.6-8.8-18.5-11.4
		c-12.2-4.5-24.8-5.5-37.7-3.8c-9.5,1.3-18.6,4.1-26.6,9.5c-2.9,1.9-5.5,4.3-8.2,6.3c0.2,0.5,0.2,0.6,0.3,0.7
		c0.2,0.3,0.5,0.5,0.7,0.8c5.7,5.7,12.6,9.2,20.1,11.8c11.7,4.1,23.8,4.8,36,3.2c9-1.2,17.6-3.8,25.4-8.6
		C267.6,251.3,270.8,248.9,273.5,245.9z"/>
	<path class="st1" d="M202.2,193.3c-0.3,17.2-7.1,31.3-19.7,42.8c-1.8,1.6-3.7,3.3-5.5,4.9c-1,0.9-2.1,1.1-3.1,0.3
		c-13.1-9.8-22.4-22.1-25-38.6c-2.9-18.4,1.8-34.7,14.7-48.4c3.2-3.4,7-6.4,10.5-9.6c0.6-0.5,1-0.6,1.7-0.1
		c15.3,11.2,24.7,25.9,26.4,45.1C202.3,190.8,202.2,192.1,202.2,193.3z M175.2,238.8c0.2-0.2,0.4-0.3,0.6-0.5
		c4.6-4.4,7.9-9.6,10.4-15.4c4.6-10.8,6.2-22.1,5.7-33.7c-0.4-9.6-2.4-18.8-6.5-27.5c-2.6-5.4-5.8-10.2-10.3-14.2
		c-0.3,0.2-0.5,0.4-0.7,0.6c-0.4,0.4-0.9,0.8-1.3,1.3c-4.6,4.9-7.9,10.7-10.2,17c-4.3,11.7-5.4,23.7-4.1,36c1,9,3.3,17.7,7.8,25.6
		C168.9,232,171.6,235.7,175.2,238.8z"/>
	<path class="st1" d="M281,207.8c-8.3,0-14.6-6.3-14.6-14.5c0-8.1,6.5-14.7,14.5-14.7c8,0,14.7,6.8,14.7,14.8
		C295.5,201.5,289.1,207.8,281,207.8z"/>
	<path class="st1" d="M214,140.3c0-8,6.5-14.5,14.5-14.5c7.9,0,14.5,6.5,14.5,14.5c0,8-6.5,14.5-14.5,14.5
		C220.5,154.9,214,148.4,214,140.3z"/>
	<path class="st1" d="M227.8,259.6c-7.9,0-14.3-6.3-14.4-14.2c-0.1-8.1,6.3-14.7,14.4-14.7c8.2,0,14.5,6.3,14.5,14.5
		C242.3,253.3,236,259.5,227.8,259.6z"/>
	<path class="st1" d="M175.6,207.6c-8.1,0-14.5-6.4-14.5-14.5c0-7.9,6.5-14.4,14.4-14.5c8,0,14.6,6.5,14.6,14.6
		C190.2,201.3,183.8,207.6,175.6,207.6z"/>
</g>
</svg>
