<?xml version="1.0" encoding="utf-8"?>
<!-- Generator: Adobe Illustrator 23.0.6, SVG Export Plug-In . SVG Version: 6.00 Build 0)  -->
<svg version="1.1" id="Layer_1" xmlns="http://www.w3.org/2000/svg" xmlns:xlink="http://www.w3.org/1999/xlink" x="0px" y="0px"
	 viewBox="0 0 455.6 386.7" style="enable-background:new 0 0 455.6 386.7;" xml:space="preserve">
<style type="text/css">
	.st0{fill:#7BFF6D;}
	.st1{fill:#D8D8D8;}
	.st2{fill:#2B4800;}
	.st3{fill:#BF8F00;}
	.st4{fill:#4000AD;}
	.st5{fill:#39003F;}
	.st6{fill:#888824;}
	.st7{fill:#0000FF;}
	.st8{fill:#FF6336;}
</style>
<g>
	<path class="st1" d="M206.3,197.1c-1.6,0.8-3.1,1.6-4,3.1c-0.9,1.5-1.7,3-2.3,4.6c-0.3,1-0.9,1.9-1.4,2.8c-0.6,1-1.3,1.9-1.9,2.9
		c-0.8,1.3-1.8,2.4-3.1,3.3c-0.2,0.2-0.5,0.3-0.8,0.4c-1.2,0.4-2.2-0.2-2.2-1.5c0-0.8,0.2-1.7,0.3-2.5c0-0.5,0.1-0.9,0.1-1.4
		c0-1.1-1-1.9-2-1.6c-0.7,0.2-1.3,0.6-1.9,0.9c-0.9,0.5-1.8,1-2.8,1.4c-0.8,0.4-1.4,0.8-2,1.5c-0.9,1.2-2.1,1.7-3.6,1.4
		c-0.9-0.2-1.4-0.8-1.9-1.5c-0.4-0.6-0.9-1.4-1.5-1.6c-2-0.6-4.1-0.8-6.1,0.4c-1.5,0.9-1.9,2.3-1,3.8c0.4,0.8,1.1,1.4,1.7,2.1
		c0.4,0.5,1,0.9,1.4,1.4c0.9,0.9,1.4,1.9,1.5,3.2c0.3,2,0.7,3.9,0.9,5.9c0.1,1.1,0.1,2.3-0.1,3.4c-0.2,1.3-1.3,1.6-2.3,0.7
		c-1.4-1.2-2.1-1-3.1,0.5c-0.6,1-1.2,1.9-1.8,2.9c-0.5,0.8-1.1,1.5-2,1.9c-2.6,1-3.3,3.1-3.4,5.6c-0.1,1.8-0.1,3.5-0.3,5.3
		c0,0.6-0.2,1.3-0.5,1.8c-0.8,1.6-2.6,1.7-3.6,0.2c-0.5-0.7-0.8-1.5-1-2.3c-0.4-1.7-0.8-3.4-1.2-5c-0.3-1.5,0-2.9,0.5-4.3
		c1.7-4.1,3.4-8.2,5.3-12.2c1.6-3.2,0.8-5.9-1-8.6c-0.7-1.1-1.8-2.1-2.7-3.1c-0.8-0.9-1.9-1.5-3.1-1.8c-1.4-0.3-2.8-0.9-3.9-1.8
		c-1.3-1-2.6-1-4,0c-0.6,0.4-1.3,0.9-1.9,1.3c-1,0.6-2.1,0.7-3.2,0.4c-1.6-0.5-3.2-0.9-4.9-0.9c-1.5-0.1-2.7-0.9-3.4-2.2
		c-1.2-2-2.4-4-3.6-6.1c-0.5-0.8-1.1-1.4-2-1.6c-2.1-0.4-4-1.3-6-1.9c-2.8-0.9-5.8-1.2-8.7-0.3c-2.9,0.9-5.8,0.8-8.7-0.1
		c-3-0.9-6.1-1.3-9.2-1.3c-0.9,0-1.8-0.1-2.7-0.2c-1-0.1-1.7-0.7-2.3-1.5c-0.6-0.8-0.5-1.5,0.2-2.1c0.9-0.7,2-1,3.1-1.2
		c1.9-0.4,3.8-0.8,5.6-1.2c0.4-0.1,0.8-0.3,1.2-0.5c0.6-0.4,0.8-0.9,0.8-1.7c-0.1-1.4-0.1-2.8-0.1-4.2c0-1.5-0.4-2.7-1.7-3.5
		c-1.6-1.1-3.4-1.6-5.4-1.8c-2.8-0.2-5.6-0.7-8.2-1.8c-1.8-0.7-3.8-0.7-5.8-0.7c-3-0.1-6,0-8.9-0.1c-1.3,0-2.6-0.2-3.8-0.4
		c-0.3,0-0.6-0.1-0.9-0.3c-0.3-0.2-0.6-0.5-0.6-0.8c0-0.3,0.3-0.7,0.6-0.8c0.7-0.3,1.5-0.4,2.3-0.6c3.4-0.5,6.8-0.2,10.2-0.3
		c5-0.1,10-0.2,15-0.5c2.4-0.2,4.8-0.7,7.1-1.2c1.8-0.4,3.1-1.5,4-3.1c0.4-0.7,0.6-1.4,0.3-2.3c-0.3-1.1-0.1-1.5,1-1.8
		c1.7-0.5,3.5-1,5.2-1.4c3.5-0.9,7.1-1.1,10.7-0.9c1.3,0.1,2.7,0,4-0.2c1.5-0.2,3,0,4.5,0.1c2.8,0.1,5.6-0.2,8.1-1.6
		c1.8-1,3.7-1.6,5.8-1.3c0.7,0.1,1.5-0.2,2.3-0.2c2.8-0.1,5.6-0.4,8.3-0.9c1-0.2,2-0.1,3-0.2c1.3-0.1,1.8-0.5,2.2-1.7
		c0.5-1.4,0.9-2.8,1.4-4.2c0.4-1,1-1.8,1.8-2.4c1.8-1.3,3.6-2.6,5.7-3.2c0.4-0.1,0.7-0.2,1.1-0.2c1,0,1.4,0.5,1.2,1.4
		c-0.2,1-0.6,1.9-0.9,2.9c-0.3,0.9-0.6,1.7-0.8,2.6c-0.2,1.2,0.2,2,1.2,2.6c0.4,0.2,0.8,0.4,1.1,0.7c0.7,0.5,0.8,1.1,0.4,1.9
		c-0.1,0.2-0.3,0.4-0.4,0.6c-0.3,0.4-0.7,0.8-1.1,1.2c-1.7,1.5-2,3.4-1.7,5.6c0.2,1.4,0.4,2.9-0.1,4.4c-0.1,0.4-0.4,0.9-0.6,1.3
		c-0.6,0.7-1.5,1-2.3,0.5c-0.5-0.3-1-0.6-1.4-1.1c-1-1.4-2.4-1.8-4-2c-2.2-0.3-4.3-0.2-6.4,0.4c-1,0.3-2.1,0.2-3-0.4
		c-2.9-1.9-6.1-2.2-9.5-2.1c-2.1,0-4.3-0.1-6.3,0.5c-1.6,0.5-3.1,1.3-4.2,2.5c-1.1,1.1-1,2.2,0.3,3c1.4,0.9,2.9,1.5,4.4,2.2
		c1.4,0.7,2.8,1.4,4.1,2.1c1.2,0.6,2.3,1.1,3.5,1.6c1,0.4,2,0.3,2.9-0.1c1.5-0.6,2.9-1.3,4.1-2.4c0.2-0.2,0.4-0.3,0.6-0.5
		c1.7-1.1,3.5-0.8,4.5,0.9c0.8,1.4,1.9,2.3,3.3,2.9c0.8,0.3,1.5,1,2.3,1.5c1.7,1.4,3.1,1.5,5.1,0.5c1.2-0.6,2.5-1.1,3.7-1.6
		c0,0,0.1,0,0.1,0c1.9,0.2,3.6-0.6,5.4-1c0.9-0.2,2-0.1,2.9-0.1c1.8,0,3.7,0.2,5.5,0.1c2.1-0.1,4,0.4,5.9,1.1
		c0.8,0.3,1.7,0.5,2.5,0.7c1,0.2,1.9,0,2.5-0.9c0.6-0.8,0.5-1.7,0.1-2.6c-0.2-0.4-0.4-0.8-0.7-1.2c-1.6-2-1.5-4.1-0.5-6.2
		c0.5-1,1.2-1.9,1.8-2.8c0.5-0.7,1.3-1,2.2-1c0.3,0,0.6,0,0.9,0c0.8,0,1.3-0.4,1.6-1.2c0.2-0.6,0.3-1.1,0.4-1.7
		c0.2-1.1,0.8-1.7,1.9-2c1.4-0.5,2.9-1,4.3-1.5c0.1,0,0.2-0.1,0.2-0.1c2.4-0.2,3.7-1.7,4.4-3.9c0.7-2.5,2.3-4.6,3.7-6.7
		c0.1-0.2,0.2-0.4,0.4-0.4c0.4-0.2,0.8-0.4,1.2-0.4c0.5,0.1,0.7,0.6,0.8,1.1c0.2,2.1,0.2,4.2-0.5,6.2c-0.7,1.9-1.3,3.9-1.9,5.9
		c-0.5,1.6-0.4,3.2-0.2,4.8c0.3,2,1.6,3.2,3.6,3.5c0.9,0.1,1.8,0.1,2.7,0.2c0.7,0.1,1.4,0.2,2,0.6c1.9,1.2,3.8,2.5,5.6,3.8
		c1.1,0.8,2,1.9,3,2.7c0.6,0.5,1.3,0.9,2,1.2c1.1,0.4,1.7,0,1.8-1.2c0.1-1.5-0.1-3.1-0.6-4.5c-0.1-0.3-0.2-0.7-0.3-1
		c-0.2-0.8,0-1.5,0.8-1.9c0.6-0.4,1.3-0.7,2-1.1c1.2-0.6,2.1-1.4,2.9-2.4c0.5-0.6,1-1.1,1.6-1.6c1.3-1,2.8-0.9,4.1,0.1
		c0.2,0.1,0.3,0.2,0.5,0.4c1.4,1.3,3.1,1.9,5,1.5c0.6-0.1,1.2-0.1,1.8-0.2c2.9-0.3,6-2.8,6.7-5.8c0.5-2.2,1.8-3.8,3.6-5
		c0.9-0.6,1.7-1.2,2.5-1.8c0.5-0.4,1.1-0.7,1.7-1c1.8-0.8,3.7-1.6,5.6-2.3c0.6-0.3,1.3-0.4,2-0.5c1.1,0,1.5,0.8,1,1.7
		c-0.3,0.5-0.6,1-0.9,1.5c-0.6,1.2-0.5,2.1,0.3,2.7c0.9,0.7,2.1,0.7,3-0.2c0.6-0.5,1-1.1,1.6-1.6c0.7-0.6,1.4-1.1,2.2-1.5
		c1.1-0.5,2.2-0.1,2.7,1c0.6,1.3,1.5,2.1,2.9,2.5c1.1,0.4,1.8,1.3,2.1,2.4c0.4,1.3,0.7,2.6,1.1,3.9c0.3,0.9,0.5,1.8,0.9,2.7
		c0.6,1.3,1.5,1.6,2.9,1.1c0.8-0.3,1.5-0.6,2.3-0.8c1.5-0.4,2.6,0.7,2.3,2.2c-0.1,0.5-0.3,1.1-0.5,1.5c-0.3,0.7-0.7,1.4-1.1,2
		c-0.9,1.6-0.8,3.2,0.4,4.6c0.9,1,1.5,2.2,1.7,3.6c0.1,0.5,0.2,1,0.3,1.5c0.1,1.1,0.6,2,1.3,2.8c0.6,0.7,1.1,1.4,1.8,2.1
		c0.7,0.8,1.6,1,2.6,0.9c0.7-0.1,1.4-0.2,2.1-0.3c0.8-0.1,1.1-0.6,1.2-1.3c0.1-1-0.3-1.9-0.8-2.7c-0.6-1-1-2-1.2-3.1
		c-0.2-1.1-0.8-1.9-1.8-2.4c-0.4-0.2-0.8-0.4-1.2-0.6c-0.7-0.4-0.8-0.9-0.3-1.6c1.1-1.5,1-1.6-0.3-3c-1.3-1.2-1.5-2.3-0.8-3.9
		c0.6-1.2,1.3-2.3,2.1-3.3c0.8-1.1,1.5-2.3,1.9-3.6c0.5-1.8,1.2-3.6,1.6-5.5c0.4-1.6,0.6-3.2,1.3-4.8c0.4-1.1,0.2-2.1-0.6-3
		c-0.8-0.8-1.7-1.6-2.5-2.3c-2.6-2.3-4.9-5-7.1-7.8c-0.5-0.6-0.8-1.3-1-2c-0.3-1.1,0.5-2,1.6-1.9c0.7,0.1,1.4,0.3,2,0.7
		c1.2,0.7,2.4,1.3,3.7,1.7c2.1,0.6,3.5,2.1,4.7,3.8c1.4,2,3,3.7,4.8,5.4c1.2,1.1,2.2,2.4,3.1,3.7c0.9,1.2,0.8,2.7,1.1,4.1
		c0.6,3.1-0.7,5.9-1.8,8.7c-0.9,2.5-1.1,5-0.6,7.6c0.3,1.5,1.2,2.3,2.7,2.2c1.8-0.1,3.7-0.3,5.4-0.8c3-1,4.8-3.2,4.9-6.5
		c0.1-1.9,0.6-3.8,1.7-5.5c0.4-0.6,0.6-1.4,0.9-2c0.4-0.9,0.9-1.1,1.7-0.6c0.8,0.5,1.7,1.1,2.4,1.6c1.1,0.9,1.6,2.1,1.6,3.5
		c-0.1,2.6,1.2,4.4,3.1,5.9c2,1.6,4.1,3.2,6.3,4.7c0.7,0.5,1.6,0.8,2.5,0.7c2.9-0.2,5.7,0.2,8.5,0.6c3.3,0.4,6.7,0.3,10,0
		c3.3-0.3,6.6-0.3,10,0.5c2.9,0.6,5.9,0.5,8.8,0c0.8-0.1,1.6-0.2,2.4-0.2c0.5,0,1,0.2,1.2,0.8c0.1,0.6-0.3,1.1-0.8,1.2
		c-0.9,0.3-1.8,0.6-2.8,0.6c-1.6,0.1-3.2,0-4.7,0c-2.3-0.1-4.4,0.5-6.3,1.9c-1.6,1.2-3.5,1.6-5.5,1.4c-4.6-0.3-9.2-0.5-13.8-0.8
		c-2.1-0.1-4,0.4-5.7,1.6c-2.4,1.6-5,2.7-7.8,3.3c-0.2,0.1-0.5,0.1-0.7,0.2c-2.3,0.6-3.6,2.1-3.9,4.5c-0.2,1.5-0.7,2.9-1.5,4.2
		c-0.9,1.5-0.8,3.1-0.7,4.7c0.2,2.7,0.3,5.3,0.4,8c0.1,1.6-0.3,3.1-0.9,4.6c-0.7,1.7-1.4,3.4-1.9,5.1c-0.3,1-0.4,2.1-0.6,3.1
		c-0.1,0.5-0.4,1.1-0.7,1.5c-0.7,0.9-2,0.9-2.7-0.1c-0.3-0.4-0.6-1-0.8-1.5c-0.4-1.4-0.9-2.8-1.2-4.3c-0.3-1.9-1.2-3.5-2.8-4.7
		c-1.1-0.9-2.2-1.8-3.2-2.8c-1-0.9-2.1-1.4-3.4-1.7c-2-0.4-3.7-1.3-5.3-2.6c-1.5-1.2-3.1-2.1-4.9-2.6c-3.6-1-6.9-2.8-10.3-4.3
		c-0.9-0.4-1.6-1.1-2.4-1.6c-0.8-0.4-1.6-0.7-2.4-0.9c-0.8-0.1-1.3,0.4-1.2,1.2c0.1,0.5,0.2,1.1,0.5,1.6c1.1,2.1,2.8,3.7,4.5,5.3
		c0.3,0.3,1,0.4,1.5,0.4c1.6,0,2.8,0.7,3.6,2c0.4,0.6,0.5,1.4,0.3,2.1c-0.8,2-0.2,3.8,1.2,5.3c1,1.2,1.9,2.3,2.7,3.7
		c0.4,0.6,1,1.3,1.7,1.6c2.3,1,3.7,2.8,4.7,4.9c0.7,1.3,1.3,2.6,2,3.9c0.1,0.1,0.1,0.2,0.2,0.4c0.3,0.7,0.1,1-0.7,1
		c-0.3,0-0.6,0-0.9,0c-1.4,0-2,0.8-1.6,2c0.6,1.6,1.4,3.1,2.2,4.6c1.3,2.5,2.7,5,4,7.6c0.5,1.1,0.8,2.3,1.2,3.5
		c0.5,1.5,0.9,3,1.4,4.5c0.3,0.9,1,1.3,1.6,1.9c1.1,1,2.1,2.1,3,3.2c0.3,0.3,0.4,0.8,0.5,1.2c0.1,0.6-0.3,0.8-0.8,0.7
		c-1-0.2-1.6-1-2.1-1.7c-0.6-0.9-1.2-1.9-1.8-2.9c-0.4-0.7-0.9-1.3-1.5-1.9c-2.6-2.3-4.7-5-6.7-7.8c-0.8-1.2-1.5-2.4-2.3-3.5
		c-0.5-0.7-1-1.3-1.6-1.8c-0.2-0.2-0.8-0.4-1.1-0.2c-0.3,0.2-0.6,0.7-0.6,1.1c0,0.6,0.1,1.3,0.2,1.9c0,0.7,0,1.4-0.1,2
		c-0.2,0.8-1,1.2-1.6,0.7c-1.2-0.7-2.4-1.6-3.4-2.5c-0.8-0.7-0.9-1.8-1.1-2.8c-0.3-1.7-0.6-3.4-0.8-5c-0.1-1.1-0.3-2.2,0-3.2
		c0.9-3-0.5-5-2.7-6.6c-1-0.7-2.2-1.2-3.3-1.8c-1.2-0.7-2.3-1.4-3.5-2.1c-0.7-0.4-1.4-0.9-2.1-1.3c-1.6-0.7-3.1-1.5-4.4-2.5
		c-1.7-1.3-3.5-1.9-5.6-1.6c-1.9,0.3-3.7,0.1-5.5-0.3c-2-0.5-4-0.2-5.9,0.2c-1.4,0.3-2.8,0.5-4.2,0.2c-0.7-0.1-1.3-0.5-1.7-1.1
		c-0.7-1-1.6-1.3-2.7-1.3c-0.8,0-1.6,0.1-2.4,0.1c-1.4,0-2.9,0-4.3-0.1c-1.1-0.1-2,0.3-2.9,0.9c-0.8,0.5-1.6,1-2.5,1.3
		c-1.4,0.4-2.5-0.3-2.9-1.8c-0.1-0.5-0.2-1-0.4-1.5c-0.5-1.5-1.8-2.1-3.3-1.7c-2.2,0.7-4.4,1.4-6.6,2c-1.4,0.4-2.2,1.3-2.2,2.7
		c0,2.6-1.5,4.6-2.7,6.6c-0.5,0.8-1.3,1-2.2,0.9c-2.2-0.4-4.2-1.3-6-2.8c-1.3-1.1-1.8-1-3.1,0.1c-0.4,0.4-0.9,0.8-1.3,1.1
		c-1.3,0.8-1.8,2-2.1,3.5c-0.4,1.8,0.1,3.3,1,4.9c1.8,3.2,3.7,6.3,5.5,9.6c1,1.9,1.9,3.8,2.7,5.7c0.3,0.6,0.3,1.3,0.3,2
		c-0.1,1.1-1.1,1.6-2.1,1.1c-0.5-0.2-1-0.6-1.4-1c-0.8-0.6-1.6-1.2-2.4-1.9c-0.8-0.7-1.7-1.5-2.3-2.4c-1.3-2.1-2.8-3.9-4.8-5.4
		c-2.7-2-4.5-4.7-5.3-8c-0.4-1.8-1-3.6-1.4-5.5c-0.3-1.2-0.1-2.4,0.8-3.4c0.9-1.1,1-2,0.2-3.1c-1.3-1.7-1.1-3.4-0.5-5.3
		c0.9-2.4,1.5-4.9,2.2-7.4C206.6,198.7,206.7,197.9,206.3,197.1z M126.6,192c1.5-0.2,2.8,0.2,4,1c1,0.7,2.1,1.1,3.3,1.1
		c1.8,0,3.4,0.5,4.9,1.4c0.7,0.4,1.6,0.7,2.5,0.8c1.2,0.1,2.4,0,3.5-0.1c1-0.1,1.8-0.6,2.1-1.5c0.3-0.7,0.5-1.4,0.6-2.2
		c0.2-1.2,0.6-2.3,1.6-3.1c0.3-0.2,0.5-0.5,0.7-0.7c0.7-1,1.3-1.1,2.4-0.4c1,0.6,1.3,1.5,1.4,2.6c0.1,1.5-0.1,3,0.2,4.4
		c0.4,1.6,1.1,3.1,1.7,4.6c1,2.8,3,4.9,4.7,7.2c1,1.3,2.5,1.7,4.1,1.6c0.8-0.1,1.2-0.6,0.8-1.4c-0.3-0.5-0.6-0.9-1-1.3
		c-0.6-0.6-1.3-1.1-1.8-1.8c-1.1-1.5-2.2-3.1-3.3-4.6c-1.2-1.7-1.2-3.1,0.8-4.1c0,0,0.1,0,0.1-0.1c0.7-0.5,1-1,0.7-1.8
		c-0.5-1.6-1-3.1-1.6-4.6c-0.3-0.7-0.7-1.4-1.2-2c-0.8-1-1.6-2-1.9-3.3c-0.1-0.4-0.3-0.7-0.4-1c-0.5-0.9-1.4-1.1-2.2-0.3
		c-0.4,0.4-0.7,0.9-1,1.3c-0.6,1-1,2-1.6,3c-0.3,0.5-0.8,0.8-1.2,1.1c-0.4,0.4-0.9,0.6-1.2,1.1c-0.7,1.2-1.9,1.7-3.2,1.9
		c-2.8,0.5-4.7-0.5-5.9-3.1c-0.3-0.6-0.5-1.2-0.7-1.8c-0.6-1.6-1.2-1.9-2.9-1.4c-1.3,0.5-2.5,0.4-3.7-0.2c-0.7-0.4-1.4-0.8-2.1-1.1
		c-1.7-0.9-3.5-1.4-5.5-1.4c-1.2,0-2.1,0.4-2.7,1.4c-0.6,1-1.1,2.1-1.6,3.2c-0.4,0.9-0.2,1.8,0.4,2.6
		C122.2,190.9,123.9,192.5,126.6,192z M284.1,180.3c0,0-0.1,0-0.1,0c0-0.3,0-0.7-0.1-1c-0.5-2.4-0.8-4.8-1.5-7.1
		c-0.7-2.4-1.5-4.8-2.4-7.1c-0.7-1.8-1.7-2-3.2-0.9c-0.6,0.4-1.2,0.9-1.9,1.2c-2.6,1.5-4.2,3.9-5.6,6.4c-0.8,1.5-0.7,3.3-0.9,5
		c-0.2,1.8-0.6,3.6-2.5,4.3c-2.3,0.9-4.7,1.4-7.2,0.3c-0.8-0.4-1.7-0.6-2.6-0.9c-1.2-0.3-2.4-0.4-3.6-0.1c-0.8,0.2-1.1,0.7-1.1,1.4
		c0.2,1.6,1.8,3,3.4,2.7c1.3-0.2,2.5-0.6,3.8-0.9c1-0.2,2-0.3,3.1,0c1.7,0.5,3.4,0.9,5.1,1.3c1.6,0.4,3.1,0.1,4.4-0.9
		c0.5-0.4,1.1-0.7,1.7-1c1.3-0.7,2.7-0.9,4.2-0.4c1.2,0.4,1.8,2,1,2.9c-0.3,0.4-0.8,0.6-1.3,0.9c-0.8,0.4-1.6,0.8-2.3,1.3
		c-0.7,0.4-1.1,1.1-1.2,1.9c-0.3,1.6,0.3,3,1.2,4.4c0.3,0.4,0.6,0.5,1,0.2c0.8-0.5,1.7-1.1,2.5-1.7c1.3-1,1.7-2.4,1.5-4
		c-0.3-1.8,0-2.3,1.7-2.9c0.2-0.1,0.4-0.2,0.7-0.3c0.8-0.3,1.3-0.9,1.5-1.7C283.7,182.6,283.9,181.4,284.1,180.3z M218.5,191.3
		c0.1,0.5,0.1,1.3,0.3,2c0.5,1.8,1.6,2.3,3.2,1.2c0.9-0.6,1.7-1.4,2.4-2.2c1.4-1.3,2.8-1.3,4,0.1c0.5,0.6,0.9,1.3,1.4,2
		c0.6,0.8,1.3,1.4,2.3,1.6c0.8,0.2,1.6,0.4,2.3,0.8c1,0.5,2,0.7,3,0.2c1.6-0.6,3.3-1.3,4.9-2c0.7-0.3,1.1-0.9,0.8-1.7
		c-0.3-0.9-0.8-1.8-1.3-2.7c-0.3-0.6-1-0.8-1.7-0.7c-0.4,0-0.8,0.1-1.2,0.2c-1,0.3-2,0.1-2.9-0.5c-1-0.7-1.9-1.4-2.8-2.2
		c-1.7-1.5-3.2-3.1-5-4.5c-1.5-1.2-3.2-2.2-5-2.8c-0.7-0.2-1.4,0-1.9,0.5c-0.3,0.4-0.6,0.8-0.9,1.3
		C219.1,184.9,218.7,188,218.5,191.3z M257.9,192.4c-0.8,0.1-1.6,0.1-2.4,0.2c-1.3,0.3-1.9,1.2-1.5,2.5c0.4,1.6,1.3,2.8,2.8,3.6
		c2,0.9,4,1.9,6,2.8c2.2,0.9,4.4,1.9,6.3,3.5c0.6,0.5,1.4,1,2.2,1.2c2.7,1,5.6-1.1,5.5-3.9c0-2.1-0.5-4-1.5-5.9
		c-0.4-0.8-0.6-0.9-1.5-0.6c-1.2,0.4-2.5,0.3-3.7,0c-2.1-0.7-4.3-1.3-6.4-2.1C261.8,193,259.9,192.4,257.9,192.4z M321.8,180.7
		c0.2,2.6,1.4,4.9,3.4,6.7c0.8,0.7,1.6,0.6,2.3-0.1c1.1-1.1,1.9-2.5,2.2-4.1c0.2-1.1-0.1-2.1-1.1-2.6c-1.1-0.6-2.2-1.2-3.4-1.6
		c-0.6-0.2-1.4-0.2-2.1-0.2C322.3,178.9,321.8,179.6,321.8,180.7z M272.4,156.8c0-0.1,0-0.4-0.1-0.6c-0.3-0.9-1.3-1.4-2.3-0.9
		c-2.6,1.1-4.6,2.8-5.9,5.4c-0.5,0.9-0.5,2,0,3c0.4,0.8,1.1,1.1,1.9,0.8c0.5-0.2,1.1-0.6,1.5-1c1.4-1.4,2.7-2.8,4-4.3
		C272.1,158.5,272.4,157.8,272.4,156.8z M202.2,189.3c0,1.6,0.5,3,1.9,3.9c1,0.7,1.8,1.5,2.2,2.7c0.2,0.6,0.4,0.6,0.9,0.1
		c0.6-0.7,0.7-1.5,0.4-2.4c-0.7-1.8-1.4-3.7-2.2-5.5c-0.2-0.5-0.5-1-0.9-1.4c-0.3-0.3-0.9-0.6-1.2-0.5c-0.3,0.1-0.7,0.6-0.8,1.1
		C202.3,188,202.3,188.6,202.2,189.3z M210.4,170.6c-0.1-0.3-0.1-0.9-0.3-1.4c-0.4-1.2-1.3-1.7-2.4-1.3c-1.2,0.4-1.8,1.5-1.4,2.6
		c0.2,0.6,0.6,1.2,1.1,1.7c0.6,0.6,1.3,1,2.1,0.7C210.4,172.5,210.4,171.7,210.4,170.6z M290.5,209.1c-0.4-1-0.7-1.9-1.1-2.7
		c-0.5-1.3-1.4-2.3-2.6-3c-0.3-0.2-0.6-0.1-0.9-0.2c0,0.3-0.1,0.6-0.1,0.9c0,0.1,0,0.3,0.1,0.4c0.4,1.8,1.5,3.3,3,4.3
		c0.3,0.2,0.6,0.4,1,0.6C290,209.4,290.2,209.2,290.5,209.1z M111.5,182.6c-0.4,0.1-0.8,0.2-1.1,0.4c-1.1,0.4-2.2,0.8-3.2,1.3
		c-0.6,0.3-1.1,0.7-1.5,1c-0.1,0.1-0.2,0.4-0.1,0.6c0.1,0.1,0.4,0.2,0.6,0.1c0.4-0.1,0.9-0.3,1.3-0.5c1-0.6,2-1,3.1-1.3
		c0.5-0.1,0.9-0.3,1.3-0.6c0.2-0.1,0.3-0.5,0.3-0.7C112,182.8,111.7,182.7,111.5,182.6z M258.7,171.3c0.9,0,1.7-0.7,1.8-1.6
		c0.1-0.6-0.3-1.1-0.9-1.1c-0.8,0-1.5,0.5-1.9,1.2C257.3,170.5,257.8,171.3,258.7,171.3z M248,181.3c0.7,0,1.2-0.4,1.2-1
		c0-0.6-0.7-1.3-1.4-1.3c-0.6,0-1.1,0.4-1.1,1C246.8,180.7,247.3,181.3,248,181.3z"/>
</g>
</svg>
