<?xml version="1.0" encoding="utf-8"?>
<!-- Generator: Adobe Illustrator 23.0.6, SVG Export Plug-In . SVG Version: 6.00 Build 0)  -->
<svg version="1.1" id="Layer_1" xmlns="http://www.w3.org/2000/svg" xmlns:xlink="http://www.w3.org/1999/xlink" x="0px" y="0px"
	 viewBox="0 0 455.6 386.7" style="enable-background:new 0 0 455.6 386.7;" xml:space="preserve">
<style type="text/css">
	.st0{fill:#7BFF6D;}
	.st1{fill:#D8D8D8;}
	.st2{fill:#2B4800;}
	.st3{fill:#BF8F00;}
	.st4{fill:#4000AD;}
	.st5{fill:#39003F;}
	.st6{fill:#888824;}
	.st7{fill:#0000FF;}
	.st8{fill:#FF6336;}
</style>
<g>
	<path class="st1" d="M116.9,234.5v-0.6c0-22,0-43.9,0-65.9c0-5.1,1.7-9.6,5.3-13.3c3-3,6.6-4.6,10.8-5.1c2.9-0.4,5.9-0.2,8.7,0.8
		c6.3,2.1,10.3,6.4,12,12.9c0.4,1.6,0.6,3.3,0.6,5c0,16.3,0,32.6,0,48.8v0.6h5.6v-0.6c0-16.3,0-32.7,0-49c0-5.1,1.7-9.6,5.3-13.3
		c3-3,6.6-4.6,10.8-5.1c3.1-0.4,6.1-0.2,9.1,0.9c6.2,2.2,10.1,6.6,11.6,13c0.4,1.5,0.5,3.1,0.5,4.6c0,21.9,0,43.7,0,65.6v0.7h-18.7
		v-67.2h-5.6v67.2h-31.7v-67.2h-5.6v67.2H116.9z"/>
	<path class="st1" d="M253.3,234.5v-84c0.1,0,0.3,0,0.4,0c6.7,0,13.5-0.1,20.2,0.1c7.6,0.2,13.9,3.2,18.6,9.3
		c2.6,3.4,3.9,7.3,4.5,11.5c0.2,1.3,0.2,2.5,0.2,3.8c0,11.8,0.1,23.6,0,35.4c0,6.7-2.2,12.6-7,17.3c-3.2,3.2-7.1,5.1-11.5,6.1
		c-1.9,0.4-3.9,0.6-5.8,0.6c-6.4,0-12.7,0-19.1,0H253.3z M277.5,167.3H272v50.4h5.5V167.3z"/>
	<path class="st1" d="M204.6,192.4c0-7.2,0-14.5,0-21.7c0-5.9,2-11.1,6.3-15.3c2.9-2.8,6.3-4.6,10.3-5.3c7.1-1.3,13.7-0.1,19.3,4.6
		c3.6,3.1,5.8,7.1,6.6,11.8c0.3,1.5,0.4,3,0.4,4.6c0,14.4,0,28.7,0,43.1c0,5.8-1.9,11-6.1,15.2c-3.4,3.4-7.5,5.3-12.2,5.9
		c-3.6,0.5-7.2,0.2-10.7-1c-7.1-2.5-11.5-7.5-13.4-14.8c-0.4-1.8-0.6-3.6-0.6-5.4C204.7,206.8,204.6,199.6,204.6,192.4 M223.4,217.7
		h5.5v-50.4h-5.5V217.7z"/>
	<path class="st1" d="M302.8,212.1v-16.8h29.8v-5.6c-0.2,0-0.4,0-0.6,0c-3.9,0-7.8,0.1-11.7-0.1c-8.6-0.3-15.7-5.7-17.7-14.1
		c-1.4-5.8-0.8-11.3,2.3-16.4c2.8-4.4,6.8-7.1,11.9-8.2c1.6-0.3,3.2-0.5,4.9-0.5c4.5-0.1,9.1,0,13.6,0c2.9,0,5.3,1,7.1,3.4
		c3,4.2,1.8,11.9-5.2,13.3c-0.7,0.1-1.3,0.1-2,0.1c-5.6,0-11.2,0-16.8,0h-0.6v5.6c0.2,0,0.4,0,0.7,0c3.9,0,7.7-0.1,11.6,0.1
		c8.6,0.3,15.9,5.7,18,14.5c1.3,5.7,0.6,11.1-2.5,16c-2.8,4.4-6.8,7-11.8,8c-1.6,0.3-3.2,0.5-4.9,0.5c-8.5,0-17,0-25.5,0H302.8z"/>
</g>
</svg>
