<?xml version="1.0" encoding="utf-8"?>
<!-- Generator: Adobe Illustrator 23.0.6, SVG Export Plug-In . SVG Version: 6.00 Build 0)  -->
<svg version="1.1" id="Layer_1" xmlns="http://www.w3.org/2000/svg" xmlns:xlink="http://www.w3.org/1999/xlink" x="0px" y="0px"
	 viewBox="0 0 455.6 386.7" style="enable-background:new 0 0 455.6 386.7;" xml:space="preserve">
<style type="text/css">
	.st0{fill:#7BFF6D;}
	.st1{fill:#D8D8D8;}
	.st2{fill:#2B4800;}
	.st3{fill:#BF8F00;}
	.st4{fill:#4000AD;}
	.st5{fill:#39003F;}
	.st6{fill:#888824;}
	.st7{fill:#0000FF;}
	.st8{fill:#FF6336;}
</style>
<g>
	<path class="st1" d="M160.3,193.6c0-3.4,0.4-6.7,1.3-10c1.2-4.1,3.2-7.8,6-11.1c3.9-4.5,8.7-7.7,14.3-9.7c3.2-1.1,6.5-1.8,9.9-2.2
		c2.2-0.2,4.5-0.3,6.7-0.2c4,0.1,7.8,0.8,11.6,2c2.7,0.8,5.3,2,7.8,3.4c2,1.2,3.9,2.6,5.7,4.3c4.2,4,7,8.8,8.6,14.4
		c0.6,2.1,1,4.2,1.1,6.4c0.1,1.4,0.1,2.7,0.1,4.1c-0.1,2.7-0.6,5.4-1.4,8c-0.9,2.9-2.2,5.6-3.8,8.2c-1.4,2.1-3,4-4.9,5.7
		c-2.1,1.9-4.4,3.5-6.8,4.7c-1.8,0.9-3.6,1.6-5.5,2.2c-2.8,0.9-5.6,1.6-8.5,2c-1.6,0.2-3.3,0.3-4.9,0.4c-0.5,0-1.1,0.1-1.6,0.1
		c-5.6-0.1-11-1.2-16.1-3.5c-3.1-1.4-6-3.2-8.7-5.4c-2.8-2.3-5.1-5-6.9-8.2c-1.6-2.8-2.6-5.7-3.2-8.9
		C160.5,198.1,160.3,195.9,160.3,193.6z M173.9,193.7c0,1.6,0.2,3.6,0.8,5.6c1.3,5.1,4.1,9.3,8.4,12.4c3.7,2.7,7.9,4,12.4,4.3
		c2.5,0.1,4.9-0.1,7.3-0.7c4.3-1.1,8-3.3,11.1-6.6c1.4-1.5,2.5-3.2,3.4-5c1.9-3.9,2.6-8,2.2-12.3c-0.2-2.7-0.8-5.2-2-7.6
		c-2.1-4.6-5.5-8.1-10-10.5c-4-2-8.2-2.8-12.6-2.5c-2.2,0.1-4.4,0.6-6.5,1.4c-5.5,2.1-9.6,5.7-12.2,11
		C174.6,186.2,173.9,189.7,173.9,193.7z"/>
	<path class="st1" d="M110.5,194.1c0,10,0,20,0,30c-5.2,0-10.3,0-15.4,0c0-20.5,0-41,0-61.6c0.2,0,0.5-0.1,0.8-0.1
		c1.3,0,2.6,0,3.9,0c2.3,0,4.6,0,6.9,0.1c2.7,0,5.4,0,8.1,0.1c2.5,0,5,0.1,7.5,0.1c1.4,0,2.9,0.1,4.3,0.1c5.9,0.3,11.7,1.4,17.2,3.8
		c1.9,0.8,3.7,1.8,5.3,3.2c2,1.8,3.4,4,4.2,6.6c0.4,1.5,0.6,3,0.5,4.6c-0.2,2.1-0.8,4.1-2,5.8c-1.3,2-3.1,3.5-5.1,4.8
		c-3,1.9-6.4,2.9-9.9,3.5c-1.8,0.3-3.6,0.4-5.4,0.5c-2,0-4,0.1-6,0.1c-1.1,0-2.2,0-3.4,0.1c-0.1,0-0.2,0-0.3,0.1
		c0.5,0.2,0.9,0.3,1.4,0.5c4.3,1.6,8.4,3.7,12.3,6.3c2.6,1.7,5,3.6,7.3,5.7c4.5,4.1,8.3,8.7,11.7,13.7c0.3,0.5,0.7,1,1,1.5
		c0.1,0.2,0.2,0.4,0.4,0.7c-6.8,0-13.5,0-20.3,0c-0.1-0.3-0.1-0.6-0.2-1c-0.7-4.2-2-8.3-3.6-12.3c-0.9-2.2-1.9-4.4-3.2-6.3
		c-2.9-4.3-6.9-7.3-11.8-9c-1.5-0.5-3.1-0.9-4.7-1.2C111.3,194.2,111,194.2,110.5,194.1z M110.5,162.8c0,0.3,0,0.5,0,0.6
		c0,9.5,0,19,0,28.5c0,0.2,0,0.4,0,0.5c0.1,0.8,0.4,1.1,1.2,1.2c0.6,0.1,1.2,0.2,1.8,0.3c2.7,0.4,5.5,0.8,8.3,0.7
		c1.8-0.1,3.6-0.3,5.2-0.9c3.4-1.2,5.7-3.4,6.8-6.8c1-2.8,1.2-5.7,1.3-8.7c0-1.1,0-2.2-0.2-3.2c-0.6-3.7-2.3-6.6-5.4-8.7
		c-2.6-1.8-5.6-2.7-8.7-3.1c-2.2-0.3-4.4-0.4-6.7-0.4C113.1,162.8,111.8,162.8,110.5,162.8z"/>
	<path class="st1" d="M298,207.6c2.3,3,4.6,6,7,9c-0.4,0.3-0.7,0.5-1,0.8c-3.1,2.5-6.7,4.3-10.4,5.6c-3.1,1.2-6.3,1.9-9.6,2.4
		c-2.2,0.3-4.5,0.6-6.8,0.6c-0.6,0-1.2,0.1-1.8,0.1c-5.9,0-11.6-1.1-17-3.5c-3.5-1.6-6.8-3.5-9.6-6c-3.6-3.2-6.3-7.1-8-11.7
		c-1-2.6-1.6-5.2-1.9-8c-0.1-1.1-0.2-2.2-0.2-3.3c-0.2-3.5,0.3-7,1.3-10.4c1.1-3.5,2.8-6.6,5.1-9.4c2.3-2.8,4.9-5.1,7.9-7.1
		c3.8-2.5,7.9-4.3,12.3-5.3c2.4-0.5,4.9-0.9,7.3-1c1.9-0.1,3.8-0.1,5.6,0c6,0.3,11.7,1.5,17.2,3.9c2.1,0.9,4.1,1.8,6,3.1
		c1.2,0.8,2.4,1.7,3.6,2.5c-2.3,3-4.5,6-6.8,9c-0.2-0.1-0.4-0.1-0.5-0.2c-1.7-0.8-3.4-1.7-5-2.5c-3-1.5-6-2.7-9.2-3.4
		c-1.9-0.4-3.8-0.7-5.7-0.8c-3.6-0.2-7.1,0.4-10.5,1.6c-3,1.1-5.7,2.9-7.9,5.2c-2.6,2.8-4.2,6.1-5,9.8c-0.4,1.9-0.5,3.8-0.4,5.7
		c0.3,5,2,9.5,5.4,13.3c3.4,3.8,7.7,6.1,12.8,6.9c1.2,0.2,2.4,0.3,3.6,0.3c2.3,0,4.5-0.3,6.7-0.7c4.2-0.8,8.1-2.2,11.8-4.2
		c1.1-0.6,2.1-1.2,3.2-1.9C297.6,207.9,297.8,207.8,298,207.6z"/>
	<path class="st1" d="M348.6,191.8c-1.4-2.9-3.6-4.7-6.6-5.6c-1.3-0.4-2.6-0.6-4-0.7c-2.9-0.3-5.7-0.1-8.5,0.6
		c-3.9,1-7.3,2.8-10.3,5.4c-0.9,0.8-1.7,1.6-2.5,2.4c-0.2,0.2-0.4,0.3-0.6,0.5c-2.9-2.7-5.7-5.3-8.6-7.9c0.2-0.3,0.4-0.5,0.6-0.8
		c2.7-3,5.8-5.5,9.4-7.4c3.6-1.9,7.4-3.1,11.4-3.8c2.4-0.4,4.8-0.6,7.2-0.5c4.1,0.1,8.1,0.8,11.9,2.4c3.7,1.5,6.7,4,8.8,7.4
		c1.3,2.1,2.1,4.3,2.5,6.7c0.3,1.4,0.4,2.9,0.6,4.3c0.3,2.2,0.2,4.3,0.2,6.5c0,6.1,0.1,12.3,0.1,18.4c0,1.5-0.1,3-0.1,4.5
		c-7.9,0-15.9,0-23.9,0c0.1-0.1,0.2-0.2,0.3-0.3c1.5-1,2.8-2,4.1-3.2c2.1-1.9,4-4.1,5.5-6.5c2.1-3.5,3.5-7.2,4.1-11.2
		c0.2-1,0.3-2.1,0.4-3.1c0-0.1,0-0.2,0-0.3c-0.1-0.1-0.2-0.2-0.3-0.2c-0.1,0-0.2,0.1-0.2,0.2c-0.1,0.3-0.1,0.5-0.2,0.8
		c-0.2,3-1.1,5.8-2.4,8.5c-1.3,2.8-3.1,5.3-5.1,7.6c-2.4,2.7-5.2,4.9-8.4,6.7c-2.9,1.5-5.9,2.6-9.1,3c-2.6,0.3-5.1,0.3-7.6-0.3
		c-1.8-0.4-3.5-0.8-5-1.8c-2.7-1.7-4.1-4.2-4.4-7.3c-0.3-3.3,0.9-6.1,3-8.6c1.7-1.9,3.6-3.5,6-4.5c1.5-0.7,3-1.3,4.6-1.8
		c6-2.2,12-4.4,18-6.6c2.8-1,5.6-2,8.3-3.1C348.4,191.9,348.5,191.8,348.6,191.8z M350,199.1c0-2.2-0.3-3.9-0.7-5.5
		c-0.3-1.1-0.5-1.4-1.8-1c-3.2,1.1-6.4,2.2-9.5,3.4c-3.4,1.2-6.8,2.5-10.2,3.7c-2.3,0.9-4.4,2-6.3,3.5c-1.6,1.3-2.6,2.9-2.8,5
		c-0.3,3.3,1.7,6.3,4.8,7.4c2.9,1,5.8,1.2,8.8,0.9c1.7-0.2,3.4-0.6,5-1.1c3.2-1,6-2.6,8.3-5.2C348.5,207,350,203,350,199.1z"/>
</g>
</svg>
