<?xml version="1.0" encoding="utf-8"?>
<!-- Generator: Adobe Illustrator 23.0.6, SVG Export Plug-In . SVG Version: 6.00 Build 0)  -->
<svg version="1.1" id="Layer_1" xmlns="http://www.w3.org/2000/svg" xmlns:xlink="http://www.w3.org/1999/xlink" x="0px" y="0px"
	 viewBox="0 0 455.6 386.7" style="enable-background:new 0 0 455.6 386.7;" xml:space="preserve">
<style type="text/css">
	.st0{fill:#7BFF6D;}
	.st1{fill:#D8D8D8;}
	.st2{fill:#2B4800;}
	.st3{fill:#BF8F00;}
	.st4{fill:#4000AD;}
	.st5{fill:#39003F;}
	.st6{fill:#888824;}
	.st7{fill:#0000FF;}
	.st8{fill:#FF6336;}
</style>
<g>
	<path class="st1" d="M166.9,185c0.7-0.5,1.4-1,2.2-1.5c1.2-0.8,2.6-1.4,3.9-1.8c1.5-0.5,3.1-0.9,4.7-1c0.6-0.1,1.3-0.1,1.9-0.1
		c1.5,0,2.9,0,4.4,0.3c1.4,0.2,2.8,0.6,4.1,1.4c2,1.2,3.3,2.9,3.9,5.1c0.3,1,0.4,2,0.4,3c0.1,3,0,6,0.1,9c0,0.6,0,1.2,0,1.8
		c-0.3,0.1-4.7,0.1-5.2,0c0-0.1,0-0.3,0-0.4c0-2.1,0-4.3,0-6.4c0-1.2,0-2.4,0-3.6c0-0.6-0.1-1.3-0.3-1.9c-0.3-1.3-1.2-2.1-2.4-2.5
		c-1-0.4-2.1-0.5-3.2-0.5c-1.6,0-3.2,0.1-4.8,0.4c-1.7,0.3-3.3,0.9-4.8,1.8c-1.5,0.9-2.6,2.2-3.2,3.8c-0.2,0.7-0.3,1.3-0.3,2
		c0,2.2,0,4.5,0,6.7c0,0.6,0,0.7-0.7,0.7c-1.3,0-2.6,0-4,0c-0.1,0-0.2,0-0.3,0c-0.3,0-0.4-0.1-0.4-0.4c0-0.1,0-0.2,0-0.3
		c0-2.6,0-5.1,0-7.7c0-0.9,0-1.8,0-2.7c0-0.4-0.1-0.9-0.2-1.3c-0.3-1.3-1.2-2-2.3-2.5c-1-0.4-2-0.5-3.1-0.6c-1.6,0-3.3,0.1-4.9,0.4
		c-1.9,0.4-3.7,1-5.3,2.2c-1.5,1.1-2.5,2.5-2.8,4.3c-0.1,0.6-0.2,1.2-0.2,1.7c0,2.1,0,4.2,0,6.3c0,0.1,0,0.3,0,0.4
		c-1.7,0-3.4,0-5.1,0c0-6.6,0-13.3,0-19.9c0.3-0.1,4.7-0.1,5.1,0c0,0.9,0,1.8,0,2.8c0.5-0.3,0.9-0.5,1.4-0.8
		c2.2-1.2,4.6-2.1,7.2-2.4c1.3-0.2,2.5-0.3,3.8-0.2c1.7,0,3.4,0.2,5.1,0.6c2.1,0.5,3.7,1.7,5,3.4C166.7,184.7,166.8,184.9,166.9,185
		z"/>
	<path class="st1" d="M363.5,194.3c0.2,0.1,0.4,0.2,0.6,0.3c1.3,0.6,2.6,0.9,4,1c1.2,0.1,2.3,0.2,3.5,0.2c3.2,0.1,6.4-0.3,9.5-1.1
		c1.5-0.4,3-0.9,4.5-1.4c0.2-0.1,0.3-0.1,0.5-0.2c0.7,1.6,1.3,3.2,2,4.8c-0.3,0.1-0.5,0.2-0.7,0.3c-3.1,1.2-6.3,2.1-9.6,2.6
		c-1.3,0.2-2.7,0.4-4,0.4c-0.9,0-1.8,0.1-2.6,0.1c-2.4,0-4.8-0.2-7.1-0.9c-2-0.6-3.9-1.5-5.5-2.8c-1.4-1.2-2.4-2.6-2.9-4.4
		c-0.6-2.4-0.4-4.8,0.9-7c0.8-1.3,1.8-2.3,3.1-3.1c1.8-1.1,3.7-1.8,5.7-2.3c1.3-0.3,2.7-0.4,4-0.6c1.9-0.2,3.9-0.2,5.8-0.1
		c1.7,0,3.5,0.1,5.2,0.5c1.6,0.3,3.2,0.9,4.6,1.8c1.3,0.9,2.1,2,2.4,3.6c0.2,1.5,0.1,2.9-1,4.2c-0.6,0.7-1.3,1.1-2.1,1.5
		c-1.1,0.5-2.3,0.7-3.5,0.9c-2,0.2-3.9,0.4-5.9,0.6c-2,0.2-4,0.4-5.9,0.6c-1.5,0.1-3,0.3-4.6,0.5c-0.3,0-0.6,0.1-0.9,0.2
		C363.5,194.2,363.5,194.3,363.5,194.3z M360.8,189.4c0.2,0,0.4-0.1,0.5-0.1c1.8-0.4,3.6-0.6,5.4-0.8c2.2-0.2,4.4-0.4,6.6-0.6
		c1.5-0.1,3-0.3,4.4-0.4c1.4-0.1,2.7-0.3,4-0.5c0.1,0,0.2,0,0.3-0.1c-0.1-0.1-0.1-0.1-0.2-0.1c-0.6-0.4-1.2-0.7-1.9-0.9
		c-1.4-0.3-2.8-0.5-4.2-0.5c-1.5-0.1-3.1-0.1-4.6,0c-1.7,0.1-3.4,0.3-5,0.6c-1.7,0.3-3.2,0.9-4.4,2.1
		C361.3,188.4,361,188.8,360.8,189.4z"/>
	<path class="st1" d="M203.5,194.2c0.4,0.3,0.7,0.5,1.1,0.6c1.3,0.5,2.6,0.7,4,0.9c1.6,0.2,3.1,0.1,4.7,0.1c2.6,0,5.1-0.4,7.6-1.1
		c1.6-0.4,3.2-0.9,4.8-1.5c0,0,0,0,0.1,0c0.3-0.1,0.3-0.1,0.5,0.2c0.2,0.5,0.4,0.9,0.6,1.4c0.4,1,0.8,2,1.2,2.9c0,0,0,0.1,0.1,0.2
		c-0.1,0-0.1,0.1-0.2,0.1c-3.6,1.4-7.3,2.4-11.2,2.9c-1,0.1-2,0.2-3,0.3c-0.8,0.1-1.7,0.1-2.5,0.1c-2.4,0-4.8-0.2-7.2-0.9
		c-1.8-0.5-3.6-1.3-5.1-2.5c-2-1.6-3.3-3.6-3.5-6.2c-0.3-2.6,0.5-4.9,2.2-6.8c0.8-0.9,1.7-1.6,2.8-2.2c2.3-1.3,4.8-2,7.4-2.3
		c1.6-0.2,3.2-0.3,4.8-0.4c1.2,0,2.5,0,3.7,0.1c1.6,0.1,3.2,0.2,4.8,0.6c1.6,0.4,3,0.9,4.3,1.9c1.1,0.9,1.8,2.1,2,3.5
		c0.3,2.2-0.5,4-2.4,5.1c-0.4,0.3-0.9,0.4-1.4,0.5c-2.2,0.4-4.4,0.8-6.6,1c-1.7,0.2-3.4,0.4-5.1,0.5c-1.8,0.2-3.5,0.3-5.3,0.5
		c-0.9,0.1-1.8,0.2-2.7,0.3C203.8,194.1,203.7,194.2,203.5,194.2z M222.2,186.9c-0.1-0.1-0.2-0.2-0.2-0.2c-0.5-0.4-1.1-0.5-1.7-0.7
		c-1.7-0.5-3.5-0.7-5.3-0.7c-1.4-0.1-2.8,0-4.2,0.1c-1.3,0.1-2.6,0.3-3.9,0.5c-1.4,0.2-2.7,0.6-3.8,1.3c-0.8,0.5-1.5,1-2,1.8
		c-0.1,0.2-0.2,0.3-0.2,0.6c0.2,0,0.3-0.1,0.4-0.1c0.8-0.2,1.6-0.4,2.4-0.5c1.4-0.2,2.8-0.3,4.2-0.4c1.9-0.2,3.9-0.4,5.8-0.6
		c1.7-0.2,3.5-0.3,5.2-0.5C219.9,187.2,221,187,222.2,186.9z"/>
	<path class="st1" d="M258.5,196.7c-0.5,0.8-1.2,1.5-1.9,2.1c-1.3,1.1-2.9,1.7-4.6,2.1c-0.9,0.2-1.8,0.3-2.7,0.3c-0.9,0-1.7,0-2.6,0
		c-3.4-0.2-6.6-0.9-9.5-2.6c-1.3-0.7-2.5-1.6-3.6-2.6c-0.8-0.7-1.5-1.5-2-2.4c-0.5-0.8-0.8-1.8-0.9-2.7c-0.1-1-0.1-2-0.1-3.1
		c0-0.7-0.1-1.4,0-2.1c0-1.6,0-3.2,0-4.8c0-0.1,0-0.2,0-0.2c1.7,0,3.4,0,5.1,0c0,0.3,0.1,0.6,0.1,0.8c0,1.7,0,3.4,0,5.1
		c0,0.7,0,1.4,0.1,2.1c0.3,2.2,1.5,3.9,3.4,5.1c2,1.3,4.3,2,6.6,2.2c0.6,0.1,1.1,0.1,1.7,0.1c1.5,0,3-0.1,4.4-0.6
		c0.9-0.3,1.6-0.7,2.1-1.5c0.3-0.5,0.5-1.1,0.5-1.6c0-0.5,0.1-1,0.1-1.4c0-1.3,0-2.6,0-3.9c0-2,0-4,0.1-6.1c0-0.1,0-0.2,0-0.2
		c0.3-0.1,4.7-0.1,5.2,0c0,0.1,0,0.3,0,0.4c0,1.8,0,3.6,0.1,5.4c0,0.3,0,0.6,0,0.9c0,1.8,0.5,3.4,1.7,4.8c1.2,1.3,2.6,2.2,4.3,2.8
		c1.5,0.5,3.1,0.8,4.7,1c0.6,0.1,1.1,0.1,1.7,0.1c1.4,0,2.9-0.1,4.2-0.7c1.4-0.5,2.1-1.6,2.3-3c0.1-0.5,0.1-0.9,0.1-1.4
		c0-3.3,0.1-6.7,0.1-10c0-0.1,0-0.2,0-0.3c0.3-0.1,4.4-0.1,5.2,0c0,0.1,0,0.2,0,0.3c0,3,0,5.9,0,8.9c0,1.1,0,2.3-0.2,3.4
		c-0.3,1.5-0.7,2.9-1.6,4.1c-1.1,1.5-2.5,2.5-4.3,3c-1.1,0.4-2.2,0.5-3.4,0.6c-1.1,0.1-2.3,0.2-3.4,0.2c-2,0-3.9-0.3-5.8-0.9
		c-2.4-0.7-4.6-1.8-6.5-3.3c-0.1-0.1-0.2-0.2-0.3-0.2C258.6,196.7,258.5,196.7,258.5,196.7z"/>
	<path class="st1" d="M97.2,187.9c-0.8-0.3-1.7-0.6-2.5-0.8c-2.4-0.8-4.9-1.3-7.4-1.5c-1.2-0.1-2.4-0.2-3.6-0.1
		c-1.8,0-3.6,0.2-5.3,0.5c-0.8,0.2-1.6,0.4-2.3,0.9c0,0-0.1,0.1-0.1,0.1c0,0,0,0,0,0.1c0.5,0.1,1,0.2,1.4,0.3
		c0.9,0.1,1.8,0.2,2.7,0.3c1,0.1,2,0.2,3,0.3c2.2,0.2,4.4,0.4,6.6,0.6c1.7,0.2,3.3,0.3,5,0.5c1,0.1,2,0.4,2.9,0.9
		c1.4,0.8,2.3,1.9,2.5,3.5c0.2,1.5-0.2,2.9-1.2,4.1c-0.9,1.1-2.1,1.8-3.4,2.3c-1.6,0.6-3.2,0.9-4.9,1.1c-1.9,0.2-3.9,0.3-5.9,0.2
		c-1.9,0-3.8-0.2-5.7-0.6c-2.1-0.4-4.2-0.9-6.3-1.6c-0.8-0.3-1.6-0.6-2.4-0.9c-0.1,0-0.2-0.1-0.4-0.2c0.7-1.6,1.3-3.1,2-4.7
		c0.5,0.2,1.1,0.3,1.6,0.5c2.4,0.9,4.9,1.5,7.4,1.9c2,0.3,3.9,0.4,5.9,0.3c1.7-0.1,3.3-0.2,5-0.5c0.7-0.1,1.3-0.4,2-0.6
		c0.2-0.1,0.5-0.2,0.6-0.4c0,0,0-0.1,0-0.1c-0.3-0.1-0.6-0.1-0.9-0.2c-1.7-0.2-3.4-0.4-5.1-0.5c-2.3-0.2-4.5-0.4-6.8-0.7
		c-1.6-0.2-3.2-0.3-4.8-0.5c-1.2-0.1-2.4-0.4-3.5-1c-1.8-0.8-2.7-2.2-2.8-4.2c-0.1-1.2,0.3-2.4,1-3.4c0.5-0.7,1.1-1.2,1.8-1.6
		c1.1-0.7,2.4-1.1,3.7-1.5c1.3-0.3,2.6-0.5,4-0.6c1.4-0.1,2.7-0.1,4.1,0c1,0,2.1,0.1,3.1,0.2c1.4,0.1,2.8,0.3,4.2,0.6
		c2.2,0.5,4.3,1.1,6.3,1.9c0.1,0,0.2,0.1,0.3,0.1c0.2,0.1,0.2,0.2,0.1,0.3C98.5,184.9,97.8,186.4,97.2,187.9z"/>
	<path class="st1" d="M313.3,183.6c0-0.7,0-1.3,0-1.9c0.3-0.1,4.7-0.1,5.2,0c0,6.3,0,12.6,0,19c-0.3,0.1-4.6,0.1-5.1,0
		c0-0.5,0-0.9,0-1.4c0-0.5,0-0.9,0-1.5c-0.2,0.1-0.3,0.1-0.3,0.2c-2,1.6-4.4,2.5-6.9,2.9c-1.7,0.3-3.4,0.4-5.1,0.4
		c-1.6,0-3.2-0.2-4.8-0.6c-1.4-0.3-2.7-0.7-3.9-1.4c-2-1-3.6-2.5-4.6-4.5c-0.5-0.9-0.7-2-0.8-3c-0.2-1.7,0.1-3.3,0.7-4.9
		c0.7-1.6,1.8-2.9,3.2-3.8c2-1.4,4.2-2.2,6.6-2.6c1.6-0.3,3.3-0.4,4.9-0.3c2.5,0.1,4.9,0.4,7.2,1.3c1.3,0.5,2.4,1.2,3.5,2
		C313.1,183.4,313.2,183.5,313.3,183.6z M301.9,185.3c-1.3,0-2.6,0.1-3.9,0.4c-1.3,0.2-2.6,0.7-3.8,1.4c-1.2,0.8-2,1.8-2.1,3.2
		c-0.1,1.4,0.4,2.6,1.5,3.5c0.8,0.7,1.7,1.1,2.6,1.4c1.8,0.6,3.6,0.8,5.4,0.8c1.6,0,3.1-0.2,4.7-0.6c1.1-0.3,2.2-0.7,3.1-1.5
		c1.2-1,1.9-2.2,1.7-3.8c-0.1-0.9-0.5-1.7-1.1-2.3c-0.6-0.7-1.4-1.2-2.3-1.5C305.9,185.6,303.9,185.3,301.9,185.3z"/>
	<path class="st1" d="M119.4,180.1c2.9,0,5.7,0.4,8.5,1.3c1.7,0.5,3.2,1.3,4.5,2.5c1.7,1.5,2.8,3.3,3.1,5.6c0.4,2.7-0.4,5-2.2,7
		c-1.4,1.6-3.1,2.6-5,3.3c-1.6,0.6-3.2,0.9-4.9,1.1c-1.3,0.1-2.6,0.3-4,0.4c-0.5,0-1,0-1.4,0c-1.5-0.1-3-0.2-4.5-0.5
		c-2.1-0.4-4.2-1.1-6-2.2c-1.6-1-2.9-2.3-3.7-4c-0.5-1-0.7-2-0.8-3.1c-0.1-1.6,0.2-3.1,0.8-4.5c0.4-0.8,0.8-1.5,1.4-2.1
		c1.4-1.6,3.2-2.6,5.2-3.3c1.4-0.5,2.8-0.8,4.3-1C116.2,180.2,117.8,180.1,119.4,180.1z M119.1,196c1.4,0,2.9-0.1,4.3-0.4
		c1.1-0.2,2.3-0.4,3.3-0.9c1-0.4,2-1,2.7-1.8c1.2-1.3,1.2-3.1,0-4.5c-0.5-0.6-1.2-1.1-1.9-1.4c-1.5-0.8-3.1-1.2-4.8-1.4
		c-0.9-0.1-1.8-0.2-2.7-0.2c-0.5,0-1.1,0-1.6,0c-0.6,0-1.2,0.1-1.9,0.1c-1.4,0.1-2.7,0.3-4.1,0.7c-1.2,0.4-2.3,0.9-3.3,1.7
		c-1,0.8-1.5,1.9-1.3,3.2c0.1,0.9,0.5,1.6,1.2,2.2c0.9,0.8,2,1.4,3.1,1.7C114.6,195.7,116.8,196,119.1,196z"/>
	<path class="st1" d="M347.2,189.6c-0.1-0.2-0.1-0.4-0.2-0.6c-0.5-1.4-1.4-2.3-2.9-2.7c-1.4-0.3-2.8-0.5-4.2-0.5
		c-2.3,0-4.6,0.5-6.7,1.6c-0.9,0.4-1.7,0.9-2.4,1.5c-1.1,1-1.9,2.2-2.2,3.6c-0.2,0.9-0.3,1.9-0.2,2.8c0.1,0.5,0,1,0,1.6
		c0,0.5,0,1.1,0,1.6c0,0.8,0,1.6-0.1,2.4c0,0,0,0.1,0,0.2c-1.7,0-3.4,0-5.1,0c0-6.6,0-13.2,0-19.9c0.3-0.1,4.2-0.1,5.1,0
		c0.1,0.9,0,1.8,0,2.8c0.2-0.1,0.3-0.1,0.5-0.2c2-1.3,4.3-2.2,6.7-2.7c1.1-0.2,2.3-0.4,3.4-0.4c0.7,0,1.4-0.1,2.1,0
		c2,0,3.9,0.3,5.8,1.2c1.5,0.7,2.8,1.5,3.8,2.8c0.9,1.2,1.5,2.5,1.7,3.9c0.1,0.3,0.1,0.7,0.1,1C352.1,189.6,348,189.7,347.2,189.6z"
		/>
</g>
</svg>
