<?xml version="1.0" encoding="utf-8"?>
<!-- Generator: Adobe Illustrator 23.0.6, SVG Export Plug-In . SVG Version: 6.00 Build 0)  -->
<svg version="1.1" id="Layer_1" xmlns="http://www.w3.org/2000/svg" xmlns:xlink="http://www.w3.org/1999/xlink" x="0px" y="0px"
	 viewBox="0 0 631.5 286" style="enable-background:new 0 0 631.5 286;" xml:space="preserve">
<style type="text/css">
	.st0{display:none;fill:#9933FF;}
	.st1{fill:#9933FF;}
	.st2{display:none;fill:#F0F0F0;}
	.st3{fill:#e0ae01;}
	.st4{fill:none;stroke:#FF9A00;stroke-width:3;stroke-miterlimit:10;}
</style>
<g>
	<g>
		<polygon class="st3" points="57,197.4 66.6,139.3 76,198.5 123.5,201.3 127.6,87.2 97.9,108.6 119.1,81.2 87.8,76 121.5,70.8 
			112.6,24.5 132.3,68.4 169.8,50.1 145.1,77.1 184.7,100.8 229,119.3 215.9,76.3 245.3,114.5 263.1,75.1 257.5,126.8 312.7,118 
			300.1,89.2 320.4,115.3 326.5,79.2 329.2,116.7 354,126.7 329.2,125.2 335.7,150 322.4,127 303.7,150.8 314.5,124.4 257.3,145 
			278.5,170.2 240.7,146.7 235.8,192.7 228.3,138.9 183.7,110 138.8,86.5 149.5,212.6 85.5,218.7 118.8,263.2 71.7,227.2 56.9,286 
			55.1,230 0.2,248 45.1,214.6 -1.5,178 		"/>
		<polygon class="st3" points="400,223 347.8,274.2 381.5,211.5 316,175.7 393.4,193 402.3,125.4 411.3,191 505.5,167.3 
			510.6,171.9 420.5,208.4 477.8,227 413.7,218.4 443.3,282 		"/>
		<polygon class="st3" points="528.7,257.2 505.7,280.2 536.3,260.9 548.2,287.3 543.2,258.4 569,271.3 549.3,252 571.1,226.9 
			540.3,247 519.1,221 535.4,252.2 503.1,233.4 		"/>
		<polygon class="st3" points="631.5,155.4 616.8,106.5 557.8,118.3 606.5,93.5 516,57 515.5,51.1 604.1,80.3 583,50.8 619.6,78.1 
			631.5,43.6 		"/>
		<polygon class="st3" points="510.1,149.8 507.5,104.2 520.2,148.9 547.7,132.1 528.2,157.4 577,173.6 528,172.1 555,223.3 
			516.9,176.5 501.1,209.8 507.8,172.2 477.9,182.1 502,167.7 457.9,156 501.5,154.8 484,122.3 		"/>
		<polygon class="st3" points="138.1,286 344.9,286 255.1,277.8 334.7,233.2 247.8,264.5 265.6,183.8 220.1,259.7 185.7,178.3 
			207.4,273 		"/>
		<polygon class="st3" points="107,0 262.1,0 210.5,8.1 243.1,40.7 201.3,11.3 201.2,70 189,11.8 150.9,43.3 180.1,8 		"/>
		<polygon class="st3" points="293.9,24.4 304.3,0 303.8,27.1 337.9,32.4 303.8,35.4 307.9,79.8 295.4,37.4 281.4,64.2 289.4,33.2 
			254.1,13.5 		"/>
		<polygon class="st3" points="631.5,174.6 618.8,220 565.9,202.1 612.3,232.4 590.2,269 621.4,244.6 631.5,286 		"/>
		<polygon class="st3" points="511.7,42.8 560.8,33.1 518.7,52.9 544.7,94.3 511.4,62.3 523.5,106.1 500.8,63.1 467.9,90.3 
			494.8,54.6 455.5,38.3 500.4,46.5 496.2,0 		"/>
		<polygon class="st3" points="391.9,74.8 416.2,43.5 402.4,79.9 447.4,69.9 405.5,91.4 444.6,116.5 400.3,98.6 374.1,140.4 
			385.8,97.1 350.4,90.9 382.5,86 365,34.2 		"/>
		<polygon class="st3" points="366.3,0 442.6,0 417.8,6.3 437.3,27.5 404.5,10.2 381.4,40.6 389.5,6.7 		"/>
		<polygon class="st3" points="610.4,0 543.7,0 564.7,6.6 543.7,27 573.8,11.6 590.8,35.8 584.3,9.2 606.7,17.8 589.2,4.3 		"/>
		<polygon class="st3" points="0,107.7 0,0 11.3,39.4 58.8,12.2 26.1,49 89.1,53.6 25.4,65.2 38.1,121.3 11.4,69.7 		"/>
	</g>
</g>
</svg>
