<svg id="e6ce12b6-3f28-4b5d-97f0-1dc1e5da1991" data-name="f701506f-bafc-435a-93a7-e5ec33cb1523" xmlns="http://www.w3.org/2000/svg" width="346.3642" height="346.1369" viewBox="0 0 346.3642 346.1369"><defs><style>.b80d7cde-cd6f-45e7-a303-64d8322bbdf1{fill:#c1c1c1;}</style></defs><title>tao</title><path class="b80d7cde-cd6f-45e7-a303-64d8322bbdf1" d="M105.6978,67.6948a67.63,67.63,0,0,1,135.2605,0l-.0943,11.6968a25.8525,25.8525,0,0,0,25.643,26.06q.1044.0008.2087.0008h11.2661c37.3837,0,68.2469,30.0146,68.382,67.398a67.63,67.63,0,0,1-67.3795,67.88q-.1252,0-.2505,0H266.7156a25.8525,25.8525,0,0,0-25.8525,25.8525q0,.1043.0008.2085l.0944,11.7146a67.63,67.63,0,0,1-135.26,0L105.6,266.375a25.8525,25.8525,0,0,0-25.8517-25.644H68.656C31.284,240.731.43,210.7271.2923,173.3555A67.6455,67.6455,0,0,1,67.68,105.4532q.1212,0,.2423-.0005H79.84a25.8526,25.8526,0,0,0,25.8526-25.84Z"/></svg>