<?xml version="1.0" encoding="utf-8"?>
<!-- Generator: Adobe Illustrator 23.0.6, SVG Export Plug-In . SVG Version: 6.00 Build 0)  -->
<svg version="1.1" id="Layer_1" xmlns="http://www.w3.org/2000/svg" xmlns:xlink="http://www.w3.org/1999/xlink" x="0px" y="0px"
	 viewBox="0 0 707.4 98" style="enable-background:new 0 0 707.4 98;" xml:space="preserve">
<style type="text/css">
	.st0{fill:none;stroke:#FFD100;stroke-width:5;stroke-miterlimit:10;}
</style>
<g>
	<polyline class="st0" points="2.1,84.5 58.1,13.5 36.1,84.5 92.1,13.5 70.1,84.5 126.1,13.5 104.1,84.5 160.1,13.5 138.1,84.5 
		194.1,13.5 172.1,84.5 228.1,13.5 206.1,84.5 262.1,13.5 240.1,84.5 296.1,13.5 274.1,84.5 330.1,13.5 308.1,84.5 364.1,13.5 
		342.1,84.5 398.1,13.5 376.1,84.5 432.1,13.5 410.1,84.5 466.1,13.5 444.1,84.5 500.1,13.5 478.1,84.5 534.1,13.5 512.1,84.5 
		568.1,13.5 546.1,84.5 602.1,13.5 580.1,84.5 636.1,13.5 614.1,84.5 670.1,13.5 648.1,84.5 704.1,13.5 	"/>
</g>
</svg>
