<svg id="Layer_1" data-name="Layer 1" xmlns="http://www.w3.org/2000/svg" width="2011.6111" height="251.6458" viewBox="0 0 2011.6111 251.6458"><defs><style>.cls-1,.cls-2{fill:#d8d8d8;}.cls-2{stroke:#d8d8d8;stroke-linejoin:round;stroke-width:3px;}</style></defs><title>alias_line_light-03-01</title><path class="cls-1" d="M1765.6779,126.8c-.1,63-52.2,115-115,114.8-65.2-.2-115.5-51.6-115.6-117.6-.1-58.5,50.4-116,121.4-113.1C1715.5778,13.3,1765.7779,64.5,1765.6779,126.8Zm-115.4-84.8c-46,.1-84,37.8-83.9,83.5,0,47.2,36.7,84.3,83.5,84.6a83.9751,83.9751,0,0,0,84.6-84.5C1734.2779,80.1,1695.7779,42,1650.2779,42Z" transform="translate(-3.5666 -0.5797)"/><path class="cls-1" d="M772.5779,84.6c28.6,20.4,35.8,40.8,25.1,74.4-10.8,34-32.2,59.7-64.1,76.1-14.8,7.6-30.4,9.5-46.7,4.6-2.1-.6-5.5-.7-7,.6-20.1,17.3-41.5,13.3-62.8,3.6-17.6-8-31.9-20.2-41.2-37.5a12.4853,12.4853,0,0,1-1.8-3.9c-3-18.3-11.4-35.4-14.8-53.1-6.6-34.7,4.7-66.4,29.8-91.7,5.8-5.8,15.3-7.9,23.1-11.9,2.8-1.5,6.8-2.6,8-5.1,13.7-26.2,37.4-36.1,64.6-39.3,24-2.8,46.8,1.4,67.2,15.2C776.2779,32.9,782.9779,55.2,772.5779,84.6Zm-97.4,105.5c-.9,26.8,17.3,41.1,42.4,31.8a92.082,92.082,0,0,0,29.2-17.4c21.6-19.5,37.2-43,37-73.6-.2-22-16.3-33.9-37.7-29C710.8779,109.9,676.4779,152.7,675.1779,190.1Zm22.1-171.8c-16,.7-31.3,3.6-44.9,12.7-25.4,17.2-25.2,45.6.4,62.6,12.6,8.4,27,11.9,41.6,11.8,22.5-.2,44.2-4.4,58.7-24.5,10.5-14.6,9.2-29.8-3.3-42.8C735.3779,23.3,716.7779,19.6,697.2779,18.3Zm-83,145.5c-21.8-.6-32,13.8-23.9,30.3,11.1,22.6,29.9,35.5,54.7,39.5,8.9,1.4,17.5-.1,23.1-7.9,5.5-7.6,3.7-16.1-.1-23.7C656.3779,178.4,636.2779,166.9,614.2779,163.8Zm16.6-73.8c-.2-2.9,0-5.8-.6-8.6-1.5-7-2.5-14.7-10.5-17.4-8.3-2.8-14.5,2-19.6,7.6-19,20.8-26.2,45.8-24.2,73.5.5,6.9,3.2,13.7,10.8,16.2s13.1-2.1,18.4-6.5a28.6091,28.6091,0,0,0,4-4.5A103.2,103.2,0,0,0,630.8779,90Zm51.5,33.6c-11.8-3.7-23.4-7.3-35.2-11-4.5,11.8-9.2,23.9-13.9,36.2,9.1,5,18.3,10.1,27.2,15Z" transform="translate(-3.5666 -0.5797)"/><path class="cls-1" d="M978.8779,126.2c68.4-14.5,108.9-55.5,123.4-123.6,14.7,68.4,55.3,109,123.7,123.7-68.1,14.5-109.1,54.9-123.5,123.6C1087.6779,181.9,1047.2779,140.7,978.8779,126.2Zm123.4-58.4c-14.3,24.8-33.5,43.8-58.5,58.6,25.5,14.3,44,33.8,58.7,58.1,14.4-25.2,33.7-43.9,58.2-58.4C1135.6779,111.8,1116.7779,92.7,1102.2779,67.8Z" transform="translate(-3.5666 -0.5797)"/><path class="cls-1" d="M1848.9779,159.7c6-6.5,10.7-11.8,15.7-16.8,36.3-36.2,72.4-72.6,109.2-108.4,7.4-7.2,16.8-12.9,26.1-17.7,3.9-2,10,.3,15.2.6-.5,4.5,0,9.4-1.6,13.4-7.6,18.6-22.4,31.6-36.1,45.4q-47.85,48.3-95.8,96.3c-2.7,2.7-5,5.9-8.1,9.6,4,1.4,6.7,2.2,9.2,3.3,6.5,2.9,10.1,7.6,8,15-2,7.2-6.8,10.4-14.2,9-5.6-1.1-11.4-1.9-16.7-3.8-7.7-2.8-14.1-1.8-19.2,4.7-4.3,5.6-8.9,11.1-12.2,17.3-4.1,7.5-10.1,11.1-19.8,10-7.8-1-13.9-6.9-15.4-15.1-1.6-9,1.4-16,8.5-19.7,2-1.1,4.3-1.7,6.3-2.8,15.8-8.4,19.1-15.6,15.3-32.7-1-4.7-1.6-9.6-2.4-14.4-1-5.7-1.2-11,6.4-12.5,9.4-1.9,15.4.3,17.9,7.2C1846.5778,150.9,1847.4779,154.5,1848.9779,159.7Z" transform="translate(-3.5666 -0.5797)"/><path class="cls-1" d="M924.7779,246.5c-14.7,1.4-14.7,1.4-19.4-11.3-4.8-12.9-10.2-25.6-14-38.7a36.0127,36.0127,0,0,1,0-19.8c4.3-14.5,10.6-28.4,15.3-42.8a25.3825,25.3825,0,0,0,.1-14.7c-4.2-13.3-9.4-26.4-15.1-41.8-5,13.3-9.2,24.7-13.5,36-5.5,14.5-2.3,13.7-19.8,12.7V7.1c14-2.9,14.4-2.7,19.2,10.2,4.3,11.7,8.7,23.4,14,37.6,5.1-13.8,9.4-25.4,13.6-37,4.8-13,4.7-13,19.6-11.2Q924.778,126.25,924.7779,246.5Z" transform="translate(-3.5666 -0.5797)"/><path class="cls-1" d="M1375.4779,167.1c27-.7,49.7,9.2,68.6,28.2,7,7.1,6.9,11.3.5,18.4-35.1,38.5-100.7,38.3-135.7-.4-6.8-7.5-6.8-9.8.1-17.4C1325.4779,177.4,1346.9779,168.1,1375.4779,167.1Zm25.4,25.9c-.8.7-1.5,1.5-2.3,2.2V218c6.6-5.3,11.6-9.4,16.6-13.4C1410.4779,200.7,1405.6779,196.8,1400.8779,193Zm-45.9,24V193.7c-6.7,3.2-12.1,5.8-19.7,9.4C1342.6779,208.2,1348.1779,212.1,1354.9779,217Z" transform="translate(-3.5666 -0.5797)"/><path class="cls-1" d="M1444.7779,58.9c-2.8,1.8-5.9,3.3-8.5,5.4-37.7,30.9-92.7,27.9-126.2-6.9-7.7-8.1-7.8-11.7-.3-19.5,34-35.3,90.4-38,127.5-6,13.5,11.7,13.7,12.1,7.2,27.4C1444.4779,59.2,1444.7779,58.9,1444.7779,58.9Zm-89.5-24.9c-6.8,5.6-11.9,9.9-17.1,14.1,5,3.3,10.1,6.6,15.2,9.8.3.2,1.1-.2,1.9-.4Zm42.9,1.9V59.5c5.4-3,10.1-5,14-8.1,1.4-1.1,1.8-6.2.7-7C1408.7779,41.2,1403.8779,39,1398.1779,35.9Z" transform="translate(-3.5666 -0.5797)"/><path class="cls-1" d="M1260.0779,133.6c0-36.4,11.2-58.7,31.2-76.9,5.6-5.1,10.3-3.2,15,1.2,15.7,14.6,24.7,32.6,28.3,53.6,5.5,32.2-4.8,59.1-27.5,81.8-7.5,7.5-10.9,7.2-18.7-.1C1268.4779,174.6,1260.1779,151.3,1260.0779,133.6Zm25,13.4c4.8,7.7,8.6,13.8,13.5,21.7,4.4-8.6,7.5-14.8,11-21.7Zm26.4-42.5c-5.4-6.5-9.4-11.3-13.4-16-4.1,4.8-8.2,9.7-13.6,16Z" transform="translate(-3.5666 -0.5797)"/><path class="cls-1" d="M1444.7779,58.9l-.3.3c11.2-8,13.5-7.8,22.9,2.6,34.6,38,34.4,92.7-.3,129.1-10.1,10.6-13.8,10.6-23.7.1-34-36.2-35-89.6-2.3-127.3C1442.3779,62.2,1443.4779,60.5,1444.7779,58.9Zm21.3,88.5h-20.8c-.7.6-1.4,1.3-2.1,1.9,3.8,5.1,7.5,14.4,11.4,14.5C1462.2779,164,1463.9779,155.1,1466.0778,147.4Zm-23.6-42.9h23c-1.9-7.5-3.7-16.3-11.5-16.2C1450.4779,88.3,1447.0778,97.7,1442.4779,104.5Z" transform="translate(-3.5666 -0.5797)"/><path class="cls-1" d="M360.4779,176.7c3.4-.2,6.2-.3,9.6-.5.2-3.6.3-6.9.6-11.4,3.3,2.8,5.8,4.9,8.6,7.3,13-7.7,26.4-14.8,42.5-10.5,3.5,15.6,1.4,19.8-13.1,26.2-4.8,2.1-9.8,3.9-14.2,6.6-3.3,2.1-5.7,5.5-7.3,7.2-6.6,2.1-12.6,3.6-18.2,5.9-10.1,4.2-20,8.9-31.2,13.9-.1,1.3-.3,4.3-.4,5.7-5.2,2.6-10.9,3.7-13.8,7.2-6.1,7.5-13.6,7.8-21.9,7.3-3.1-.2-6.2,0-10.7,0V214.7c0-11.8-.3-23.5.1-35.3.2-5.6-1-8.9-8.3-8,2.9-3.6,5.1-6.5,7.1-9-3-3.5-5.7-6.6-9-10.5,3.9-.9,6.3-1.4,10.2-2.3-3.5-4.1-6.4-7.3-9.7-11.1,3.1-.6,5.8-1,9.1-1.6.3-4.6.5-9,.8-14.1h22.4c4.6,6-4.6,16.7,8.4,19.3-1.4,1.9-2.6,3.6-4.5,6.3,2.5,1.6,5.1,3.3,8.1,5.3-3.1,2.7-5.1,4.4-7.5,6.4,1.9,2.4,3.7,4.5,6,7.4-3.1.4-5.5.7-8.2,1v32.2c.8.1,1.6.2,2.5.3.6-3,1.2-6,1.7-8.9,15.4,5.3,26.5-6.2,39.5-10.3C360.2779,181.8,360.1779,178.7,360.4779,176.7Z" transform="translate(-3.5666 -0.5797)"/><path class="cls-1" d="M392.8779,147V124.4c9-9.2,26.7-3.3,32.5-19.1,1.7,1.2,4.1,2.8,6.7,4.7,11.2-8.7-.6-17.9,1.7-26.7-3.4-.3-6.2-.6-7.4-.7.8-11,1.5-21.7,2.3-33.3,5,0,10.2-.9,15,.3,3,.7,5.4,4.4,7.7,7.1,2.8,3.2,5.3,6.8,7.7,9.9.6,8.8,1.1,18.4,1.8,28.6,10.5-3.9,23.2-1.8,27.1-13,9.8,1.1,19.4,2.3,30.3,3.5-.5,7.4-1.1,14.9-1.6,22.5-4.2.3-7,.6-10.3.8-.6,3.2-1.2,6.4-1.9,10.6-12.1-13.8-21.3.6-31.7,1.8,3.1,8.2,4.4,17.6,9.5,24.1,6.8,8.6,1.4,16.8,4.1,25.9-7.2,0-13.1.2-19-.1-5.6-.3-10.5-7.8-11-16.3-.4-7.5-7.9-19.2-14-21.2-.4,3.4-.7,6.6-1.3,11.8-8.6-13.1-17.4-3.1-25.9-2.3C407.9779,144,400.9779,145.6,392.8779,147Z" transform="translate(-3.5666 -0.5797)"/><path class="cls-1" d="M363.2779,114h-20.1c-1.4-5-2.7-10-4.1-15a13.6587,13.6587,0,0,0-1.5-3.7c-2.3-3.2-4.8-6.3-6.5-10.4-7.4-3.3-15.3-2.1-23.5.6-6.9,2.3-14.3,3-22.9,4.7,0-8.4-.2-14.6.2-20.8.1-1.6,2.1-3.6,3.7-4.4,7.2-3.7,14.9-6.6,21.9-10.6,2.8-1.5,4.4-5.1,6.7-7.9-10-10.3-6.5-22.6-6.8-35.2,8.4.1,17.2-3.5,23,4.7,4.1,5.7,6.6,12.4,11,21,9.9,4,22.4-.8,31.3-7.6,8.1-6.2,15.2-5.4,24.7-5.6,0,8.1,2.4,17.2-.8,23.5-2.4,4.9-11.5,6.9-18,9.5-6.6,2.7-14.1,3.6-20.2,7-5.6,3.2-2.6,9.8-2.1,14.9C360.4779,90.2,361.8779,101.6,363.2779,114Z" transform="translate(-3.5666 -0.5797)"/><path class="cls-1" d="M692.4779,191.2c.4-25.6,26.1-60.5,50.4-68.5,10.6-3.5,17-.1,16.6,10.9a84.5011,84.5011,0,0,1-6.6,28.8c-8.1,18.9-21.2,34-40.5,42.4C698.6779,210.8,692.1779,206.1,692.4779,191.2Z" transform="translate(-3.5666 -0.5797)"/><path class="cls-1" d="M684.8779,38.6c19.5.6,34.2,3.7,45.8,14.9,9.8,9.4,8.5,19-3.1,25.9-18.2,10.9-50,9.4-67.2-3.2-15.7-11.5-14.6-24.7,3.3-32.1C671.5779,40.9,680.1779,39.8,684.8779,38.6Z" transform="translate(-3.5666 -0.5797)"/><path class="cls-1" d="M643.8779,218.1c-16.3-2.9-31.6-11.3-40.9-28.4-3.9-7.2-1.5-10.6,6.8-11,14.6-.6,39.8,17.1,44.2,31.1C655.8779,215.9,653.7779,218.2,643.8779,218.1Z" transform="translate(-3.5666 -0.5797)"/><path class="cls-1" d="M590.4779,145.7c-6.6-20.1,6.7-57.4,22.4-63.7C621.3779,97.1,606.8779,139.5,590.4779,145.7Z" transform="translate(-3.5666 -0.5797)"/><path class="cls-2" d="M125.36,8.4111,137.637,99.02,210.3734,43.69,155.2,116.4267l90.4531,12.433L155.2,141.1371l55.1739,72.735L137.637,158.544,125.36,249.1527,113.0822,158.544,40.3458,213.8721,95.52,141.1371,5.0666,128.86,95.52,116.4267,40.3458,43.69,113.0822,99.02Z" transform="translate(-3.5666 -0.5797)"/></svg>