<svg id="Layer_1" data-name="Layer 1" xmlns="http://www.w3.org/2000/svg" width="2011.6111" height="251.6458" viewBox="0 0 2011.6111 251.6458"><defs><style>.cls-1,.cls-2{fill:#222;}.cls-2{stroke:#222;stroke-linejoin:round;stroke-width:3px;}</style></defs><title>aliases_black</title><path class="cls-1" d="M1762.1113,126.22c-.1,63-52.2,115-115,114.8-65.2-.2-115.5-51.6-115.6-117.6-.1-58.5,50.4-116,121.4-113.1C1712.0112,12.72,1762.2114,63.92,1762.1113,126.22Zm-115.4-84.8c-46,.1-84,37.8-83.9,83.5,0,47.2,36.7,84.3,83.5,84.6a83.9751,83.9751,0,0,0,84.5993-83.3462q.0043-.5769.0007-1.1538c-.2-45.5-38.7-83.6-84.2-83.6Z" transform="translate(0 0)"/><path class="cls-1" d="M769.0113,84.02c28.6,20.4,35.8,40.8,25.1,74.4-10.8,34-32.2,59.7-64.1,76.1-14.8,7.6-30.4,9.5-46.7,4.6-2.1-.6-5.5-.7-7,.6-20.1,17.3-41.5,13.3-62.8,3.6-17.6-8-31.9-20.2-41.2-37.5a12.4839,12.4839,0,0,1-1.8-3.9c-3-18.3-11.4-35.4-14.8-53.1-6.6-34.7,4.7-66.4,29.8-91.7,5.8-5.8,15.3-7.9,23.1-11.9,2.8-1.5,6.8-2.6,8-5.1,13.7-26.2,37.4-36.1,64.6-39.3,24-2.8,46.8,1.4,67.2,15.2C772.7113,32.32,779.4113,54.62,769.0113,84.02Zm-97.4,105.5c-.9,26.8,17.3,41.1,42.4,31.8a92.0827,92.0827,0,0,0,29.2-17.4c21.6-19.5,37.2-43,37-73.6-.2-22-16.3-33.9-37.7-29-35.2,8-69.6,50.8-70.9,88.2Zm22.1-171.8c-16,.7-31.3,3.6-44.9,12.7-25.4,17.2-25.2,45.6.4,62.6,12.6,8.4,27,11.9,41.6,11.8,22.5-.2,44.2-4.4,58.7-24.5,10.5-14.6,9.2-29.8-3.3-42.8-14.4-14.8-33-18.5-52.5-19.8Zm-83,145.5c-21.8-.6-32,13.8-23.9,30.3,11.1,22.6,29.9,35.5,54.7,39.5,8.9,1.4,17.5-.1,23.1-7.9,5.5-7.6,3.7-16.1-.1-23.7-11.7-23.6-31.8-35.1-53.8-38.2Zm16.6-73.8c-.2-2.9,0-5.8-.6-8.6-1.5-7-2.5-14.7-10.5-17.4-8.3-2.8-14.5,2-19.6,7.6-19,20.8-26.2,45.8-24.2,73.5.5,6.9,3.2,13.7,10.8,16.2s13.1-2.1,18.4-6.5a28.611,28.611,0,0,0,4-4.5,103.2,103.2,0,0,0,21.7-60.3Zm51.5,33.6c-11.8-3.7-23.4-7.3-35.2-11-4.5,11.8-9.2,23.9-13.9,36.2,9.1,5,18.3,10.1,27.2,15Z" transform="translate(0 0)"/><path class="cls-1" d="M975.3113,125.62c68.4-14.5,108.9-55.5,123.4-123.6,14.7,68.4,55.3,109,123.7,123.7-68.1,14.5-109.1,54.9-123.5,123.6C1084.1113,181.32,1043.7114,140.12,975.3113,125.62Zm123.4-58.4c-14.3,24.8-33.5,43.8-58.5,58.6,25.5,14.3,44,33.8,58.7,58.1,14.4-25.2,33.7-43.9,58.2-58.4C1132.1113,111.22,1113.2114,92.12,1098.7114,67.22Z" transform="translate(0 0)"/><path class="cls-1" d="M1845.4113,159.12c6-6.5,10.7-11.8,15.7-16.8,36.3-36.2,72.4-72.6,109.2-108.4,7.4-7.2,16.8-12.9,26.1-17.7,3.9-2,10,.3,15.2.6-.5,4.5,0,9.4-1.6,13.4-7.6,18.6-22.4,31.6-36.1,45.4q-47.85,48.3-95.8,96.3c-2.7,2.7-5,5.9-8.1,9.6,4,1.4,6.7,2.2,9.2,3.3,6.5,2.9,10.1,7.6,8,15-2,7.2-6.8,10.4-14.2,9-5.6-1.1-11.4-1.9-16.7-3.8-7.7-2.8-14.1-1.8-19.2,4.7-4.3,5.6-8.9,11.1-12.2,17.3-4.1,7.5-10.1,11.1-19.8,10-7.8-1-13.9-6.9-15.4-15.1-1.6-9,1.4-16,8.5-19.7,2-1.1,4.3-1.7,6.3-2.8,15.8-8.4,19.1-15.6,15.3-32.7-1-4.7-1.6-9.6-2.4-14.4-1-5.7-1.2-11,6.4-12.5,9.4-1.9,15.4.3,17.9,7.2C1843.0112,150.32,1843.9113,153.92,1845.4113,159.12Z" transform="translate(0 0)"/><path class="cls-1" d="M921.2113,245.92c-14.7,1.4-14.7,1.4-19.4-11.3-4.8-12.9-10.2-25.6-14-38.7a36.0127,36.0127,0,0,1,0-19.8c4.3-14.5,10.6-28.4,15.3-42.8a25.3814,25.3814,0,0,0,.1-14.7c-4.2-13.3-9.4-26.4-15.1-41.8-5,13.3-9.2,24.7-13.5,36-5.5,14.5-2.3,13.7-19.8,12.7V6.52c14-2.9,14.4-2.7,19.2,10.2,4.3,11.7,8.7,23.4,14,37.6,5.1-13.8,9.4-25.4,13.6-37,4.8-13,4.7-13,19.6-11.2Q921.2115,125.67,921.2113,245.92Z" transform="translate(0 0)"/><path class="cls-1" d="M1371.9113,166.52c27-.7,49.7,9.2,68.6,28.2,7,7.1,6.9,11.3.5,18.4-35.1,38.5-100.7,38.3-135.7-.4-6.8-7.5-6.8-9.8.1-17.4C1321.9113,176.82,1343.4113,167.52,1371.9113,166.52Zm25.4,25.9c-.8.7-1.5,1.5-2.3,2.2v22.8c6.6-5.3,11.6-9.4,16.6-13.4C1406.9113,200.12,1402.1113,196.22,1397.3113,192.42Zm-45.9,24v-23.3c-6.7,3.2-12.1,5.8-19.7,9.4C1339.1113,207.62,1344.6113,211.52,1351.4113,216.42Z" transform="translate(0 0)"/><path class="cls-1" d="M1441.2114,58.32c-2.8,1.8-5.9,3.3-8.5,5.4-37.7,30.9-92.7,27.9-126.2-6.9-7.7-8.1-7.8-11.7-.3-19.5,34-35.3,90.4-38,127.5-6,13.5,11.7,13.7,12.1,7.2,27.4C1440.9113,58.62,1441.2114,58.32,1441.2114,58.32Zm-89.5-24.9c-6.8,5.6-11.9,9.9-17.1,14.1,5,3.3,10.1,6.6,15.2,9.8.3.2,1.1-.2,1.9-.4Zm42.9,1.9v23.6c5.4-3,10.1-5,14-8.1,1.4-1.1,1.8-6.2.7-7-4.1-3.2-9-5.4-14.7-8.5Z" transform="translate(0 0)"/><path class="cls-1" d="M1256.5113,133.02c0-36.4,11.2-58.7,31.2-76.9,5.6-5.1,10.3-3.2,15,1.2,15.7,14.6,24.7,32.6,28.3,53.6,5.5,32.2-4.8,59.1-27.5,81.8-7.5,7.5-10.9,7.2-18.7-.1C1264.9113,174.02,1256.6113,150.72,1256.5113,133.02Zm25,13.4c4.8,7.7,8.6,13.8,13.5,21.7,4.4-8.6,7.5-14.8,11-21.7Zm26.4-42.5c-5.4-6.5-9.4-11.3-13.4-16-4.1,4.8-8.2,9.7-13.6,16Z" transform="translate(0 0)"/><path class="cls-1" d="M1441.2114,58.32l-.3.3c11.2-8,13.5-7.8,22.9,2.6,34.6,38,34.4,92.7-.3,129.1-10.1,10.6-13.8,10.6-23.7.1-34-36.2-35-89.6-2.3-127.3C1438.8113,61.62,1439.9113,59.92,1441.2114,58.32Zm21.3,88.5h-20.8c-.7.6-1.4,1.3-2.1,1.9,3.8,5.1,7.5,14.4,11.4,14.5,7.7.2,9.4-8.7,11.5-16.4Zm-23.6-42.9h23c-1.9-7.5-3.7-16.3-11.5-16.2-3.5,0-6.9,9.4-11.5,16.2Z" transform="translate(0 0)"/><path class="cls-1" d="M356.9113,176.12c3.4-.2,6.2-.3,9.6-.5.2-3.6.3-6.9.6-11.4,3.3,2.8,5.8,4.9,8.6,7.3,13-7.7,26.4-14.8,42.5-10.5,3.5,15.6,1.4,19.8-13.1,26.2-4.8,2.1-9.8,3.9-14.2,6.6-3.3,2.1-5.7,5.5-7.3,7.2-6.6,2.1-12.6,3.6-18.2,5.9-10.1,4.2-20,8.9-31.2,13.9-.1,1.3-.3,4.3-.4,5.7-5.2,2.6-10.9,3.7-13.8,7.2-6.1,7.5-13.6,7.8-21.9,7.3-3.1-.2-6.2,0-10.7,0v-26.9c0-11.8-.3-23.5.1-35.3.2-5.6-1-8.9-8.3-8,2.9-3.6,5.1-6.5,7.1-9-3-3.5-5.7-6.6-9-10.5,3.9-.9,6.3-1.4,10.2-2.3-3.5-4.1-6.4-7.3-9.7-11.1,3.1-.6,5.8-1,9.1-1.6.3-4.6.5-9,.8-14.1h22.4c4.6,6-4.6,16.7,8.4,19.3-1.4,1.9-2.6,3.6-4.5,6.3,2.5,1.6,5.1,3.3,8.1,5.3-3.1,2.7-5.1,4.4-7.5,6.4,1.9,2.4,3.7,4.5,6,7.4-3.1.4-5.5.7-8.2,1v32.2c.8.1,1.6.2,2.5.3.6-3,1.2-6,1.7-8.9,15.4,5.3,26.5-6.2,39.5-10.3C356.7113,181.22,356.6113,178.12,356.9113,176.12Z" transform="translate(0 0)"/><path class="cls-1" d="M389.3113,146.42v-22.6c9-9.2,26.7-3.3,32.5-19.1,1.7,1.2,4.1,2.8,6.7,4.7,11.2-8.7-.6-17.9,1.7-26.7-3.4-.3-6.2-.6-7.4-.7.8-11,1.5-21.7,2.3-33.3,5,0,10.2-.9,15,.3,3,.7,5.4,4.4,7.7,7.1,2.8,3.2,5.3,6.8,7.7,9.9.6,8.8,1.1,18.4,1.8,28.6,10.5-3.9,23.2-1.8,27.1-13,9.8,1.1,19.4,2.3,30.3,3.5-.5,7.4-1.1,14.9-1.6,22.5-4.2.3-7,.6-10.3.8-.6,3.2-1.2,6.4-1.9,10.6-12.1-13.8-21.3.6-31.7,1.8,3.1,8.2,4.4,17.6,9.5,24.1,6.8,8.6,1.4,16.8,4.1,25.9-7.2,0-13.1.2-19-.1-5.6-.3-10.5-7.8-11-16.3-.4-7.5-7.9-19.2-14-21.2-.4,3.4-.7,6.6-1.3,11.8-8.6-13.1-17.4-3.1-25.9-2.3C404.4113,143.42,397.4113,145.02,389.3113,146.42Z" transform="translate(0 0)"/><path class="cls-1" d="M359.7113,113.42h-20.1c-1.4-5-2.7-10-4.1-15a13.661,13.661,0,0,0-1.5-3.7c-2.3-3.2-4.8-6.3-6.5-10.4-7.4-3.3-15.3-2.1-23.5.6-6.9,2.3-14.3,3-22.9,4.7,0-8.4-.2-14.6.2-20.8.1-1.6,2.1-3.6,3.7-4.4,7.2-3.7,14.9-6.6,21.9-10.6,2.8-1.5,4.4-5.1,6.7-7.9-10-10.3-6.5-22.6-6.8-35.2,8.4.1,17.2-3.5,23,4.7,4.1,5.7,6.6,12.4,11,21,9.9,4,22.4-.8,31.3-7.6,8.1-6.2,15.2-5.4,24.7-5.6,0,8.1,2.4,17.2-.8,23.5-2.4,4.9-11.5,6.9-18,9.5-6.6,2.7-14.1,3.6-20.2,7-5.6,3.2-2.6,9.8-2.1,14.9C356.9113,89.62,358.3113,101.02,359.7113,113.42Z" transform="translate(0 0)"/><path class="cls-1" d="M688.9113,190.62c.4-25.6,26.1-60.5,50.4-68.5,10.6-3.5,17-.1,16.6,10.9a84.4983,84.4983,0,0,1-6.6,28.8c-8.1,18.9-21.2,34-40.5,42.4C695.1113,210.22,688.6113,205.52,688.9113,190.62Z" transform="translate(0 0)"/><path class="cls-1" d="M681.3113,38.02c19.5.6,34.2,3.7,45.8,14.9,9.8,9.4,8.5,19-3.1,25.9-18.2,10.9-50,9.4-67.2-3.2-15.7-11.5-14.6-24.7,3.3-32.1C668.0113,40.32,676.6113,39.22,681.3113,38.02Z" transform="translate(0 0)"/><path class="cls-1" d="M640.3113,217.52c-16.3-2.9-31.6-11.3-40.9-28.4-3.9-7.2-1.5-10.6,6.8-11,14.6-.6,39.8,17.1,44.2,31.1C652.3113,215.32,650.2113,217.62,640.3113,217.52Z" transform="translate(0 0)"/><path class="cls-1" d="M586.9113,145.12c-6.6-20.1,6.7-57.4,22.4-63.7C617.8113,96.52,603.3113,138.92,586.9113,145.12Z" transform="translate(0 0)"/><path class="cls-2" d="M121.7934,7.8314,134.07,98.44l72.7364-55.33L151.6334,115.847l90.4531,12.433-90.4531,12.2774,55.1739,72.735L134.07,157.9643l-12.277,90.6087-12.2778-90.6087L36.7792,213.2924l55.1742-72.735L1.5,128.28,91.9534,115.847,36.7792,43.11l72.7364,55.33Z" transform="translate(0 0)"/></svg>