<svg id="a5a157cb-83fa-494f-bf1a-55511ffc0563" data-name="Layer 1" xmlns="http://www.w3.org/2000/svg" width="2406.4211" height="586.4105" viewBox="0 0 2406.4211 586.4105"><defs><style>.ad9396aa-34e8-4b53-913e-3f1d86880509{fill:#9682ff;}.b9f985d8-a156-4096-af6e-8a661133e184{fill:#e0e0e0;}</style></defs><title>anaquel_logo_v2_long</title><rect class="ad9396aa-34e8-4b53-913e-3f1d86880509" x="64.1358" y="30.9217" width="202.6866" height="63.175"/><rect class="ad9396aa-34e8-4b53-913e-3f1d86880509" x="64.1358" y="194.1239" width="202.6866" height="63.175"/><path class="ad9396aa-34e8-4b53-913e-3f1d86880509" d="M267.7272,484.5842h63.175V0h-63.175V21.0068l-.0241.0388a42.1492,42.1492,0,0,1,41.9437,42.1486h0a42.1492,42.1492,0,0,1-42.149,42.149h.2294v78.6635l-.0241.0388a42.1492,42.1492,0,0,1,41.9437,42.1486h0a42.1492,42.1492,0,0,1-42.149,42.149h.2294Z"/><path class="ad9396aa-34e8-4b53-913e-3f1d86880509" d="M64.167,484.5842H0V0H64.167V21.0068l.0244.0388c-23.5621.1131-42.6022,18.95-42.6022,42.1486h0c0,23.2782,19.167,42.149,42.8108,42.149h-.233v78.6635l.0244.0388c-23.5621.1131-42.6022,18.9505-42.6022,42.1486h0c0,23.2782,19.167,42.149,42.8108,42.149h-.233Z"/><path class="b9f985d8-a156-4096-af6e-8a661133e184" d="M622.8242,484.584H543.5879L664.3213,134.85H759.61L880.1729,484.584H800.9365L713.332,214.77H710.6Zm-4.9521-137.4688H805.0342v57.72H617.8721Z"/><path class="b9f985d8-a156-4096-af6e-8a661133e184" d="M983.9434,332.9414V484.584H911.1953V222.2832h69.332v46.2783h3.0743a73.6383,73.6383,0,0,1,29.2011-36.2881q20.4932-13.4033,49.6944-13.4052,27.3193,0,47.6435,11.9541,20.32,11.9545,31.5928,34.0683,11.2705,22.1163,11.27,52.6817V484.584h-72.7471V330.5508q.1671-24.0792-12.2959-37.6543-12.4673-13.5762-34.3242-13.5762-14.688,0-25.8711,6.3184a43.4447,43.4447,0,0,0-17.4189,18.3574Q984.1109,316.0357,983.9434,332.9414Z"/><path class="b9f985d8-a156-4096-af6e-8a661133e184" d="M1275.3857,489.5361q-25.103,0-44.7412-8.7949a70.692,70.692,0,0,1-30.9941-26.1269q-11.36-17.3307-11.3565-43.29,0-21.8569,8.0264-36.7148a64.9888,64.9888,0,0,1,21.8584-23.9082,105.94,105.94,0,0,1,31.5068-13.6612,237.3565,237.3565,0,0,1,37.1416-6.4892q22.8824-2.3892,36.8858-4.5254,14.001-2.1328,20.3223-6.4043,6.3148-4.2657,6.3183-12.6367V305.96q0-16.2217-10.1611-25.1026-10.1616-8.8784-28.7744-8.88-19.6392,0-31.251,8.6231a40.4705,40.4705,0,0,0-15.3691,21.6025l-67.2823-5.4648a92.0169,92.0169,0,0,1,20.15-41.4112q15.0249-17.5019,38.85-26.9814,23.8229-9.4776,55.2442-9.4775a168.8677,168.8677,0,0,1,41.9238,5.123,110.5349,110.5349,0,0,1,35.69,15.8818,77.712,77.712,0,0,1,24.6758,27.5791q9.05,16.8209,9.0508,40.2159V484.584h-68.99V448.21h-2.05a72.9582,72.9582,0,0,1-16.9052,21.6025,76.2325,76.2325,0,0,1-25.4453,14.5156Q1294.8535,489.5342,1275.3857,489.5361Zm20.834-50.206q16.0488,0,28.3477-6.4033a49.5887,49.5887,0,0,0,19.2969-17.333,44.9131,44.9131,0,0,0,7.0009-24.7618V362.9971a37.1974,37.1974,0,0,1-9.3066,4.0127q-5.8916,1.793-13.2344,3.2451-7.3448,1.4517-14.6865,2.5615-7.3433,1.1118-13.3193,1.9639a90.05,90.05,0,0,0-22.3711,5.9765,36.0819,36.0819,0,0,0-14.8565,11.0147q-5.2954,6.9155-5.2939,17.1621,0,14.8564,10.8437,22.6269Q1279.4834,439.3331,1296.22,439.33Z"/><path class="b9f985d8-a156-4096-af6e-8a661133e184" d="M1715.91,582.9463H1643.333V442.5752h-2.22a93.4523,93.4523,0,0,1-14.43,21.6016,72.7155,72.7155,0,0,1-24.0781,17.6748q-14.773,7-35.9473,7.0019-29.8857,0-54.0478-15.4551-24.1671-15.4525-38.253-45.5947Q1460.27,397.666,1460.27,353.7754q0-45.0835,14.5157-75.0527,14.5122-29.9707,38.6787-44.9122a98.8786,98.8786,0,0,1,53.0234-14.9423q22.03,0,36.8008,7.4287a73.2748,73.2748,0,0,1,23.9072,18.4424,96.5359,96.5359,0,0,1,13.918,21.6025h3.0742V222.2832H1715.91Zm-71.04-229.5127q0-23.3936-6.4892-40.6426-6.4923-17.247-18.7842-26.64-12.296-9.39-29.8848-9.3926-17.9311,0-30.2256,9.7334t-18.6142,26.9814q-6.3193,17.25-6.3184,39.96,0,22.8852,6.4043,40.3867,6.4029,17.5063,18.6133,27.3233,12.208,9.8217,30.1406,9.8193,17.5869,0,29.7988-9.6484,12.208-9.6461,18.7852-27.0674Q1644.8672,376.8287,1644.87,353.4336Z"/><path class="b9f985d8-a156-4096-af6e-8a661133e184" d="M1932.7256,372.9014V222.2832h72.748V484.584h-69.8447V436.94h-2.7324a77.6154,77.6154,0,0,1-29.457,37.0566q-20.581,14.0054-50.1211,14.0029-26.3,0-46.2784-11.9531t-31.165-33.9834q-11.187-22.0282-11.3564-52.7676V222.2832h72.748V376.3164q.167,23.2266,12.4658,36.7158,12.2959,13.4913,32.958,13.49a51.7242,51.7242,0,0,0,24.5909-6.0625,46.8874,46.8874,0,0,0,18.5283-18.0157Q1932.8935,390.4928,1932.7256,372.9014Z"/><path class="b9f985d8-a156-4096-af6e-8a661133e184" d="M2173.45,489.707q-40.4721,0-69.5879-16.4795a111.4514,111.4514,0,0,1-44.8271-46.79q-15.7134-30.31-15.71-71.8086,0-40.4721,15.71-71.0391t44.3144-47.6445q28.6011-17.0742,67.1983-17.0771A138.8542,138.8542,0,0,1,2218.96,227.15a109.1933,109.1933,0,0,1,39.2773,24.8467q16.8179,16.5659,26.2129,41.582,9.39,25.02,9.3926,58.4883v19.9805H2072.3555V326.9648h153.0088q0-15.71-6.8311-27.8359a49.7087,49.7087,0,0,0-18.87-19.04q-12.0381-6.9171-27.92-6.916-16.566,0-29.2871,7.5986a54.5191,54.5191,0,0,0-19.8946,20.3213,57.8632,57.8632,0,0,0-7.3427,28.2627v42.8633q0,19.4663,7.2568,33.6406a51.9381,51.9381,0,0,0,20.5781,21.8584q13.32,7.6845,31.5918,7.6845a68.773,68.773,0,0,0,22.2-3.415,46.0729,46.0729,0,0,0,17.2481-10.2461,44.5487,44.5487,0,0,0,10.9287-16.7353l67.2832,4.44a91.7349,91.7349,0,0,1-20.919,42.2646q-15.7983,18.019-40.6435,28.0059Q2205.8965,489.7071,2173.45,489.707Z"/><path class="b9f985d8-a156-4096-af6e-8a661133e184" d="M2404.4463,134.85V484.584h-72.7481V134.85Z"/></svg>