<svg id="Layer_1" data-name="Layer 1" xmlns="http://www.w3.org/2000/svg" width="419.6368" height="84.9193" viewBox="0 0 419.6368 84.9193"><defs><style>.cls-1{fill:#ff88a4;}.cls-2{fill:#ff6f5b;}.cls-3{fill:#ffa9a4;}</style></defs><title>antillia-ui</title><path class="cls-1" d="M34.8479,77.92c-4.7725.9021-9.65,1.2794-14.4039,2.2723a30.3641,30.3641,0,0,1-11.1311.049A9.5652,9.5652,0,0,1,2.55,75.396a16.8578,16.8578,0,0,1-2.3437-10.26,10.5882,10.5882,0,0,1,10.9951-9.8687,39.1823,39.1823,0,0,1,6.39,1.0956c1.946.423,3.84,1.0854,5.786,1.5089,4.9469,1.0767,6.1764.2662,7.145-4.7884.686-3.58,1.2339-7.186,1.8348-10.7818q1.9312-11.556,3.8552-23.113c.0713-.427.1832-.8477.2447-1.2758a5.6191,5.6191,0,0,0-2.2187-5.742c-1.8223-1.3821-3.3815-2.9844-3.5093-5.5233a5.1962,5.1962,0,0,1,3.52-5.45c1.9294-.6132,4.0142-.98,5.8784-.0748,4.0706,1.9761,8.3766,2.0453,12.73,2.0153a11.221,11.221,0,0,1,1.5492.1057,4.6473,4.6473,0,0,1,4.0978,3.5059,4.7143,4.7143,0,0,1-1.9136,5.2788,29.0382,29.0382,0,0,1-3.1251,1.8738c-3.2182,1.7857-3.6018,2.6622-1.973,6.0245,3.3675,6.9515,6.8748,13.8351,10.283,20.7671,1.3,2.6445,2.6357,5.2879,3.6882,8.034,1.4492,3.7811,3.7275,6.1892,8.0629,6.0964a17.8571,17.8571,0,0,1,3.6162.429,9.4376,9.4376,0,0,1,7.6706,9.4829c-.3154,5.6657-2.9975,10.1533-9.1394,11.8594a21.6978,21.6978,0,0,1-11.8206-.1285c-4.4314-1.2169-6.5648-4.5835-7.4745-8.8612-.18-.8459-.1591-1.7324-.2873-2.5917-.5478-3.6713.5728-6.4123,4.05-8.1775,2.39-1.2131,2.8062-2.4609,1.8043-4.9415-1.2979-3.2131-2.6668-6.4155-4.2731-9.4821-2.5769-4.92-5.4054-9.7076-8.06-14.5879-.91-1.6738-1.5831-3.4754-2.43-5.1859a20.4385,20.4385,0,0,0-2.0412-3.6059c-1.22-1.5543-2.8322-1.4367-3.77.3073a15.5032,15.5032,0,0,0-1.5736,4.3882c-.8882,4.6888-1.6235,9.4069-2.3935,14.1176-.7561,4.6262-1.4831,9.2571-2.22,13.8864-.1228.7708-.2818,1.54-.3392,2.3162-.1665,2.2514.5968,3.1831,2.85,3.504.773.11,1.5556.1617,2.3356.212a6.5394,6.5394,0,0,1,5.3232,3.2726,14.3089,14.3089,0,0,1,2.15,8.1972,7.6389,7.6389,0,0,1-5.5516,7.14C39.6388,77.07,37.22,77.417,34.8479,77.92,34.8176,77.7676,34.8782,78.0716,34.8479,77.92Z"/><path class="cls-2" d="M354.8309,78.7871c-1.5352.0744-3.0748.2612-4.6048.2016-4.122-.16-6.8624-3.1114-6.6428-6.9846a6.9781,6.9781,0,0,1,2.5552-4.6189c2.6077-2.5416,2.7467-3.2407.9853-6.3q-4.1219-7.16-8.3158-14.2774c-.7656-1.2925-1.5227-3.0413-3.298-2.77-1.5836.2421-1.773,2.0612-2.3769,3.3622-1.2888,2.7764-2.694,5.4992-4.0772,8.231-.4479.8847-1.0307,1.7026-1.457,2.5964-1.3854,2.9046-.92,4.2623,1.897,5.6986.7237.3692,1.4964.6556,2.1822,1.0832a12.4178,12.4178,0,0,1,6.1851,9.3749c.48,4.1462-1.7473,6.9878-5.896,7.6429a79.4742,79.4742,0,0,1-18.6215.8931c-5.3117-.4154-9.3828-3.1788-11.3508-8.0406-2.2965-5.6732-.9361-12.3944,6.81-14.0557a25.7416,25.7416,0,0,1,8.6077-.2078A4.8009,4.8009,0,0,0,322.686,57.76q1.6161-2.9736,3.3829-5.8649a31.1394,31.1394,0,0,0,3.8234-9.7942c.6336-2.9494-.2989-4.0041-3.3491-3.9824-2.2554.0162-4.517.1154-6.7641-.0195a11.1991,11.1991,0,0,1-3.9219-.8755,4.6078,4.6078,0,0,1-1.513-7.4654,7.1585,7.1585,0,0,1,4.713-2.4146,20.3438,20.3438,0,0,1,2.7075-.1418,20.6012,20.6012,0,0,0,8.6727-1.8354,16.3513,16.3513,0,0,1,8.4822-1.2381c4.3017.44,6.2185,5.4509,4.9508,8.05a8.5863,8.5863,0,0,1-2.1461,2.6762c-2.3177,1.9661-2.655,3.0946-1.1953,5.8147,1.0239,1.9077,2.2122,3.7266,3.307,5.597q3.0109,5.1442,5.9979,10.3026c.4992.8584.9483,1.7494,1.4961,2.5753,2.1438,3.2324,3.3326,3.499,6.6668,1.6011a12.8285,12.8285,0,0,1,2.1865-1.0674c3.423-1.1563,6.0076-.0109,7.5543,3.2875a10.8927,10.8927,0,0,1-9.3831,15.675c-1.1734.0691-2.3482.1156-3.5224.1725Z"/><path class="cls-1" d="M99.46,45.9156c.06,1.1871.0266,2.3875.1968,3.5585.4564,3.1407,2.4657,5.284,4.965,6.9142,3.64,2.3742,4.7449,6.0489,3.4887,10.8789-.9953,3.8267-4.9033,6.1828-9.4229,5.8963C95,72.93,92.3692,70.4942,91.7223,66.5741a7.5317,7.5317,0,0,1,1.1794-5.5157c2.1886-3.1972,2.184-6.6223,1.7435-10.2492-.3633-2.99-.394-6.0213-.5767-9.034a14.062,14.062,0,0,0-.1783-2.1843c-.3766-1.6975-1.3382-2.2933-3.0259-1.742-1.3817.4513-2.6812,1.15-4.0287,1.7113a9.6154,9.6154,0,0,1-9.8674-1.1092,7.3862,7.3862,0,0,1-3.1453-8.6c1.1-3.9907,3.834-6.3311,7.6972-7.4574,1.9281-.5621,3.8855-1.0257,5.8362-1.507a8.9584,8.9584,0,0,0,6.2267-4.9235A23.8326,23.8326,0,0,1,95.8935,12.24a7.0015,7.0015,0,0,1,4.4613-2.9471,4.6662,4.6662,0,0,1,5.659,4.1775c.5091,3.5364-.6872,6.6738-2.275,9.7072-.592,1.1309-1.3609,2.1682-1.975,3.2888-1.4172,2.5858-.4693,4.4314,2.4986,4.347a73.6524,73.6524,0,0,0,8.97-1.0213,11.5048,11.5048,0,0,1,13.2734,8.6659A98.631,98.631,0,0,1,128.095,48.44c.2169,1.627.2114,3.2856.2708,4.9312a12.2358,12.2358,0,0,0,4.97,9.6389c1.5859,1.2353,3.15,2.5035,4.6626,3.8263a9.5233,9.5233,0,0,1,1.7922,2.0576,5.3029,5.3029,0,0,1-3.6427,8.3734,7.726,7.726,0,0,1-6.6768-1.7827c-2.8913-2.5192-5.6923-5.1579-8.3624-7.91a6.7417,6.7417,0,0,1-.9873-8.1218,3.9163,3.9163,0,0,1,.4084-.713c3.2425-3.9408,2.8783-8.4661,2.1164-13.0511-.3137-1.8879-.5351-3.8048-1.0324-5.6454-.9278-3.4345-3.3727-5.29-6.8723-5.06-4.098.2693-8.1863.74-12.2641,1.2417-1.8614.2293-2.8072,1.3888-2.9559,3.4054-.1541,2.089-.1634,4.1886-.236,6.2835Z"/><path class="cls-1" d="M378.487,40.4931q.0245-.6036.049-1.207c.1531-3.7282-.4081-4.597-3.9537-5.6446-1.99-.588-3.8258-1.3375-4.8012-3.3113-2.789-5.644-.1258-12.5393,7.3772-13.1384a13.9282,13.9282,0,0,1,7.875,1.6753,22.6048,22.6048,0,0,0,12.1942,2.5872,37.2919,37.2919,0,0,1,10.1175,1.0509c5.36,1.3,8.2772,6.4034,7.2549,11.85a6.4132,6.4132,0,0,1-3.8057,4.7545c-3.867,1.8519-7.8119,1.5837-11.7447.2859-2.9587-.9764-5.8751-2.08-8.8147-3.1151a14.86,14.86,0,0,0-2.3008-.71c-1.9131-.3378-3.3216.2382-3.787,2.0995a14.2615,14.2615,0,0,0-.3521,5.88c.5887,3.1681,3.0221,4.7175,6.2738,4.2371,2.6753-.3954,5.277-1.2792,7.95-1.7006a52.5294,52.5294,0,0,1,9.5356-1.0021c6.2525.1754,10.4891,5.0927,10.4389,11.3282A16.5542,16.5542,0,0,1,415.58,64.695c-2.0129,3.5123-1.82,4.4457,1.1429,7.3034,2.585,2.4928,3.2047,4.724,1.92,6.91a5.8245,5.8245,0,0,1-6.9309,2.2453,26.1545,26.1545,0,0,1-6.5335-2.9974,23.7979,23.7979,0,0,0-18.431-3.5828c-1.0832.2053-2.1863.32-3.285.4278-4.75.4649-8.2394-1.9463-9.167-6.314a8.4986,8.4986,0,0,1,5.5321-10.1085,13.2014,13.2014,0,0,1,8.0283-.1828c4.82,1.3964,9.73,2.5767,14.16,5.075.2617.1475.5493.249.8243.3731,2.5023,1.1292,5.055,1.874,7.2217-.5114,2.3469-2.5839,3.6486-5.588,2.4045-9.13a5.4318,5.4318,0,0,0-5.2114-3.9355,52.1621,52.1621,0,0,0-8.3421.8339c-2.7731.4374-5.4826,1.3-8.2606,1.68-7.48,1.0217-12.4613-3.5458-12.2662-11.0843.0105-.402.0318-.8037.0481-1.2055Z"/><path class="cls-2" d="M150.3805,36.7407c0-3.8338-.0248-7.668.0172-11.5014.0107-.9738.2758-1.9421.3515-2.9185.1938-2.4978-.9515-3.9528-3.4323-4.2782-1.4657-.1923-2.9512-.23-4.4261-.3571a12.6835,12.6835,0,0,1-9.1978-4.7373,8.8313,8.8313,0,0,1-1.7773-7.2491,5.0257,5.0257,0,0,1,4.6824-4.2357,12.6,12.6,0,0,1,6.894,1.2552c1.9527.9341,3.96,1.7709,5.9909,2.5211,3.4759,1.2841,7.1454,1.365,10.79,1.5195,2.4538.104,4.6919.6085,6.21,2.787,2.243,3.2182,1.3783,7.0225-2.1623,8.6967a20.5434,20.5434,0,0,1-4.5309,1.239c-3.1229.6619-4.5794,2.0143-4.7667,5.1367a42.6317,42.6317,0,0,0,.7479,12.9518c1.052,4.23,2.42,5.347,6.74,5.6378a22.2507,22.2507,0,0,1,4.6608.6847,7.3087,7.3087,0,0,1,5.3453,5.7741,5.0428,5.0428,0,0,1-1.6212,5.0907,4.61,4.61,0,0,1-5.2614.731c-1.07-.4785-2.0044-1.2519-3.0326-1.8349a9.8781,9.8781,0,0,0-2.3765-1.1217c-1.5929-.3962-2.506.2346-2.7027,1.8376a10.0674,10.0674,0,0,0,.0483,2.9513,55.5963,55.5963,0,0,1,.3488,13.5577c-.04.591-.0762,1.183-.0858,1.7751-.05,3.038.5214,3.836,3.3651,4.73.7506.2359,1.5181.428,2.2494.7135a3.2212,3.2212,0,0,1-.3606,6.2612,6.77,6.77,0,0,1-3.19.1672c-3.6347-.8927-7.2371-1.9273-10.8218-3.0075a2.8751,2.8751,0,0,1-2.2951-2.4538,2.5189,2.5189,0,0,1,1.9614-2.645c3.3662-1.1568,4.3664-3.9,4.4613-6.9812.1212-3.9337-.111-7.8789-.2185-11.8184-.0213-.7833-.1719-1.5627-.2551-2.3447-.4239-3.9868-2.3752-5.2965-6.3035-4.21-.9507.2628-1.8728.6458-2.8344.8486a7.1414,7.1414,0,0,1-6.1563-1.3026,5.7017,5.7017,0,0,1-1.9474-6.8373,5.3844,5.3844,0,0,1,5.9908-3.2793c1.2688.15,2.5213.45,3.7754.71C149.2957,42.0406,150.8157,40.819,150.3805,36.7407Z"/><path class="cls-3" d="M258.1756,75.832c-1.6-.0739-2.9544-.2138-4.3045-.1833-3.0114.0679-6.02.26-9.0315.3228a15.9592,15.9592,0,0,1-4.6092-.23,3.3868,3.3868,0,0,1-1.8172-5.49,8.7518,8.7518,0,0,1,3.6591-2.7476c3.5456-1.3053,4.7218-3.7218,5.0514-7.3727.7475-8.2792-.3968-16.4635-.7142-24.6836-.2537-6.5716-1.0026-13.1228-1.371-19.692-.161-2.87-1.3316-4.7393-4.0833-5.5944a6.6265,6.6265,0,0,1-.8569-.3842c-1.9156-.9125-3.3892-2.2909-3.2663-4.5193A4.7633,4.7633,0,0,1,240.5383.7136a11.1747,11.1747,0,0,1,4.2878-.4747c3.7143.5084,7.3976,1.26,11.0771,1.9953a9.54,9.54,0,0,1,2.9143,1.0652c2.9263,1.7151,2.91,4.7361-.0861,6.3979a13.4265,13.4265,0,0,1-3.8449,1.2083c-3.8235.7713-4.6266,1.6773-4.4,5.4505.6564,10.9444,1.4009,21.884,1.9775,32.8326.1969,3.7393-.0366,7.5-.01,11.25.0273,3.8875.9017,4.5916,4.8774,4.68a16.28,16.28,0,0,1,5.1769.89,4.4881,4.4881,0,0,1,3.2166,4.54,4.66,4.66,0,0,1-3.509,4.348C260.8334,75.329,259.3881,75.5581,258.1756,75.832Z"/><path class="cls-1" d="M225.5253,83.4451c-1.59-.1924-2.93-.4322-4.2792-.5018-3.0081-.1554-6.0228-.1868-9.0306-.3473a15.9567,15.9567,0,0,1-4.5794-.5707,3.3868,3.3868,0,0,1-1.4054-5.61,8.75,8.75,0,0,1,3.8527-2.4689c3.6325-1.0389,4.9846-3.3617,5.5838-6.9781,1.3589-8.2011.8242-16.4477,1.1168-24.6687.234-6.5723-.0274-13.161.092-19.7395.0522-2.8744-.9768-4.8249-3.6575-5.8816a6.6126,6.6126,0,0,1-.8261-.4466c-1.8427-1.052-3.21-2.5358-2.9224-4.7489a4.7631,4.7631,0,0,1,4.0329-4.2571,11.1731,11.1731,0,0,1,4.3111-.1557c3.6664.7822,7.2839,1.8046,10.8988,2.8106A9.535,9.535,0,0,1,231.54,11.16c2.7912,1.9271,2.5514,4.9386-.56,6.3739a13.4236,13.4236,0,0,1-3.9238.92c-3.87.4859-4.7383,1.33-4.7922,5.11-.1564,10.963-.2246,21.9277-.4608,32.8888-.0807,3.7436-.5923,7.4763-.8439,11.2182-.2609,3.8788.5589,4.6458,4.5172,5.0286a16.28,16.28,0,0,1,5.0966,1.2714,4.488,4.488,0,0,1,2.8714,4.7659,4.66,4.66,0,0,1-3.8215,4.076C228.213,83.14,226.7547,83.2618,225.5253,83.4451Z"/><path class="cls-3" d="M199.0287,45.77c-1.0613,0-2.1229-.02-3.1836.0041-3.03.0688-3.8539.763-4.4089,3.7933-.3494,1.9083-.5691,3.8414-.95,5.7428-.4846,2.42-1.0544,4.8246-1.6211,7.2279-.8346,3.5395-.1215,4.7077,3.3668,5.4517a23.8454,23.8454,0,0,1,3.339.7778,3.82,3.82,0,0,1-.5555,7.4183,11.7909,11.7909,0,0,1-4.6754-.24c-3.6142-1.0218-7.2019-1.7175-10.9594-1.0063a6.0407,6.0407,0,0,1-1.852-.0137,3.8949,3.8949,0,0,1-.6457-7.6952,15.0043,15.0043,0,0,1,2.602-.4846c3.11-.364,4.0025-1.0077,4.7331-3.9986.8577-3.5115,1.5856-7.0562,2.301-10.6a17.1919,17.1919,0,0,0,.3769-3.6688,3.3778,3.3778,0,0,0-2.9661-3.5147,16.2888,16.2888,0,0,1-3.1105-.5876,13.9267,13.9267,0,0,1-4.23-2.5325c-2.2074-2.2253-1.4166-5.2252,1.4837-6.3942a12.8532,12.8532,0,0,1,7.57-.5461c4.0032.854,7.89.1774,11.84-.3026a27.8921,27.8921,0,0,1,7.1012.0439c3.436.4739,4.6308,2.0429,4.8271,4.9441.1886,2.7877-2.4725,5.3195-4.583,5.7924a24.9893,24.9893,0,0,1-3.6776.379C200.4466,45.8106,199.7361,45.7694,199.0287,45.77Z"/><path class="cls-3" d="M194.7241,30.265c-1.203-.1735-2.244-.354-3.2923-.4688-2.5326-.2774-5.0807-.4417-7.6-.8089a30.9833,30.9833,0,0,1-6.14-1.3109A5.6478,5.6478,0,0,1,173.69,21.31a6.3645,6.3645,0,0,1,5.7325-5.6664,14.2525,14.2525,0,0,1,4.6874.4,31.147,31.147,0,0,1,5.1824,1.9407,36.7912,36.7912,0,0,0,9.7664,3.1477,7.7235,7.7235,0,0,1,1.5173.4544,3.7811,3.7811,0,0,1,2.7653,3.214,3.99,3.99,0,0,1-1.97,3.7856C199.3372,30.0572,196.9661,30.2225,194.7241,30.265Z"/><path class="cls-3" d="M295.4274,50.5182c-1.06.0529-2.1213.0852-3.1795.1617-3.0224.2186-3.8113.9528-4.2157,4.0068-.2546,1.9233-.3784,3.8649-.6644,5.7828-.3642,2.4415-.8143,4.8709-1.2614,7.2993-.6584,3.5765.1116,4.7079,3.6325,5.2784a23.8565,23.8565,0,0,1,3.3734.6116,3.82,3.82,0,0,1-.1877,7.4367,11.7921,11.7921,0,0,1-4.6815-.0079c-3.66-.8417-7.2782-1.359-10.9958-.4627a6.0373,6.0373,0,0,1-1.85.0779,3.8948,3.8948,0,0,1-1.0258-7.6537,15.0007,15.0007,0,0,1,2.5749-.6128c3.0879-.5175,3.9476-1.2046,4.5293-4.228.6829-3.55,1.2344-7.126,1.7736-10.7012a17.1838,17.1838,0,0,0,.1948-3.6829,3.3777,3.3777,0,0,0-3.1363-3.3636,16.2961,16.2961,0,0,1-3.1358-.4329,13.9271,13.9271,0,0,1-4.3506-2.32c-2.3148-2.1134-1.6734-5.1487,1.1655-6.46a12.8532,12.8532,0,0,1,7.5336-.92c4.0405.6548,7.8888-.2132,11.81-.8881a27.886,27.886,0,0,1,7.0946-.3076c3.4553.3032,4.7263,1.8111,5.0659,4.6991.3263,2.7749-2.2062,5.4354-4.2907,6.0121a25.0081,25.0081,0,0,1-3.6543.5606C296.8456,50.4888,296.134,50.4828,295.4274,50.5182Z"/><path class="cls-3" d="M287.9088,34.2013c-1.2137.0655-2.27.0924-3.32.1852-2.5379.224-5.0688.562-7.6108.6952a30.9767,30.9767,0,0,1-6.278-.0828,5.6478,5.6478,0,0,1-5.1715-5.46A6.3645,6.3645,0,0,1,270.04,22.86a14.2489,14.2489,0,0,1,4.675-.5259,31.1372,31.1372,0,0,1,5.4621.888,36.7913,36.7913,0,0,0,10.1937,1.1739,7.7128,7.7128,0,0,1,1.5769.1484,3.7809,3.7809,0,0,1,3.3413,2.61,3.99,3.99,0,0,1-1.19,4.0982C292.3918,33.094,290.099,33.7206,287.9088,34.2013Z"/></svg>