<?xml version="1.0" encoding="utf-8"?>
<!-- Generator: Adobe Illustrator 23.0.6, SVG Export Plug-In . SVG Version: 6.00 Build 0)  -->
<svg version="1.1" id="Layer_1" xmlns="http://www.w3.org/2000/svg" xmlns:xlink="http://www.w3.org/1999/xlink" x="0px" y="0px"
	 viewBox="0 0 1382.6 682.1" style="enable-background:new 0 0 1382.6 682.1;" xml:space="preserve">
<style type="text/css">
	.st0{fill:#D8D8D8;}
</style>
<path class="st0" d="M1219.8,682.1h-1057C72.9,682.1,0,609.2,0,519.3l0,0V162.8C0,72.9,72.9,0,162.8,0h170h887
	c89.9,0,162.8,72.9,162.8,162.8l0,0v356.4C1382.6,609.2,1309.7,682.1,1219.8,682.1L1219.8,682.1z M370.5,366.1c2,0,3.3,0,4.6,0H1154
	c3.7,0,3.7,0,3.7-3.6c0-13.9,0-27.8,0-41.6c0-5.8,0.6-4.9-5-4.9c-259.4,0-518.7,0-778.1,0c-1.2,0-2.4,0-4,0c0.7-1.1,1-1.7,1.5-2.2
	c5.7-7.4,11.7-14.6,17.1-22.1c11.9-16.3,24.6-32.1,34.9-49.4c14.8-25,27.7-51.1,41.4-76.7c0.3-0.6,0.4-1.2,0.7-2.1c-1.2,0-2.1,0-3,0
	c-10.5,0-21,0-31.5,0c-2,0-3.4,0.6-4.8,2.1c-22.9,25.1-46.7,49.4-71.5,72.6c-17.2,16-35.1,31.2-54.1,45
	c-23.4,17.1-47.9,32.4-74.5,43.9c-1.6,0.7-2,1.6-2,3.3c0.1,5.9,0.1,11.7,0,17.6c0,1.9,0.7,2.9,2.3,3.7c4.9,2.4,9.7,4.9,14.5,7.4
	c45.8,24.6,86.6,55.9,123.4,92.5c21.3,21.3,41.7,43.5,62.5,65.4c1.3,1.4,2.6,2.1,4.6,2.1c10.9-0.1,21.9,0,32.8,0
	c0.9,0,1.7-0.1,3.2-0.2C441.9,463.5,412.7,411.1,370.5,366.1z"/>
</svg>
