<svg id="Layer_1" data-name="Layer 1" xmlns="http://www.w3.org/2000/svg" width="554.7619" height="553.9152" viewBox="0 0 554.7619 553.9152"><defs><style>.cls-1{fill:#c4e5cc;}</style></defs><title>earth-logo-light-green-letters</title><path class="cls-1" d="M83.1525,340.5076l-71.5,14.3-10-50.2,15.6-3.2,6.2,30.8,12.3-2.4-5.5-27.8,15.6-3.2,5.5,27.8,27.9-5.6Zm-41.3-119.3c8,.7,14.7,2.9,20.1,6.4a33.1714,33.1714,0,0,1,11.5,13.8,38.2083,38.2083,0,0,1,2.8,18.3,36.1894,36.1894,0,0,1-5.9,17.6,32.6068,32.6068,0,0,1-13.7,11.7c-5.9,2.7-12.7,3.7-20.8,3-8-.7-14.7-2.9-20.1-6.4a32.5691,32.5691,0,0,1-11.5-13.8,38.4328,38.4328,0,0,1-2.9-18.3,36.41,36.41,0,0,1,5.8-17.5,32.6054,32.6054,0,0,1,13.7-11.7C26.7525,221.6076,33.6525,220.6076,41.8524,221.2076Zm-1.8,20.4a34.4206,34.4206,0,0,0-11.1.8,15.1375,15.1375,0,0,0-7.3,4.5,15.5533,15.5533,0,0,0-1.5,16.4,13.1437,13.1437,0,0,0,6.4,5.6,37.7452,37.7452,0,0,0,10.9,2.7,34.4233,34.4233,0,0,0,11.1-.8,15.1369,15.1369,0,0,0,7.3-4.5,15.5533,15.5533,0,0,0,1.5-16.4,13.1439,13.1439,0,0,0-6.4-5.6A27.6756,27.6756,0,0,0,40.0524,241.6076Zm-12.5-82.2,7.7-18.2,43.1,18.1c5.1,2.2,9.1,5.2,11.8,9.2a27.12,27.12,0,0,1,4.4,13.7,41.0533,41.0533,0,0,1-3.3,16.4c-2.5,5.8-5.5,10.5-9.5,14a26.983,26.983,0,0,1-12.8,6.5,26.3123,26.3123,0,0,1-14.7-1.9l-43.3-18,7.7-18.2,41.4,17.5a11.2147,11.2147,0,0,0,11.6-1.2,13.4575,13.4575,0,0,0,3.8-4.9,12.4731,12.4731,0,0,0,1-6.2,10.3742,10.3742,0,0,0-2.2-5.4,13.4561,13.4561,0,0,0-4.9-3.8Zm57.9-82.9,56,46.6-10.6,12.7-46.3-4.2-.2.2,29.4,24.6-12.7,15.3-56.1-46.8,10.8-13,45.9,4.5.3-.4-29.2-24.3Zm77.7,33-23.6,15.3-39.8-61.1,23.3-15.1a39.76,39.76,0,0,1,18.7-6.9,32.36,32.36,0,0,1,17.5,3.6c5.5,2.9,10.2,7.6,14.4,14s6.5,12.7,6.9,18.8a30.5287,30.5287,0,0,1-3.7,17.3c-2.9,5.3-7.6,10.1-13.7,14.1Zm-16.2-9.7,6.4-4.2a22.96,22.96,0,0,0,6.7-6.4,12.621,12.621,0,0,0,1.7-8.2c-.4-3.2-2-6.8-4.8-11.1-2.8-4.2-5.5-7.2-8.1-8.8a11.22,11.22,0,0,0-8.2-1.8,24.9237,24.9237,0,0,0-9,3.7l-5.8,3.8Zm58-12.7-20.5,6,2.7-76.8,26.1-7.6,43.5,63.3-20.5,6-30.1-46.4-.6.2Zm-11.8-26.6,38.6-11.2,4.2,14.1-38.6,11.2Zm47-42.2-.3-16,63.4-1.1.3,16-22,.2,1.1,57.1-19.6.4-1.1-56.9Zm93.3-11.1-12.5,71.9-19.5-3.3,12.5-71.9Zm66,61.8c-3.1,7.5-7.1,13.2-12.2,17.2a31.5356,31.5356,0,0,1-16.7,6.9,39.6912,39.6912,0,0,1-33.3-13.4,31.8914,31.8914,0,0,1-7-16.5c-.8-6.3.3-13.2,3.4-20.7s7.1-13.2,12.2-17.2a31.8686,31.8686,0,0,1,16.5-7,38.4137,38.4137,0,0,1,18.4,2.8,36.2967,36.2967,0,0,1,15,10.8,30.8789,30.8789,0,0,1,7.1,16.5C403.6524,54.6076,402.5524,61.5076,399.4525,69.0076Zm-18.8-7.7a32.98,32.98,0,0,0,2.6-10.8,14.5351,14.5351,0,0,0-2.1-8.2,14.27,14.27,0,0,0-6.8-5.3,13.1289,13.1289,0,0,0-8.6-.9,14.36,14.36,0,0,0-7.3,4.5,32.1258,32.1258,0,0,0-5.8,9.6,32.98,32.98,0,0,0-2.6,10.8,14.5346,14.5346,0,0,0,2.1,8.2,14.27,14.27,0,0,0,6.8,5.3,13.129,13.129,0,0,0,8.6.9,14.36,14.36,0,0,0,7.3-4.5c2.3-2.2,4.2-5.5,5.8-9.6Zm97.5,25.2-47,55.8-12.6-10.6,4.4-46.2-.2-.2-24.6,29.2-15.1-12.7,47-55.8,12.8,10.9-4.7,46,.4.3,24.4-29.4Zm-5.8,129.1,71.7-13.7,9.5,50.3-15.7,2.9-5.9-31-12.4,2.4,5.3,27.9-15.7,2.9-5.3-27.9-28,5.4Zm40.1,119.6c-8.1-.8-14.8-3-20-6.7a32.46,32.46,0,0,1-11.4-13.9,39.422,39.422,0,0,1,3.4-35.7,33.0638,33.0638,0,0,1,13.9-11.6c5.8-2.6,12.8-3.6,20.8-2.7,8.1.8,14.8,3,20,6.7a32.0159,32.0159,0,0,1,11.4,13.9,37.3985,37.3985,0,0,1,2.6,18.4,36.9585,36.9585,0,0,1-6,17.5,31.7873,31.7873,0,0,1-13.9,11.6,41.9925,41.9925,0,0,1-20.8,2.5Zm1.9-20.2a30.0078,30.0078,0,0,0,11.1-.6,15.6143,15.6143,0,0,0,7.4-4.4,14.4677,14.4677,0,0,0,3.2-8,13.8861,13.8861,0,0,0-1.6-8.5,14.2636,14.2636,0,0,0-6.3-5.8,33.2692,33.2692,0,0,0-10.8-2.8,30.0057,30.0057,0,0,0-11.1.6,14.2556,14.2556,0,0,0-7.3,4.5,14.4694,14.4694,0,0,0-3.2,8,13.8877,13.8877,0,0,0,1.6,8.5,14.2642,14.2642,0,0,0,6.3,5.8C506.3524,313.7076,509.9525,314.5076,514.3524,315.0076Zm11.6,82.3-7.9,18.1-42.8-18.5a25.6911,25.6911,0,0,1-11.7-9.4,25.2257,25.2257,0,0,1-4.2-13.8,39.88,39.88,0,0,1,3.5-16.5,39.0564,39.0564,0,0,1,9.6-13.9,24.8454,24.8454,0,0,1,27.7-4.3l43,18.6-7.9,18.1-41.3-18a13.6019,13.6019,0,0,0-6.2-1.1,12.73,12.73,0,0,0-5.4,2.1,12.4721,12.4721,0,0,0-3.8,4.9,13.6022,13.6022,0,0,0-1.1,6.2,12.729,12.729,0,0,0,2.1,5.4,12.4712,12.4712,0,0,0,4.9,3.8Zm-58.8,82.3-55.5-47.2,10.8-12.6,46.3,4.7.3-.2-29.4-24.8,12.8-15.2,55.5,47.2-10.9,12.8-45.9-5-.4.4,29.1,24.8Zm-77.2-33.8,23.6-15,39.1,61.5-23.5,15a42.253,42.253,0,0,1-18.7,6.8,28.8894,28.8894,0,0,1-17.3-3.8c-5.5-2.9-10.2-7.7-14.3-14.2s-6.3-12.7-6.7-18.9a31.8552,31.8552,0,0,1,3.9-17.4,40.3256,40.3256,0,0,1,13.9-14Zm16,9.7-6.3,4a22.8094,22.8094,0,0,0-6.9,6.5,11.9564,11.9564,0,0,0-1.8,8.2c.3,3.2,1.9,6.8,4.7,11.2q4.2,6.3,8.1,9a11.4429,11.4429,0,0,0,8.3,1.9,21.8116,21.8116,0,0,0,9-3.7l5.9-3.8Zm-58,12.2,20.5-5.7-3.6,76.8-26.1,7.2-42.9-63.8,20.5-5.7,29.6,46.6.6-.2Zm11.5,26.6-38.7,10.7-4-14.3,38.7-10.7Zm-47.6,41.9.1,16-63.4.5-.1-16,21.9-.2-.5-57,19.6-.2.5,57Zm-93.3,10,13.2-71.8,19.4,3.6-13.2,71.8Zm-65.5-62.4c3.1-7.5,7.3-13.2,12.3-17.2a30.94,30.94,0,0,1,16.6-6.7,38.22,38.22,0,0,1,18.3,3,37.7621,37.7621,0,0,1,14.9,10.9,30.7309,30.7309,0,0,1,6.8,16.6q1.2,9.45-3.6,20.7c-3.1,7.5-7.3,13.2-12.3,17.2a30.94,30.94,0,0,1-16.6,6.7,38.2186,38.2186,0,0,1-18.3-3,39.2487,39.2487,0,0,1-14.9-10.9,31.4154,31.4154,0,0,1-7-16.6C148.7525,498.3076,149.9524,491.3076,153.0524,483.8076Zm18.9,7.9a29.0178,29.0178,0,0,0-2.6,10.8,14.2947,14.2947,0,0,0,2,8.2,13.5249,13.5249,0,0,0,6.7,5.3c3,1.2,5.9,1.7,8.5,1a14.8021,14.8021,0,0,0,7.4-4.4,29.6328,29.6328,0,0,0,5.8-9.5,28.5851,28.5851,0,0,0,2.6-10.8,14.2931,14.2931,0,0,0-2-8.2,13.5234,13.5234,0,0,0-6.7-5.3c-3-1.2-5.9-1.7-8.5-1a15.5641,15.5641,0,0,0-7.4,4.4A27.5647,27.5647,0,0,0,171.9524,491.7076Zm-97.3-26.2,47.4-55.4,12.6,10.8-5,46.2.2.3,24.9-29.1,15,12.8-47.4,55.4-12.8-11,5.1-45.9-.4-.4-24.8,29Z"/><rect class="cls-1" x="472.794" y="135.0253" width="49.9004" height="34.0003" transform="translate(-10.9984 261.7613) rotate(-29.1564)"/><polygon class="cls-1" points="444.352 181.808 467.052 128.608 501.552 190.508 444.352 181.808"/><rect class="cls-1" x="29.2074" y="384.0078" width="49.9007" height="34.0005" transform="translate(-179.0624 70.3286) rotate(-27.5029)"/><polygon class="cls-1" points="108.452 372.708 84.252 425.308 51.552 362.408 108.452 372.708"/></svg>