<?xml version="1.0" encoding="utf-8"?>
<!-- Generator: Adobe Illustrator 23.0.6, SVG Export Plug-In . SVG Version: 6.00 Build 0)  -->
<svg version="1.1" id="Layer_1" xmlns="http://www.w3.org/2000/svg" xmlns:xlink="http://www.w3.org/1999/xlink" x="0px" y="0px"
	 viewBox="0 0 682.1 682.1" style="enable-background:new 0 0 682.1 682.1;" xml:space="preserve">
<style type="text/css">
	.st0{fill:#1C1C1C;}
</style>
<path class="st0" d="M519.3,682.1H162.8C72.9,682.1,0,609.2,0,519.3l0,0V162.8C0,72.9,72.9,0,162.8,0h170h186.5
	c89.9,0,162.8,72.9,162.8,162.8l0,0v356.4C682.1,609.2,609.2,682.1,519.3,682.1L519.3,682.1z M398.2,476.3
	c8.2,12.6,9.7,26.9,9.8,41.5c0.1,23.5,0,47.1,0,70.6c0,12,8.1,18.3,19.3,14.1c13.3-5,26.6-10.3,39.3-16.8
	c34.6-17.8,63.5-42.8,87.3-73.6c25.1-32.5,42.4-68.6,50.6-108.9c6.2-30.4,7.4-61,3.4-91.7c-4.3-33.6-14.8-65.2-31.4-94.8
	c-18.4-32.8-42.2-60.8-72.2-83.4c-35.6-26.8-75.2-44.4-119.4-51.4c-32.9-5.2-65.7-4.7-98.2,1.8c-42.6,8.5-80.6,26.9-114.5,54.1
	c-32.6,26.1-57.4,58.3-75.3,96c-13,27.4-20.6,56.2-23.6,86.3c-3.8,38.1-0.1,75.5,11.8,111.9c12,36.7,31.8,68.9,57.7,97.6
	c30.9,34.2,68.3,58,111.7,73c11.5,4,20.1-2.3,20-14.5c-0.1-14.6-0.2-29.1-0.4-43.7c0-1.3-0.2-2.6-0.3-4c-1.2,0.1-2.1,0-2.9,0.2
	c-15.1,2.9-30.1,2.3-45.2,0.1c-14.1-2.1-26.3-7.8-34.9-19.3c-4-5.3-6.5-11.8-9.4-17.9c-6.7-14.1-14.5-27.2-28.6-35.4
	c-3.1-1.8-5.5-4.8-7.7-7.7c-3-3.8-2.1-6,2.7-7.2c8.5-2.2,16.3,0.2,23.8,3.9c12.2,5.9,20.8,15.4,27.7,26.9
	c7.6,12.5,18.1,21.9,32.9,24.6c13.1,2.4,26,0.1,38.5-4.4c3.2-1.2,4.2-3.2,5.1-6.2c2.3-7.4,5-14.6,8.2-21.7c1.6-3.6,4.7-6.4,7.2-9.9
	c-1.3-0.2-2.2-0.4-3-0.5c-19-2.6-37.7-6.1-55.2-14.4c-22.1-10.5-39.7-25.4-49.9-48.2c-9.2-20.4-13-41.9-13.7-64.2
	c-0.9-28.6,6.6-54,25.6-75.7c0.9-1.1,1.5-3.3,1-4.6c-7.1-19.6-5.9-39.2,0-58.9c3.4-11.2,5.5-12.5,17.2-10.3c0.6,0.1,1.1,0.3,1.7,0.4
	c19.8,5.2,38.1,13.8,55.1,25.1c2.7,1.8,5.1,2.1,8.2,1.3c41.9-10.7,83.7-10.8,125.6,0c3.3,0.8,5.7,0.2,8.6-1.4
	c13.3-7.2,26.6-14.4,40.3-20.7c6.3-2.9,13.5-4.2,20.4-5.1c8.8-1.1,9-0.7,11.8,7.8c6.8,20.3,8.7,40.8,1.1,61.3c-1,2.6-0.1,4,1.5,5.8
	c10.6,12.2,18.1,26,21.9,41.7c4.9,20.2,3.9,40.6,0.7,60.9c-2.9,18.2-8.5,35.6-19.1,50.7c-16.9,24.1-41.5,36.2-69,43.2
	c-10.2,2.6-20.7,3.9-31.2,5.9C393.3,469.9,396,472.9,398.2,476.3z"/>
</svg>
