<?xml version="1.0" encoding="utf-8"?>
<!-- Generator: Adobe Illustrator 23.0.6, SVG Export Plug-In . SVG Version: 6.00 Build 0)  -->
<svg version="1.1" id="Layer_1" xmlns="http://www.w3.org/2000/svg" xmlns:xlink="http://www.w3.org/1999/xlink" x="0px" y="0px"
	 viewBox="0 0 1764.6 682.1" style="enable-background:new 0 0 1764.6 682.1;" xml:space="preserve">
<style type="text/css">
	.st0{fill:#D8D8D8;}
</style>
<path class="st0" d="M1601.8,682.1h-1057c-89.9,0-162.8-72.9-162.8-162.8c0,0,0,0,0,0V162.8C382,72.9,454.9,0,544.8,0c0,0,0,0,0,0
	h1057c89.9,0,162.8,72.9,162.8,162.8c0,0,0,0,0,0v356.4C1764.6,609.2,1691.7,682.1,1601.8,682.1
	C1601.8,682.1,1601.8,682.1,1601.8,682.1z M1080.4,188.3c-5.7,9.2-10,19-13,29.4c-3.2,11.6-4.8,23.6-4.6,35.6c0,29.2,0,58.4,0,87.6
	h0c0,27.3,0,54.7,0,82c0,4.8-0.1,9.5,0.2,14.3c2.3,38.6,18.9,69.6,50.7,91.7c29.8,20.7,62.7,25.7,97.7,16.5
	c10.4-2.7,20.7-5.9,31.1-8.8c19.7-5.6,39.4-11.3,59.1-16.9c8.2-2.3,16.8-2.8,25.2-1.5c14.9,2.3,29.9,4.4,44.8,6.7
	c23.5,3.5,47.1,7,70.6,10.5c26,3.9,52,7.8,78,11.6c8.6,1.4,17.3,1.6,26,0.6c30.2-4.1,55.1-25.5,63.6-54.8c2.3-8.6,3.4-17.5,3.3-26.4
	c0-37.1,0-74.1,0-111.2c0-2.9-0.2-5.8-0.6-8.7c-0.5-6-4.6-11-10.3-12.9c-3.3-1.2-6.7-2.1-10.1-2.9c-33.2-7.8-66.5-15.6-99.7-23.3
	c-24.2-5.6-48.4-11.2-72.6-16.8c-2.6-0.6-5.3-1-8-1.2c-6.2-0.9-12.2,3-13.9,9c-0.8,1.9-1.4,3.9-1.9,5.9
	c-5.2,22.4-10.4,44.7-15.6,67.1c-0.6,2.6-0.8,5.3-0.8,8c-0.1,4.5,2.4,8.6,6.4,10.6c2.4,1.2,4.9,2.2,7.5,2.9
	c5.4,1.4,10.9,2.6,16.3,3.9c27.2,6.3,54.4,12.7,81.6,19c3,0.6,6,1.5,8.9,2.6c4.3,1.5,6.9,5.8,6.3,10.3c0.3,3.8-2.4,7.1-6.2,7.4
	c-0.4,0-0.8,0-1.2,0c-2.3,0-4.5-0.2-6.8-0.6c-23.3-3.5-46.7-6.9-70-10.4c-24.2-3.6-48.3-7.2-72.5-10.8c-7.6-1.1-15.2-2.2-22.8-2.9
	c-17.8-1.4-35.7,0.5-52.8,5.6c-26.8,7.8-53.7,15.5-80.6,23.1c-3,0.9-6,1.6-9.1,2.1c-9,1.2-14.3-2.8-15.8-11.7
	c-0.2-1.6-0.4-3.3-0.4-4.9c-0.1-2.1-0.1-4.1-0.1-6.2c0-52.4,0-104.8,0-157.1c0-2.5-0.1-5,0.1-7.4c0.1-2.3,0.5-4.5,1.1-6.7
	c1.3-5.2,6-8.9,11.4-8.8c1.7,0,3.3,0.1,4.9,0.5c4.2,1,8.4,2,12.6,3.2c26.1,7.5,52.1,15,78.2,22.4c17.1,5.1,35.1,6.7,52.9,4.6
	c16.2-2.1,32.4-4.4,48.6-6.8c26.4-3.9,52.8-7.9,79.2-11.9c31.3-4.7,62.6-9.3,94-14c3.3-0.5,6.5-1.3,9.6-2.4
	c5.1-1.6,8.6-6.4,8.6-11.8c0.1-2.5,0-5-0.3-7.4c-3.2-22.1-6.5-44.2-9.9-66.3c-0.5-3.3-1.4-6.5-2.5-9.6c-1.4-4-5-6.9-9.2-7.5
	c-2.4-0.4-4.9-0.5-7.4-0.3c-3.3,0.2-6.6,0.8-9.8,1.3c-18,2.7-36,5.4-54,8.1c-23.5,3.5-47.1,7-70.6,10.5c-26,3.9-52,7.8-78,11.7
	c-9.4,1.5-19.1,0.9-28.2-1.9c-11.3-3.4-22.7-6.6-34-9.8c-18.7-5.3-37.4-10.8-56.1-15.9c-15.9-4.3-32.4-5-48.6-2.2
	C1127.6,139.9,1098.3,159.6,1080.4,188.3l-56.6,0c-2.9-11.5-5.9-23.3-8.8-34.8c-0.6-2.4-1.3-4.8-2.3-7.1c-2-6.7-8.8-10.7-15.7-9.2
	c-2.9,0.4-5.7,1-8.5,1.8c-57.4,14.4-114.8,28.8-172.2,43.2c-9.8,2.5-20.1,3.1-30.1,1.6c-37.3-5.2-74.6-10.4-111.9-15.5
	c-38.3-5.3-76.7-10.6-115-15.8c-2.3-0.3-4.5-0.5-6.8-0.5c-6.7-0.6-12.8,4.1-14,10.7c-0.9,3.4-1.5,6.9-2,10.4c-2.4,17-4.8,34-7.1,51
	c-0.9,5.9-1.5,11.9-1.8,17.9c-0.2,7.4,3.2,11.5,10.2,13.7c1.4,0.4,2.8,0.8,4.2,1c4.5,0.7,9,1.5,13.5,2.1c25.4,3.5,50.8,7,76.3,10.5
	c32.6,4.5,65.2,9,97.8,13.5c3.1,0.4,6.2,0.8,9.2,1.4c7.9,1.5,10.2,4.1,10.8,12c0.2,2.1,0.1,4.1,0.1,6.2c0,13.2,0,26.5,0,39.7
	c0,13.9,0,27.7,0,41.6c0,2.5-0.2,5-0.4,7.4c-0.2,4.5-3.6,8.3-8.1,8.9c-2.6,0.6-5.3,1-7.9,1.4c-22.3,3.1-44.7,6.1-67,9.2
	c-38.7,5.3-77.5,10.7-116.2,16c-3.1,0.4-6.2,0.8-9.2,1.5c-10.1,2.2-13.6,6.8-13.2,17c0.1,2.1,0.3,4.1,0.6,6.2
	c2.8,20.5,5.6,41,8.5,61.5c0.5,3.5,1.2,6.9,2.2,10.3c1.4,5.7,6.6,9.6,12.4,9.4c3.5,0.1,7-0.2,10.5-0.6c35.9-4.9,71.8-9.8,107.6-14.8
	c39.4-5.4,78.7-10.8,118.1-16.3c9-1.3,18.2-0.9,27.1,1.3c23.9,5.8,47.9,11.5,71.8,17.2c34.2,8.2,68.4,16.3,102.6,24.5
	c2.6,0.7,5.3,1.1,7.9,1.4c7.6,0.6,12.1-2.2,14.9-9.4c0.8-2.1,1.5-4.3,2-6.5c5.2-21.5,10.4-43.1,15.5-64.6c0.6-2.4,1-4.9,1.1-7.4
	c0.7-5.8-2.6-11.3-8-13.4c-2.3-1-4.6-1.8-7-2.4c-5-1.3-10-2.5-15.1-3.7c-43.3-10.4-86.5-20.7-129.8-31.1c-2.2-0.5-4.4-1.1-6.6-1.8
	c-4.8-1.2-8.2-5.5-8.2-10.4c-0.1-1.9-0.2-3.7-0.2-5.6c0-31,0-62.1,0-93.1c0-2.3,0.1-4.6,0.4-6.8c0.3-3.8,2.8-7.2,6.4-8.5
	c2.7-1.1,5.5-1.9,8.3-2.6c33.1-8.3,66.2-16.7,99.3-24.9c14.9-3.7,29.7-7.4,44.5-11.2c3.6-0.9,7.1-2.1,10.5-3.6c4.8-2,7.7-6.9,7.2-12
	c-0.2-3.1-0.6-6.2-1.4-9.2c-2.3-9.5-4.7-18.9-7.1-28.4L1080.4,188.3z"/>
</svg>
