<?xml version="1.0" encoding="utf-8"?>
<!-- Generator: Adobe Illustrator 23.0.6, SVG Export Plug-In . SVG Version: 6.00 Build 0)  -->
<svg version="1.1" id="Layer_1" xmlns="http://www.w3.org/2000/svg" xmlns:xlink="http://www.w3.org/1999/xlink" x="0px" y="0px"
	 viewBox="0 0 1764.6 682.1" style="enable-background:new 0 0 1764.6 682.1;" xml:space="preserve">
<style type="text/css">
	.st0{fill:#D8D8D8;}
</style>
<path class="st0" d="M865.2,340.7c0-47.7,0-95.4,0-143.1c0-19.7,2.1-39.1,7.5-58.2C893.1,68.3,952.6,15.2,1025.6,3
	c26.4-4.6,53.6-3.3,79.5,3.7c30.7,8.3,61.2,17.3,91.8,26c18.5,5.3,37.1,10.4,55.6,16c15,4.5,30.7,5.5,46.2,3
	c42.5-6.4,85-12.8,127.4-19.1c38.5-5.7,76.9-11.5,115.4-17.1c29.4-4.4,58.9-8.8,88.3-13.2c5.4-0.8,10.7-1.8,16.1-2.1
	c4-0.3,8.1-0.2,12.1,0.4c6.9,0.9,12.7,5.6,15,12.2c1.9,5.1,3.3,10.3,4.1,15.6c5.5,36.1,10.9,72.3,16.2,108.4c0.6,4,0.8,8.1,0.5,12.1
	c-0.4,9.4-5.1,16.1-14,19.3c-5.1,1.8-10.4,3.1-15.7,3.9c-51.2,7.7-102.3,15.3-153.6,22.9c-43.2,6.4-86.3,13-129.5,19.4
	c-26.4,3.9-52.9,7.8-79.4,11.1c-29.3,3.7-58.1,0.4-86.4-7.6c-42.6-12-85.2-24.4-127.8-36.6c-6.8-2-13.7-3.7-20.6-5.3
	c-2.6-0.6-5.3-0.9-8-0.9c-9.4,0.3-16,5.4-18.7,14.4c-1,3.6-1.6,7.3-1.8,11c-0.3,4-0.2,8.1-0.2,12.2c0,85.6,0,171.2,0,256.8
	c0,3.4,0,6.8,0.1,10.2c0,2.7,0.3,5.4,0.7,8.1c2.4,14.6,11.1,21.1,25.7,19.2c5-0.8,10-2,14.8-3.5c43.9-12.5,87.8-25,131.7-37.8
	c28.3-8.2,57-11.5,86.3-9.1c12.5,1,24.9,2.9,37.2,4.7c39.5,5.8,79,11.8,118.4,17.6c38.1,5.7,76.3,11.4,114.4,17
	c3.7,0.6,7.4,0.9,11.1,0.9c7.8-0.2,11.7-4.3,12-12.1c0.4-8.1-2.8-13.8-10.3-16.9c-4.7-1.8-9.6-3.2-14.6-4.3
	c-44.5-10.4-88.9-20.8-133.4-31.1c-8.9-2.1-17.8-4-26.6-6.4c-4.3-1.1-8.4-2.7-12.3-4.7c-6.8-3.6-10.5-9.6-10.5-17.3
	c-0.1-4.4,0.4-8.8,1.3-13.1c8.4-36.6,16.9-73.2,25.5-109.7c0.8-3.3,1.8-6.5,3.1-9.7c4.4-10.8,11.2-15.3,22.8-14.8
	c4.4,0.3,8.7,0.9,13,1.9c39.6,9.1,79.1,18.3,118.6,27.5c54.3,12.7,108.7,25.4,163,38.1c5.6,1.2,11.1,2.8,16.6,4.7
	c9.7,3.6,15.5,10.6,16.8,21c0.6,4.7,0.9,9.4,1,14.2c0.1,60.6,0.1,121.1,0,181.7c0,14.6-1.3,29-5.3,43.2
	c-13.8,47.8-54.5,82.9-103.8,89.6c-14.3,1.9-28.4,1-42.5-1c-42.5-6.2-85-12.7-127.5-19c-38.5-5.7-77-11.5-115.4-17.1
	c-24.4-3.6-48.9-7.1-73.3-10.9c-13.7-2.2-27.8-1.4-41.2,2.4c-32.2,9.3-64.4,18.6-96.6,27.7c-16.9,4.8-33.8,9.9-50.8,14.4
	c-57.3,15-111.1,6.7-159.8-27c-52-36.1-79.2-86.7-82.9-149.8c-0.5-7.8-0.3-15.6-0.3-23.3C865.2,430.2,865.2,385.5,865.2,340.7
	L865.2,340.7z"/>
<path class="st0" d="M363.1,338.7c0-21.6,0-43.3,0-65c0-3.4,0-6.8-0.2-10.1c-1-12.9-4.8-17.1-17.7-19.6c-5-0.9-10-1.5-15-2.3
	c-53.3-7.3-106.5-14.7-159.8-22.1c-41.5-5.7-83.1-11.4-124.6-17.1c-7.4-1-14.7-2.2-22.1-3.4c-2.3-0.4-4.6-0.9-6.9-1.6
	C5.4,193.9-0.1,187.1,0.2,175c0.3-9.8,1.7-19.5,3-29.2c3.7-27.8,7.6-55.6,11.6-83.4c0.7-5.7,1.8-11.4,3.2-16.9
	c3.4-12,10.5-17.4,22.9-17.5c3.7,0,7.4,0.3,11.1,0.8c62.7,8.6,125.3,17.2,188,25.8C301,63,361.9,71.5,422.9,80
	c16.4,2.4,33.2,1.5,49.2-2.6c93.8-23.7,187.6-47.3,281.4-70.6c4.6-1.2,9.2-2.2,13.9-2.9c12.7-1.6,20.7,3.1,25.6,15
	c1.5,3.8,2.7,7.6,3.7,11.6c8.7,34.4,17.4,68.9,26,103.3c1.2,4.9,2,9.9,2.3,15c0.4,8.9-3.6,15.9-11.8,19.6
	c-5.6,2.5-11.3,4.4-17.2,5.9c-24.2,6.3-48.5,12.3-72.8,18.4c-54.1,13.6-108.2,27.2-162.4,40.8c-4.6,1.1-9.1,2.5-13.5,4.3
	c-6.2,2.5-9.7,7.3-10.4,13.9c-0.4,3.7-0.6,7.4-0.6,11.1c0,50.8,0,101.5,0,152.2c0,3,0.2,6.1,0.3,9.1c0.4,8.8,5.1,14.4,13.4,17.1
	c3.5,1.1,7.2,2.1,10.8,2.9c70.7,16.9,141.4,33.8,212.1,50.8c8.2,2,16.5,3.9,24.6,6c3.9,1,7.8,2.3,11.5,3.9
	c9.5,4.2,13.7,11.8,13.1,21.9c-0.3,4-0.9,8.1-1.8,12c-8.4,35.2-16.8,70.4-25.3,105.6c-0.9,3.6-2,7.2-3.3,10.7
	c-4.6,11.7-11.9,16.4-24.3,15.4c-4.4-0.4-8.7-1.2-13-2.2c-55.9-13.3-111.9-26.6-167.8-40c-39.1-9.3-78.3-18.5-117.4-28.1
	c-14.5-3.5-29.5-4.2-44.2-2.1c-64.3,9-128.6,17.8-193,26.7c-58.6,8.1-117.3,16.2-175.9,24.2c-5.7,0.8-11.4,1.1-17.2,1
	c-10.3-0.2-17.3-5.5-20.3-15.3c-1.6-5.5-2.8-11.1-3.6-16.8c-4.7-33.5-9.4-67-13.9-100.5c-0.5-3.3-0.8-6.7-0.9-10.1
	c-0.7-16.7,5.1-24.2,21.6-27.8c5-1.1,10-1.8,15-2.5c63.3-8.8,126.7-17.5,190-26.2c36.5-5,73-10,109.6-15c4.4-0.6,8.7-1.3,13-2.3
	c7.7-1.8,12.5-6.5,13.3-14.6c0.4-4,0.6-8.1,0.6-12.2C363.1,384,363.1,361.3,363.1,338.7z"/>
</svg>
