<?xml version="1.0" encoding="utf-8"?>
<!-- Generator: Adobe Illustrator 23.0.6, SVG Export Plug-In . SVG Version: 6.00 Build 0)  -->
<svg version="1.1" id="Layer_1" xmlns="http://www.w3.org/2000/svg" xmlns:xlink="http://www.w3.org/1999/xlink" x="0px" y="0px"
	 viewBox="0 0 682.1 682.1" style="enable-background:new 0 0 682.1 682.1;" xml:space="preserve">
<style type="text/css">
	.st0{fill:#1C1C1C;}
</style>
<path class="st0" d="M519.3,682.1H162.8C72.9,682.1,0,609.2,0,519.3l0,0V162.8C0,72.9,72.9,0,162.8,0h170h186.5
	c89.9,0,162.8,72.9,162.8,162.8l0,0v356.4C682.1,609.2,609.2,682.1,519.3,682.1L519.3,682.1z M590,186.6c-0.8-0.1-1.4,0.3-2.1,0.6
	c-14.3,6.1-29.1,10.4-44.4,13.1c-1.7,0.3-3.3,0.6-5,0.8c-1.7,0.2-3.3,0.8-5.5,0.3c21.2-13.6,35.9-31.9,43.9-55.7
	c-0.7,0.2-0.9,0.2-1,0.2c-0.8,0.4-1.5,0.9-2.3,1.3c-18.7,10.6-38.6,18.1-59.6,22.5c-1.4,0.3-2.3,0.1-3.4-1
	c-15.8-15.9-34.6-26.2-56.8-29.6c-34.4-5.2-64.6,4.1-89.1,28.7c-25.7,25.8-34.7,57.3-28.2,93.1c0.5,2.7,0.5,2.8-2.4,2.6
	c-9.7-0.5-19.3-1.6-28.8-3.1c-26-4.2-51-11.7-74.9-22.7c-40.4-18.6-74.7-45-103.2-79.1c-1.7-2.1-1.7-2.1-3.1,0.4
	c-7.5,13.8-11.7,28.5-12.3,44.3c-1.2,32.6,10.5,59.7,34.4,81.7c3.2,2.9,6.7,5.3,10.5,8.4c-1.5,0-2.4,0.1-3.4,0
	c-14.2-1.1-27.6-4.8-40.2-11.3c-2.4-1.2-2.4-1.3-2.3,1.5c0.1,3.2,0.1,6.5,0.6,9.6c5.7,40.8,27.7,69.1,65.8,84.9
	c4.8,2,9.9,3.1,15.3,4.6c-0.9,0.3-1.4,0.5-1.8,0.6c-13.4,3.3-26.9,3.9-40.5,1.7c-3.4-0.6-3.5-0.5-2.3,2.9
	c3.7,10.2,8.8,19.7,15.6,28.2c19.4,24.2,44.7,37.5,75.8,39.5c0.8,0.1,1.7,0,2.7,0.7c-44.7,33.7-94.6,47.5-150,42.4
	c5.3,3.8,10.8,6.9,16.3,10c35.1,19.1,72.5,30.7,112.4,34.3c34.9,3.2,69.3,0.7,103.3-7.9c37.2-9.3,71.1-25.6,101.4-49.1
	c29.3-22.6,53.1-50.1,72-81.9c13-21.8,23.1-44.9,30.3-69.3c9-30.4,13.4-61.3,12-93c-0.1-2,0.4-3.3,2.1-4.5
	c18.1-13.4,33.6-29.3,46.5-47.7C589,188.7,590,187.9,590,186.6L590,186.6z"/>
</svg>
